<svg xmlns="http://www.w3.org/2000/svg" xmlns:xlink="http://www.w3.org/1999/xlink" width="154.928" height="115.44" viewBox="0 0 154.928 115.44">
  <defs>
    <clipPath id="clip-path">
      <rect id="Rectangle_151" data-name="Rectangle 151" width="154.928" height="115.44" fill="none"/>
    </clipPath>
    <clipPath id="clip-path-3">
      <rect id="Rectangle_115" data-name="Rectangle 115" width="108.859" height="1.726" fill="none"/>
    </clipPath>
    <clipPath id="clip-path-15">
      <rect id="Rectangle_127" data-name="Rectangle 127" width="108.859" height="1.729" fill="none"/>
    </clipPath>
    <clipPath id="clip-path-17">
      <rect id="Rectangle_137" data-name="Rectangle 137" width="2.999" height="3.731" fill="none"/>
    </clipPath>
    <clipPath id="clip-path-18">
      <rect id="Rectangle_138" data-name="Rectangle 138" width="2.82" height="2.968" fill="none"/>
    </clipPath>
    <clipPath id="clip-path-19">
      <rect id="Rectangle_139" data-name="Rectangle 139" width="6.54" height="9.249" fill="none"/>
    </clipPath>
    <clipPath id="clip-path-20">
      <rect id="Rectangle_140" data-name="Rectangle 140" width="2.27" height="2.473" fill="none"/>
    </clipPath>
    <clipPath id="clip-path-21">
      <rect id="Rectangle_141" data-name="Rectangle 141" width="4.068" height="14.678" fill="none"/>
    </clipPath>
    <clipPath id="clip-path-22">
      <rect id="Rectangle_142" data-name="Rectangle 142" width="2.042" height="4.992" fill="none"/>
    </clipPath>
    <clipPath id="clip-path-23">
      <rect id="Rectangle_145" data-name="Rectangle 145" width="54.944" height="77.021" fill="none"/>
    </clipPath>
    <clipPath id="clip-path-24">
      <rect id="Rectangle_146" data-name="Rectangle 146" width="9.09" height="17.488" fill="none"/>
    </clipPath>
    <clipPath id="clip-path-25">
      <rect id="Rectangle_147" data-name="Rectangle 147" width="17.975" height="18.155" fill="none"/>
    </clipPath>
    <clipPath id="clip-path-26">
      <rect id="Rectangle_148" data-name="Rectangle 148" width="41.08" height="10.834" fill="none"/>
    </clipPath>
    <clipPath id="clip-path-27">
      <rect id="Rectangle_149" data-name="Rectangle 149" width="4.555" height="4.431" fill="none"/>
    </clipPath>
  </defs>
  <g id="Group_238" data-name="Group 238" clip-path="url(#clip-path)">
    <rect id="Rectangle_97" data-name="Rectangle 97" width="154.928" height="0.077" transform="translate(0 101.447)" fill="#ebebeb"/>
    <rect id="Rectangle_98" data-name="Rectangle 98" width="10.262" height="0.077" transform="translate(129.142 106.432)" fill="#ebebeb"/>
    <rect id="Rectangle_99" data-name="Rectangle 99" width="8.478" height="0.077" transform="translate(82.998 104.037)" fill="#ebebeb"/>
    <rect id="Rectangle_100" data-name="Rectangle 100" width="5.946" height="0.077" transform="translate(122.886 103.557)" fill="#ebebeb"/>
    <rect id="Rectangle_101" data-name="Rectangle 101" width="5.314" height="0.077" transform="translate(16.255 104.078)" fill="#ebebeb"/>
    <rect id="Rectangle_102" data-name="Rectangle 102" width="10.033" height="0.077" transform="translate(24.327 104.078)" fill="#ebebeb"/>
    <rect id="Rectangle_103" data-name="Rectangle 103" width="18.706" height="0.077" transform="translate(51.058 105.385)" fill="#ebebeb"/>
    <g id="Group_237" data-name="Group 237">
      <g id="Group_236" data-name="Group 236" clip-path="url(#clip-path)">
        <path id="Path_596" data-name="Path 596" d="M99.806,87.627H39.976a1.769,1.769,0,0,1-1.766-1.769V1.754A1.769,1.769,0,0,1,39.976,0h59.83a1.769,1.769,0,0,1,1.769,1.769V85.858a1.769,1.769,0,0,1-1.769,1.769M39.976.062a1.692,1.692,0,0,0-1.689,1.692v84.1a1.692,1.692,0,0,0,1.689,1.692h59.83a1.7,1.7,0,0,0,1.692-1.692V1.754A1.7,1.7,0,0,0,99.806.062Z" transform="translate(-26.37)" fill="#ebebeb"/>
        <path id="Path_597" data-name="Path 597" d="M316.1,87.627H256.269a1.773,1.773,0,0,1-1.769-1.769V1.754A1.772,1.772,0,0,1,256.269,0H316.1a1.769,1.769,0,0,1,1.763,1.754v84.1a1.769,1.769,0,0,1-1.763,1.769M256.269.062a1.7,1.7,0,0,0-1.692,1.692v84.1a1.7,1.7,0,0,0,1.692,1.692H316.1a1.7,1.7,0,0,0,1.692-1.692V1.754A1.7,1.7,0,0,0,316.1.062Z" transform="translate(-175.642)" fill="#ebebeb"/>
        <rect id="Rectangle_104" data-name="Rectangle 104" width="5.252" height="43.324" transform="translate(19.939 56.71)" fill="#f0f0f0"/>
        <rect id="Rectangle_105" data-name="Rectangle 105" width="50.441" height="1.413" transform="translate(20.667 100.034)" fill="#f0f0f0"/>
        <rect id="Rectangle_106" data-name="Rectangle 106" width="46.646" height="43.324" transform="translate(25.191 56.707)" fill="#fafafa"/>
        <path id="Path_598" data-name="Path 598" d="M131.568,242.417H96.619a1.6,1.6,0,0,1-1.6-1.6v-6.569a1.6,1.6,0,0,1,1.6-1.6h34.949a1.6,1.6,0,0,1,1.6,1.6v6.569a1.6,1.6,0,0,1-1.6,1.6" transform="translate(-65.577 -160.562)" fill="#f0f0f0"/>
        <path id="Path_599" data-name="Path 599" d="M131.568,282.987H96.619a1.6,1.6,0,0,1-1.6-1.6v-6.569a1.6,1.6,0,0,1,1.6-1.6h34.949a1.6,1.6,0,0,1,1.6,1.6v6.569a1.6,1.6,0,0,1-1.6,1.6" transform="translate(-65.577 -188.561)" fill="#f0f0f0"/>
        <path id="Path_600" data-name="Path 600" d="M145.936,232.48H132.424a1.055,1.055,0,0,1,0-2.11h13.513a1.055,1.055,0,0,1,0,2.11" transform="translate(-90.664 -158.988)" fill="#fafafa"/>
        <path id="Path_601" data-name="Path 601" d="M131.568,201.847H96.619a1.6,1.6,0,0,1-1.6-1.6v-6.569a1.6,1.6,0,0,1,1.6-1.6h34.949a1.6,1.6,0,0,1,1.6,1.6v6.569a1.6,1.6,0,0,1-1.6,1.6" transform="translate(-65.577 -132.563)" fill="#f0f0f0"/>
        <path id="Path_602" data-name="Path 602" d="M145.936,191.917H132.424a1.054,1.054,0,0,1,0-2.107h13.513a1.054,1.054,0,0,1,0,2.107" transform="translate(-90.664 -130.996)" fill="#fafafa"/>
        <path id="Path_603" data-name="Path 603" d="M145.936,273.047H132.424a1.054,1.054,0,1,1,0-2.107h13.513a1.054,1.054,0,0,1,0,2.107" transform="translate(-90.664 -186.988)" fill="#fafafa"/>
        <rect id="Rectangle_107" data-name="Rectangle 107" width="47.603" height="2.203" transform="translate(25.194 54.507)" fill="#f0f0f0"/>
        <rect id="Rectangle_108" data-name="Rectangle 108" width="6.284" height="2.203" transform="translate(18.911 54.504)" fill="#e6e6e6"/>
        <rect id="Rectangle_109" data-name="Rectangle 109" width="108.663" height="36.501" transform="translate(21.244 5.113)" fill="#ebebeb"/>
        <rect id="Rectangle_110" data-name="Rectangle 110" width="109.478" height="36.501" transform="translate(21.956 5.113)" fill="#f5f5f5"/>
        <rect id="Rectangle_111" data-name="Rectangle 111" width="71.459" height="1.813" transform="translate(21.244 41.614)" fill="#ebebeb"/>
        <rect id="Rectangle_112" data-name="Rectangle 112" width="104.93" height="1.813" transform="translate(28.758 41.614)" fill="#f5f5f5"/>
        <rect id="Rectangle_113" data-name="Rectangle 113" width="105.19" height="32.017" transform="translate(24.104 7.356)" fill="#fafafa"/>
        <path id="Path_604" data-name="Path 604" d="M120.7,55.757,139,23.74h8.642l-18.3,32.017Z" transform="translate(-83.3 -16.384)" fill="#fff"/>
        <path id="Path_605" data-name="Path 605" d="M154.58,55.757l18.3-32.017h3.368l-18.3,32.017Z" transform="translate(-106.682 -16.384)" fill="#fff"/>
        <path id="Path_606" data-name="Path 606" d="M327.67,55.757l18.3-32.017h3.368l-18.3,32.017Z" transform="translate(-226.139 -16.384)" fill="#fff"/>
        <rect id="Rectangle_114" data-name="Rectangle 114" width="0.273" height="32.017" transform="translate(129.021 7.356)" fill="#ebebeb"/>
        <g id="Group_163" data-name="Group 163" transform="translate(23.084 8.227)" opacity="0.5" style="isolation: isolate">
          <g id="Group_162" data-name="Group 162">
            <g id="Group_161" data-name="Group 161" clip-path="url(#clip-path-3)">
              <path id="Path_607" data-name="Path 607" d="M183.359,28.276H74.7l-.2-1.726H183.16Z" transform="translate(-74.5 -26.55)" fill="#ebebeb"/>
            </g>
          </g>
        </g>
        <g id="Group_166" data-name="Group 166" transform="translate(23.084 10.377)" opacity="0.5" style="isolation: isolate">
          <g id="Group_165" data-name="Group 165">
            <g id="Group_164" data-name="Group 164" clip-path="url(#clip-path-3)">
              <path id="Path_608" data-name="Path 608" d="M183.359,35.216H74.7l-.2-1.726H183.16Z" transform="translate(-74.5 -33.49)" fill="#ebebeb"/>
            </g>
          </g>
        </g>
        <g id="Group_169" data-name="Group 169" transform="translate(23.084 12.531)" opacity="0.5" style="isolation: isolate">
          <g id="Group_168" data-name="Group 168">
            <g id="Group_167" data-name="Group 167" clip-path="url(#clip-path-3)">
              <path id="Path_609" data-name="Path 609" d="M183.359,42.166H74.7l-.2-1.726H183.16Z" transform="translate(-74.5 -40.44)" fill="#ebebeb"/>
            </g>
          </g>
        </g>
        <g id="Group_172" data-name="Group 172" transform="translate(23.084 14.681)" opacity="0.5" style="isolation: isolate">
          <g id="Group_171" data-name="Group 171">
            <g id="Group_170" data-name="Group 170" clip-path="url(#clip-path-3)">
              <path id="Path_610" data-name="Path 610" d="M183.359,49.106H74.7l-.2-1.726H183.16Z" transform="translate(-74.5 -47.38)" fill="#ebebeb"/>
            </g>
          </g>
        </g>
        <g id="Group_175" data-name="Group 175" transform="translate(23.084 16.834)" opacity="0.5" style="isolation: isolate">
          <g id="Group_174" data-name="Group 174">
            <g id="Group_173" data-name="Group 173" clip-path="url(#clip-path-3)">
              <path id="Path_611" data-name="Path 611" d="M183.359,56.056H74.7l-.2-1.726H183.16Z" transform="translate(-74.5 -54.33)" fill="#ebebeb"/>
            </g>
          </g>
        </g>
        <g id="Group_178" data-name="Group 178" transform="translate(23.084 18.988)" opacity="0.5" style="isolation: isolate">
          <g id="Group_177" data-name="Group 177">
            <g id="Group_176" data-name="Group 176" clip-path="url(#clip-path-3)">
              <path id="Path_612" data-name="Path 612" d="M183.359,63.006H74.7l-.2-1.726H183.16Z" transform="translate(-74.5 -61.28)" fill="#ebebeb"/>
            </g>
          </g>
        </g>
        <g id="Group_181" data-name="Group 181" transform="translate(23.084 21.138)" opacity="0.5" style="isolation: isolate">
          <g id="Group_180" data-name="Group 180">
            <g id="Group_179" data-name="Group 179" clip-path="url(#clip-path-3)">
              <path id="Path_613" data-name="Path 613" d="M183.359,69.946H74.7l-.2-1.726H183.16Z" transform="translate(-74.5 -68.22)" fill="#ebebeb"/>
            </g>
          </g>
        </g>
        <g id="Group_184" data-name="Group 184" transform="translate(23.084 23.292)" opacity="0.5" style="isolation: isolate">
          <g id="Group_183" data-name="Group 183">
            <g id="Group_182" data-name="Group 182" clip-path="url(#clip-path-3)">
              <path id="Path_614" data-name="Path 614" d="M183.359,76.9H74.7l-.2-1.726H183.16Z" transform="translate(-74.5 -75.17)" fill="#ebebeb"/>
            </g>
          </g>
        </g>
        <g id="Group_187" data-name="Group 187" transform="translate(23.084 25.442)" opacity="0.5" style="isolation: isolate">
          <g id="Group_186" data-name="Group 186">
            <g id="Group_185" data-name="Group 185" clip-path="url(#clip-path-3)">
              <path id="Path_615" data-name="Path 615" d="M183.359,83.836H74.7l-.2-1.726H183.16Z" transform="translate(-74.5 -82.11)" fill="#ebebeb"/>
            </g>
          </g>
        </g>
        <g id="Group_190" data-name="Group 190" transform="translate(23.084 27.596)" opacity="0.5" style="isolation: isolate">
          <g id="Group_189" data-name="Group 189">
            <g id="Group_188" data-name="Group 188" clip-path="url(#clip-path-3)">
              <path id="Path_616" data-name="Path 616" d="M183.359,90.786H74.7l-.2-1.726H183.16Z" transform="translate(-74.5 -89.06)" fill="#ebebeb"/>
            </g>
          </g>
        </g>
        <g id="Group_193" data-name="Group 193" transform="translate(23.084 29.746)" opacity="0.5" style="isolation: isolate">
          <g id="Group_192" data-name="Group 192">
            <g id="Group_191" data-name="Group 191" clip-path="url(#clip-path-3)">
              <path id="Path_617" data-name="Path 617" d="M183.359,97.726H74.7L74.5,96H183.16Z" transform="translate(-74.5 -96)" fill="#ebebeb"/>
            </g>
          </g>
        </g>
        <g id="Group_196" data-name="Group 196" transform="translate(23.084 31.9)" opacity="0.5" style="isolation: isolate">
          <g id="Group_195" data-name="Group 195">
            <g id="Group_194" data-name="Group 194" clip-path="url(#clip-path-3)">
              <path id="Path_618" data-name="Path 618" d="M183.359,104.676H74.7l-.2-1.726H183.16Z" transform="translate(-74.5 -102.95)" fill="#ebebeb"/>
            </g>
          </g>
        </g>
        <g id="Group_199" data-name="Group 199" transform="translate(23.084 34.05)" opacity="0.5" style="isolation: isolate">
          <g id="Group_198" data-name="Group 198">
            <g id="Group_197" data-name="Group 197" clip-path="url(#clip-path-15)">
              <path id="Path_619" data-name="Path 619" d="M183.359,111.619H74.7l-.2-1.729H183.16Z" transform="translate(-74.5 -109.89)" fill="#ebebeb"/>
            </g>
          </g>
        </g>
        <g id="Group_202" data-name="Group 202" transform="translate(23.084 36.204)" opacity="0.5" style="isolation: isolate">
          <g id="Group_201" data-name="Group 201">
            <g id="Group_200" data-name="Group 200" clip-path="url(#clip-path-3)">
              <path id="Path_620" data-name="Path 620" d="M183.359,118.566H74.7l-.2-1.726H183.16Z" transform="translate(-74.5 -116.84)" fill="#ebebeb"/>
            </g>
          </g>
        </g>
        <path id="Path_621" data-name="Path 621" d="M364.06,201.276H345.983l-1.723-29.935A1.239,1.239,0,0,1,345.393,170a1.224,1.224,0,0,1,.135,0h15.381a1.438,1.438,0,0,1,1.419,1.342Z" transform="translate(-237.586 -117.323)" fill="#e6e6e6"/>
        <path id="Path_622" data-name="Path 622" d="M369.947,201.276H351.873l-1.723-29.935A1.24,1.24,0,0,1,351.415,170h15.391a1.438,1.438,0,0,1,1.419,1.342Z" transform="translate(-241.651 -117.324)" fill="#f5f5f5"/>
        <path id="Path_623" data-name="Path 623" d="M353.895,258.89h12.583v3.718H352.55v-2.392a1.341,1.341,0,0,1,1.345-1.326" transform="translate(-243.31 -178.671)" fill="#e6e6e6"/>
        <path id="Path_624" data-name="Path 624" d="M385.555,258.89h16.02a1.342,1.342,0,0,1,1.342,1.342v2.392H384.21v-2.392a1.342,1.342,0,0,1,1.342-1.342Z" transform="translate(-265.16 -178.671)" fill="#f5f5f5"/>
        <rect id="Rectangle_129" data-name="Rectangle 129" width="1.239" height="17.494" transform="translate(108.397 83.952)" fill="#e6e6e6"/>
        <rect id="Rectangle_130" data-name="Rectangle 130" width="1.239" height="17.494" transform="translate(117.494 83.952)" fill="#e6e6e6"/>
        <rect id="Rectangle_131" data-name="Rectangle 131" width="1.239" height="17.494" transform="translate(127.137 83.952)" fill="#e6e6e6"/>
        <rect id="Rectangle_132" data-name="Rectangle 132" width="1.239" height="17.494" transform="translate(136.231 83.952)" fill="#e6e6e6"/>
        <path id="Path_625" data-name="Path 625" d="M289.394,201.277H271.32l-1.726-29.935A1.258,1.258,0,0,1,270.765,170q.048,0,.1,0h15.391a1.441,1.441,0,0,1,1.419,1.342Z" transform="translate(-186.056 -117.324)" fill="#e6e6e6"/>
        <path id="Path_626" data-name="Path 626" d="M295.283,201.277H277.206l-1.723-29.935A1.255,1.255,0,0,1,276.648,170q.051,0,.1,0h15.387a1.441,1.441,0,0,1,1.422,1.342Z" transform="translate(-190.121 -117.324)" fill="#f5f5f5"/>
        <path id="Path_627" data-name="Path 627" d="M279.232,258.89h12.583v3.718H277.89v-2.392a1.342,1.342,0,0,1,1.342-1.326" transform="translate(-191.784 -178.671)" fill="#e6e6e6"/>
        <path id="Path_628" data-name="Path 628" d="M310.892,258.89h16.02a1.342,1.342,0,0,1,1.342,1.342v2.392h-18.7v-2.392a1.342,1.342,0,0,1,1.342-1.342" transform="translate(-213.634 -178.671)" fill="#f5f5f5"/>
        <rect id="Rectangle_133" data-name="Rectangle 133" width="1.239" height="17.494" transform="translate(85.263 83.952)" fill="#e6e6e6"/>
        <rect id="Rectangle_134" data-name="Rectangle 134" width="1.239" height="17.494" transform="translate(94.357 83.952)" fill="#e6e6e6"/>
        <rect id="Rectangle_135" data-name="Rectangle 135" width="1.239" height="17.494" transform="translate(104 83.952)" fill="#e6e6e6"/>
        <rect id="Rectangle_136" data-name="Rectangle 136" width="1.239" height="17.494" transform="translate(113.094 83.952)" fill="#e6e6e6"/>
        <path id="Path_629" data-name="Path 629" d="M116.188,349.92c33.18,0,60.078,1.57,60.078,3.508s-26.9,3.508-60.078,3.508-60.078-1.57-60.078-3.508,26.9-3.508,60.078-3.508" transform="translate(-38.724 -241.495)" fill="#f5f5f5"/>
        <path id="Path_630" data-name="Path 630" d="M281.352,333.023,279,332.208l1.258-5.658,2.352.815Z" transform="translate(-192.55 -225.366)" fill="#b55b52"/>
        <path id="Path_631" data-name="Path 631" d="M342.69,340.21H340.2l-.641-5.76h2.488Z" transform="translate(-234.345 -230.819)" fill="#b55b52"/>
        <path id="Path_632" data-name="Path 632" d="M330.742,352.11h2.848a.217.217,0,0,1,.211.17l.493,2.212a.365.365,0,0,1-.366.44c-.976-.016-1.686-.074-2.916-.074-.756,0-2.851.081-3.895.081s-1.181-1.032-.753-1.128a9.8,9.8,0,0,0,3.972-1.549.619.619,0,0,1,.406-.152" transform="translate(-225.082 -243.007)" fill="#192c62"/>
        <path id="Path_633" data-name="Path 633" d="M266.429,343.868l2.566.889a.217.217,0,0,1,.146.229l-.26,2.25a.36.36,0,0,1-.48.31c-.93-.338-2.24-.855-3.408-1.258-1.36-.471-2.008-.573-3.6-1.125-.964-.335-.691-1.376-.254-1.354,1.989.108,2.736.483,4.663.053a1.171,1.171,0,0,1,.632.006" transform="translate(-179.945 -237.278)" fill="#192c62"/>
        <path id="Path_634" data-name="Path 634" d="M279.106,106.1c-.706.756-1.394,1.444-2.119,2.135s-1.456,1.354-2.215,2.011a37.4,37.4,0,0,1-4.924,3.647,16.2,16.2,0,0,1-1.438.775c-.251.124-.521.239-.79.35l-.424.155c-.149.05-.31.1-.471.139a6.816,6.816,0,0,1-3.861-.127,8.575,8.575,0,0,1-3.018-1.775,10.714,10.714,0,0,1-1.137-1.181c-.174-.208-.338-.424-.493-.645s-.291-.434-.456-.706l1.71-1.3.49.39c.174.136.35.263.527.39a11.664,11.664,0,0,0,1.084.682,6.61,6.61,0,0,0,2.169.772,3.567,3.567,0,0,0,1.859-.214l.22-.093.248-.115c.17-.087.341-.17.521-.276.353-.2.71-.434,1.072-.675.722-.49,1.441-1.044,2.147-1.63s1.407-1.193,2.1-1.822,1.376-1.27,2.054-1.918,1.363-1.32,2-1.958Z" transform="translate(-177.891 -71.161)" fill="#192c62"/>
        <path id="Path_635" data-name="Path 635" d="M256.429,119.248l-1.549-2.408-1.549,3.006s1.8,1.893,2.686,1.029Z" transform="translate(-174.834 -80.636)" fill="#b55b52"/>
        <path id="Path_636" data-name="Path 636" d="M250.424,115.51l-.834,2.116,1.134,1.3,1.562-3.006Z" transform="translate(-172.253 -79.719)" fill="#b55b52"/>
        <g id="Group_205" data-name="Group 205" transform="translate(87.06 101.187)" opacity="0.2" style="isolation: isolate">
          <g id="Group_204" data-name="Group 204">
            <g id="Group_203" data-name="Group 203" clip-path="url(#clip-path-17)">
              <path id="Path_637" data-name="Path 637" d="M281.618,326.56l-.648,2.916,2.352.815.648-2.919Z" transform="translate(-280.97 -326.56)"/>
            </g>
          </g>
        </g>
        <g id="Group_208" data-name="Group 208" transform="translate(105.215 103.634)" opacity="0.2" style="isolation: isolate">
          <g id="Group_207" data-name="Group 207">
            <g id="Group_206" data-name="Group 206" clip-path="url(#clip-path-18)">
              <path id="Path_638" data-name="Path 638" d="M342.048,334.46H339.56l.332,2.968h2.488Z" transform="translate(-339.56 -334.46)"/>
            </g>
          </g>
        </g>
        <path id="Path_639" data-name="Path 639" d="M322.192,103.287c-2.544,8.608-2.274,17.745-2.609,19.6-1.934-.257-10.225-1.472-14.207-2.008a45.864,45.864,0,0,1,2.875-19.617,3.151,3.151,0,0,1,2.81-2.064h.034c.366-.015.759-.025,1.168-.022h.688a49.251,49.251,0,0,1,5.605.756c.35.065.706.139,1.05.217s.62.152.93.229h.04a2.3,2.3,0,0,1,1.643,2.806c-.009.034-.019.067-.029.1" transform="translate(-210.684 -68.447)" fill="#192c62"/>
        <path id="Path_640" data-name="Path 640" d="M338.031,121.57l-.031.446,2.919.483.093-.366Z" transform="translate(-233.269 -83.901)" fill="#fff"/>
        <g id="Group_211" data-name="Group 211" transform="translate(101.33 30.747)" opacity="0.3" style="isolation: isolate">
          <g id="Group_210" data-name="Group 210">
            <g id="Group_209" data-name="Group 209" clip-path="url(#clip-path-19)">
              <path id="Path_641" data-name="Path 641" d="M327.96,99.23c-.669.7-1.456,6.538-.48,9.249,1.648-2.736,4.958-7.65,6.082-8.493a49.207,49.207,0,0,0-5.6-.756" transform="translate(-327.022 -99.23)" fill="#fff"/>
            </g>
          </g>
        </g>
        <path id="Path_642" data-name="Path 642" d="M335.954,81.06c-.595,1.754-1.394,5.01-.294,6.383a5.745,5.745,0,0,1-3.718.511c-1.3-.2-1.918-.762-1.884-1.264,2.076-.211,2.225-1.71,2.064-3.157Z" transform="translate(-227.786 -55.943)" fill="#b55b52"/>
        <g id="Group_214" data-name="Group 214" transform="translate(104.335 26.124)" opacity="0.2" style="isolation: isolate">
          <g id="Group_213" data-name="Group 213">
            <g id="Group_212" data-name="Group 212" clip-path="url(#clip-path-20)">
              <path id="Path_643" data-name="Path 643" d="M338.976,84.31l-2.256,1.453a5.958,5.958,0,0,1,.037,1.019,2.5,2.5,0,0,0,2.144-1.5,2.751,2.751,0,0,0,.074-.97" transform="translate(-336.72 -84.31)"/>
            </g>
          </g>
        </g>
        <path id="Path_644" data-name="Path 644" d="M331.04,65.006a6.381,6.381,0,0,1,.177-4.3c.533-1.611,2.222-1.091,3.39-.809s.737,1.859-.112,3.009c-.911,1.224-3.455,2.1-3.455,2.1" transform="translate(-228.267 -41.126)" fill="#192c62"/>
        <path id="Path_645" data-name="Path 645" d="M336.888,63.3c-.713,2.364-1.007,3.783-2.51,4.728a3.27,3.27,0,0,1-4.958-2.9c0-2.277,1.156-5.76,3.718-6.16a3.365,3.365,0,0,1,3.749,4.332" transform="translate(-227.347 -40.669)" fill="#b55b52"/>
        <path id="Path_646" data-name="Path 646" d="M347.434,68.813a7.312,7.312,0,0,1-.186-4.295c.31-1.184,2.237-1.453,3.306-.9,1.273.654,1.035,1.937.077,2.984a13.567,13.567,0,0,1-3.2,2.215" transform="translate(-239.495 -43.715)" fill="#192c62"/>
        <path id="Path_647" data-name="Path 647" d="M336.488,55.912c.954-.056,1.586-1.323.812-1.93-.911-.713-2.169,0-3.315-1.577-1.075-1.481-3.743-1.738-4.747-.409-.576.765-.062,1.072-1.608,2a1.357,1.357,0,0,0-.387,1.915,1.333,1.333,0,0,1,.957-1.407c.7-.158,1.119.449,1.6-.1a8.283,8.283,0,0,0,4.735,1.741c1.726.133,1.952-.239,1.952-.239" transform="translate(-225.684 -35.288)" fill="#192c62"/>
        <path id="Path_648" data-name="Path 648" d="M349.521,78.315a2.359,2.359,0,0,1-1.661.675c-.821,0-1-.806-.579-1.459.381-.589,1.267-1.3,2-.967a1.048,1.048,0,0,1,.239,1.751" transform="translate(-239.522 -52.782)" fill="#b55b52"/>
        <path id="Path_649" data-name="Path 649" d="M278.73,219.543l3.982,1.376s3.9-15.363,5.119-23.016a80.6,80.6,0,0,1,2.206-8.986c1.267-4.338,2.789-9.011,4.056-12.67,1.317-3.855,2.305-6.578,2.305-6.578l-8.676-1.168s-5.791,19.7-6.817,27.227c-1.038,7.815-2.175,23.816-2.175,23.816" transform="translate(-192.364 -116.289)" fill="#192c62"/>
        <g id="Group_217" data-name="Group 217" transform="translate(97.661 57.943)" opacity="0.2" style="isolation: isolate">
          <g id="Group_216" data-name="Group 216">
            <g id="Group_215" data-name="Group 215" clip-path="url(#clip-path-21)">
              <path id="Path_650" data-name="Path 650" d="M315.194,201.678c1.267-4.338,2.789-9.011,4.056-12.67L318.472,187c-2.327,2.429-3.418,10.337-3.278,14.678" transform="translate(-315.182 -187)"/>
            </g>
          </g>
        </g>
        <path id="Path_651" data-name="Path 651" d="M322.534,170.51s-.428,21.312.158,28.575c.638,7.954,4.2,24.621,4.2,24.621h4.558s-.635-15.288-1.568-23.013c-1.063-8.8,1.165-29.037,1.165-29.037Z" transform="translate(-222.491 -117.676)" fill="#192c62"/>
        <path id="Path_652" data-name="Path 652" d="M334.353,338.7h5.367v-1.6l-5.729-.1Z" transform="translate(-230.501 -232.578)" fill="#192c62"/>
        <path id="Path_653" data-name="Path 653" d="M277.01,328.546l4.744,1.642.53-1.531-5.057-2.1Z" transform="translate(-191.177 -225.373)" fill="#192c62"/>
        <path id="Path_654" data-name="Path 654" d="M340.217,71.542c-.046.2-.186.328-.31.31s-.2-.211-.149-.406.186-.328.31-.31.2.211.149.406" transform="translate(-234.472 -49.093)" fill="#192c62"/>
        <path id="Path_655" data-name="Path 655" d="M333.1,69.855c-.046.2-.186.332-.31.31s-.192-.214-.146-.409.186-.328.31-.31.192.214.146.409" transform="translate(-229.564 -47.927)" fill="#192c62"/>
        <path id="Path_656" data-name="Path 656" d="M333.386,71.62a7.165,7.165,0,0,1-1.326,1.45,1.159,1.159,0,0,0,.892.394Z" transform="translate(-229.169 -49.428)" fill="#a02724"/>
        <path id="Path_657" data-name="Path 657" d="M336.493,78.813a1.658,1.658,0,0,0,1.239-.381.059.059,0,0,0-.081-.087,1.586,1.586,0,0,1-1.4.31.059.059,0,0,0-.071.043h0a.062.062,0,0,0,.043.071c.1.019.189.034.273.043" transform="translate(-232.01 -54.058)" fill="#192c62"/>
        <path id="Path_658" data-name="Path 658" d="M342.127,68.772a.1.1,0,0,0,.059,0,.115.115,0,0,0,.061-.15l0,0a1.165,1.165,0,0,0-.821-.691.118.118,0,0,0-.136.1h0a.121.121,0,0,0,.1.136.93.93,0,0,1,.645.555.115.115,0,0,0,.1.059" transform="translate(-235.536 -46.878)" fill="#192c62"/>
        <path id="Path_659" data-name="Path 659" d="M331.415,66.163a.118.118,0,0,0,.105-.043.93.93,0,0,1,.768-.366.115.115,0,0,0,.127-.1v0a.121.121,0,0,0-.1-.13,1.178,1.178,0,0,0-.976.459.118.118,0,0,0,.014.166h0a.119.119,0,0,0,.062.019" transform="translate(-228.651 -45.216)" fill="#192c62"/>
        <path id="Path_660" data-name="Path 660" d="M336.987,352.112a3.016,3.016,0,0,0,.651-.09.063.063,0,0,0,.046-.05.065.065,0,0,0-.028-.059c-.09-.056-.892-.548-1.168-.409a.192.192,0,0,0-.1.167.363.363,0,0,0,.124.31.755.755,0,0,0,.477.13m.48-.174a1.2,1.2,0,0,1-.883-.046.235.235,0,0,1-.081-.211.077.077,0,0,1,.037-.071c.143-.074.6.139.926.341Z" transform="translate(-232.154 -242.572)" fill="#e11941"/>
        <path id="Path_661" data-name="Path 661" d="M338.753,350.745a.059.059,0,0,0,.031,0,.062.062,0,0,0,.028-.053c0-.031-.062-.75-.353-.985a.309.309,0,0,0-.251-.074.189.189,0,0,0-.186.152c-.053.279.446.824.7.964Zm-.5-1a.192.192,0,0,1,.133.053,1.39,1.39,0,0,1,.294.778c-.254-.2-.573-.62-.542-.768,0-.016,0-.053.087-.062Z" transform="translate(-233.281 -241.294)" fill="#e11941"/>
        <path id="Path_662" data-name="Path 662" d="M275.023,342.648a.059.059,0,0,0,.053-.031.062.062,0,0,0,0-.068c-.087-.09-.868-.9-1.208-.837a.192.192,0,0,0-.143.115.334.334,0,0,0,0,.31c.18.31.886.459,1.289.514Zm-1.122-.821c.2,0,.645.372.954.679-.548-.093-.93-.251-1.026-.428a.211.211,0,0,1,0-.2.069.069,0,0,1,.056-.05Z" transform="translate(-188.883 -235.828)" fill="#e11941"/>
        <path id="Path_663" data-name="Path 663" d="M276.757,341.872h.015a.069.069,0,0,0,.043-.043,1.742,1.742,0,0,0-.053-1.032.434.434,0,0,0-.276-.2c-.158-.037-.229.025-.26.084-.136.251.251.951.49,1.177a.053.053,0,0,0,.04.016m-.356-1.159h.059a.309.309,0,0,1,.2.149,1.361,1.361,0,0,1,.062.83c-.229-.273-.474-.806-.394-.954a.072.072,0,0,1,.071-.025" transform="translate(-190.617 -235.052)" fill="#e11941"/>
        <path id="Path_664" data-name="Path 664" d="M349.736,104.65c.332.446.62.843.9,1.274s.558.849.83,1.28q.809,1.292,1.521,2.662a29.689,29.689,0,0,1,1.3,2.841,17.425,17.425,0,0,1,.948,3.154c.056.285.1.579.133.877a.682.682,0,0,0,.019.174.686.686,0,0,1,0,.2v.359a4.918,4.918,0,0,1-.087.62,7.222,7.222,0,0,1-.685,1.81,17.506,17.506,0,0,1-1.775,2.69c-.641.812-1.308,1.574-2,2.3s-1.407,1.422-2.184,2.095l-1.6-1.435c1.044-1.593,2.123-3.21,3.034-4.821a18.088,18.088,0,0,0,1.165-2.367,3.976,3.976,0,0,0,.254-.954.353.353,0,0,0,0-.108h0c-.04-.183-.081-.369-.136-.561a16.745,16.745,0,0,0-.908-2.392c-.381-.806-.8-1.621-1.258-2.423s-.93-1.6-1.435-2.392q-.372-.589-.759-1.177l-.765-1.137Z" transform="translate(-238.962 -72.224)" fill="#192c62"/>
        <path id="Path_665" data-name="Path 665" d="M345.479,171.21l-2.479.756,2.225,2.361s1.893-1.128,1.407-2.2Z" transform="translate(-236.719 -118.16)" fill="#b55b52"/>
        <path id="Path_666" data-name="Path 666" d="M339.75,175.451l1.8,1.8,1.447-1.236-2.225-2.358Z" transform="translate(-234.476 -119.85)" fill="#b55b52"/>
        <g id="Group_220" data-name="Group 220" transform="translate(99.693 48.465)" opacity="0.3" style="isolation: isolate">
          <g id="Group_219" data-name="Group 219">
            <g id="Group_218" data-name="Group 218" clip-path="url(#clip-path-22)">
              <path id="Path_667" data-name="Path 667" d="M321.74,161.21a20.1,20.1,0,0,1,1.3-4.8c.17,1.376.747,4.992.747,4.992Z" transform="translate(-321.74 -156.41)" fill="#fff"/>
            </g>
          </g>
        </g>
        <rect id="Rectangle_143" data-name="Rectangle 143" width="0.31" height="7.437" transform="translate(27.217 21.173) rotate(-1.087)" fill="#e11941"/>
        <rect id="Rectangle_144" data-name="Rectangle 144" width="0.31" height="3.198" transform="translate(27.406 30.991) rotate(-1.087)" fill="#e11941"/>
        <path id="Path_668" data-name="Path 668" d="M151.356,43.89H90.85l1.593,82.663h60.506Z" transform="translate(-62.7 -30.29)" fill="#e11941"/>
        <g id="Group_223" data-name="Group 223" transform="translate(31.869 16.32)" opacity="0.8" style="isolation: isolate">
          <g id="Group_222" data-name="Group 222">
            <g id="Group_221" data-name="Group 221" clip-path="url(#clip-path-23)">
              <path id="Path_669" data-name="Path 669" d="M156.309,52.67H102.85l1.487,77.021h53.456Z" transform="translate(-102.85 -52.67)" fill="#fff"/>
            </g>
          </g>
        </g>
        <path id="Path_670" data-name="Path 670" d="M156.286,51.42H102.83L105,128.438h53.459Z" transform="translate(-70.967 -35.487)" fill="#fff"/>
        <g id="Group_226" data-name="Group 226" transform="translate(47.371 23.162)" opacity="0.2" style="isolation: isolate">
          <g id="Group_225" data-name="Group 225">
            <g id="Group_224" data-name="Group 224" clip-path="url(#clip-path-24)">
              <path id="Path_671" data-name="Path 671" d="M152.88,83.29l2.866-8.54a9.429,9.429,0,0,1,6.219,8.54,8.8,8.8,0,0,1-7.254,8.949Z" transform="translate(-152.88 -74.75)" fill="#e11941"/>
            </g>
          </g>
        </g>
        <path id="Path_672" data-name="Path 672" d="M132.636,82.082l1.831,8.949a9.275,9.275,0,0,1-1.574.136,9.444,9.444,0,0,1-9.342-9.085A8.825,8.825,0,0,1,132.115,73q.132,0,.264,0a9.215,9.215,0,0,1,3.123.548Z" transform="translate(-85.266 -50.381)" fill="#e11941"/>
        <g id="Group_229" data-name="Group 229" transform="translate(61.128 22.619)" opacity="0.2" style="isolation: isolate">
          <g id="Group_228" data-name="Group 228">
            <g id="Group_227" data-name="Group 227" clip-path="url(#clip-path-25)">
              <path id="Path_673" data-name="Path 673" d="M206.179,82.082,205.953,73a9.371,9.371,0,0,1,6.473,2.662,8.962,8.962,0,1,1-12.487,12.85,9.392,9.392,0,0,1-2.659-4.846Z" transform="translate(-197.28 -73)" fill="#e11941"/>
            </g>
          </g>
        </g>
        <path id="Path_674" data-name="Path 674" d="M205.724,82.065l-8.9,1.577A8.8,8.8,0,0,1,206.145,73Z" transform="translate(-135.696 -50.363)" fill="#e11941"/>
        <path id="Path_675" data-name="Path 675" d="M167.759,233.961h-41.79l-.548-19.347.332,0,.536,19.019h41.462Z" transform="translate(-86.558 -148.112)" fill="#e11941"/>
        <path id="Path_676" data-name="Path 676" d="M261.186,275.32a.381.381,0,0,1,.378.372.359.359,0,0,1-.347.372H261.2a.381.381,0,0,1-.381-.372.366.366,0,0,1,.359-.372h.006" transform="translate(-180.003 -190.01)" fill="#e11941"/>
        <path id="Path_677" data-name="Path 677" d="M125.5,213.839a.384.384,0,0,0-.384-.369.363.363,0,0,0-.36.365v.01a.378.378,0,0,0,.381.369.363.363,0,0,0,.363-.362v-.013" transform="translate(-86.102 -147.325)" fill="#e11941"/>
        <path id="Path_678" data-name="Path 678" d="M131.4,231.531l-.239-.232,4.936-5.079h2.95l1.351-1.388h4.248l8.877-9.135h2.095l3.04,2.956h1.89l5.553-5.714h5.06l.006.328h-4.921l-5.553,5.714h-2.166l-3.04-2.956h-1.822l-8.877,9.135h-4.248l-1.348,1.391h-2.953Z" transform="translate(-90.519 -146.959)" fill="#e11941"/>
        <path id="Path_679" data-name="Path 679" d="M131.031,271.948a.375.375,0,1,1,0-.53l0,0a.375.375,0,0,1,0,.527" transform="translate(-89.987 -187.243)" fill="#e11941"/>
        <path id="Path_680" data-name="Path 680" d="M259.381,213.014a.362.362,0,0,0,.363-.363v-.009a.381.381,0,0,0-.378-.372.366.366,0,0,0-.366.366v.006a.384.384,0,0,0,.381.372" transform="translate(-178.747 -146.497)" fill="#e11941"/>
        <g id="Group_232" data-name="Group 232" transform="translate(40.348 72.15)" opacity="0.2">
          <g id="Group_231" data-name="Group 231">
            <g id="Group_230" data-name="Group 230" clip-path="url(#clip-path-26)">
              <path id="Path_681" data-name="Path 681" d="M131.229,243.441l-.239-.232,5.89-6.064h4.837L145,240.336h3.666l3.2-3.3h4.115l1.342-1.379h3.969l2.73-2.81h1.339l6.231,6.064-.226.232-6.135-5.965H164.16l-2.73,2.81h-3.966l-1.342,1.379H152l-3.2,3.294h-3.935l-3.281-3.188h-4.561Z" transform="translate(-130.75 -232.85)" fill="#e11941"/>
              <path id="Path_682" data-name="Path 682" d="M130.857,266.032a.375.375,0,1,1-.007-.53l.007.007a.369.369,0,0,1,0,.521l0,0" transform="translate(-130.214 -255.311)" fill="#e11941"/>
              <path id="Path_683" data-name="Path 683" d="M260.529,252.2a.369.369,0,1,0,0-.527.375.375,0,0,0,0,.527" transform="translate(-220.076 -245.77)" fill="#e11941"/>
            </g>
          </g>
        </g>
        <path id="Path_684" data-name="Path 684" d="M128.678,154.1h-4.431l-.127-4.431h4.431Z" transform="translate(-85.661 -103.294)" fill="#e11941"/>
        <path id="Path_685" data-name="Path 685" d="M167.352,155.835H147.146l-.046-1.605h20.206Z" transform="translate(-101.52 -106.441)" fill="#e0e0e0"/>
        <path id="Path_686" data-name="Path 686" d="M231.748,155.835H220.507l-.046-1.605H231.7Z" transform="translate(-152.149 -106.441)" fill="#e0e0e0"/>
        <path id="Path_687" data-name="Path 687" d="M159.409,178.4H147.783l-.043-1.605h11.623Z" transform="translate(-101.962 -122.011)" fill="#e0e0e0"/>
        <path id="Path_688" data-name="Path 688" d="M208.084,178.4H193.446l-.046-1.605h14.641Z" transform="translate(-133.474 -122.011)" fill="#e0e0e0"/>
        <g id="Group_235" data-name="Group 235" transform="translate(38.658 53.367)" opacity="0.2" style="isolation: isolate">
          <g id="Group_234" data-name="Group 234">
            <g id="Group_233" data-name="Group 233" clip-path="url(#clip-path-27)">
              <path id="Path_689" data-name="Path 689" d="M129.315,176.661h-4.431l-.124-4.431h4.431Z" transform="translate(-124.76 -172.23)" fill="#e11941"/>
            </g>
          </g>
        </g>
        <path id="Path_690" data-name="Path 690" d="M258.912,128.65l25.668,14.464-.322.567-25.5-14.762Z" transform="translate(-178.582 -88.787)" fill="#e0e0e0"/>
      </g>
    </g>
  </g>
</svg>
