<svg xmlns="http://www.w3.org/2000/svg" xmlns:xlink="http://www.w3.org/1999/xlink" width="148.808" height="110.88" viewBox="0 0 148.808 110.88">
  <defs>
    <clipPath id="clip-path">
      <rect id="Rectangle_293" data-name="Rectangle 293" width="148.808" height="110.88" fill="none"/>
    </clipPath>
    <clipPath id="clip-path-3">
      <rect id="Rectangle_271" data-name="Rectangle 271" width="0.315" height="18.866" fill="none"/>
    </clipPath>
    <clipPath id="clip-path-4">
      <rect id="Rectangle_273" data-name="Rectangle 273" width="0.315" height="6.211" fill="none"/>
    </clipPath>
    <clipPath id="clip-path-5">
      <rect id="Rectangle_275" data-name="Rectangle 275" width="44.8" height="0.798" fill="none"/>
    </clipPath>
    <clipPath id="clip-path-6">
      <rect id="Rectangle_283" data-name="Rectangle 283" width="44.983" height="81.404" fill="none"/>
    </clipPath>
    <clipPath id="clip-path-7">
      <rect id="Rectangle_284" data-name="Rectangle 284" width="6.206" height="6.197" fill="none"/>
    </clipPath>
    <clipPath id="clip-path-9">
      <rect id="Rectangle_286" data-name="Rectangle 286" width="6.216" height="6.197" fill="none"/>
    </clipPath>
    <clipPath id="clip-path-10">
      <rect id="Rectangle_287" data-name="Rectangle 287" width="2.943" height="3.446" fill="none"/>
    </clipPath>
    <clipPath id="clip-path-11">
      <rect id="Rectangle_288" data-name="Rectangle 288" width="3.795" height="3.304" fill="none"/>
    </clipPath>
    <clipPath id="clip-path-12">
      <rect id="Rectangle_289" data-name="Rectangle 289" width="2.512" height="2.41" fill="none"/>
    </clipPath>
    <clipPath id="clip-path-13">
      <rect id="Rectangle_290" data-name="Rectangle 290" width="4.007" height="17.115" fill="none"/>
    </clipPath>
    <clipPath id="clip-path-14">
      <rect id="Rectangle_291" data-name="Rectangle 291" width="11.373" height="2.527" fill="none"/>
    </clipPath>
  </defs>
  <g id="Group_413" data-name="Group 413" clip-path="url(#clip-path)">
    <rect id="Rectangle_258" data-name="Rectangle 258" width="148.808" height="0.074" transform="translate(0 97.44)" fill="#ebebeb"/>
    <rect id="Rectangle_259" data-name="Rectangle 259" width="6.312" height="0.074" transform="translate(15.613 100.273)" fill="#ebebeb"/>
    <rect id="Rectangle_260" data-name="Rectangle 260" width="25.288" height="0.074" transform="translate(50.934 99.466)" fill="#ebebeb"/>
    <rect id="Rectangle_261" data-name="Rectangle 261" width="11.342" height="0.074" transform="translate(20.14 103.038)" fill="#ebebeb"/>
    <rect id="Rectangle_262" data-name="Rectangle 262" width="12.854" height="0.074" transform="translate(121.044 102.538)" fill="#ebebeb"/>
    <rect id="Rectangle_263" data-name="Rectangle 263" width="3.562" height="0.074" transform="translate(116.508 102.538)" fill="#ebebeb"/>
    <rect id="Rectangle_264" data-name="Rectangle 264" width="6.845" height="0.074" transform="translate(103.538 101.282)" fill="#ebebeb"/>
    <rect id="Rectangle_265" data-name="Rectangle 265" width="14.417" height="0.074" transform="translate(85.681 101.282)" fill="#ebebeb"/>
    <g id="Group_412" data-name="Group 412">
      <g id="Group_411" data-name="Group 411" clip-path="url(#clip-path)">
        <path id="Path_821" data-name="Path 821" d="M97.373,84.166H39.906a1.7,1.7,0,0,1-1.7-1.7V1.685A1.7,1.7,0,0,1,39.906,0H97.373a1.7,1.7,0,0,1,1.7,1.7V82.467a1.7,1.7,0,0,1-1.7,1.7M39.906.06a1.625,1.625,0,0,0-1.622,1.625V82.467a1.625,1.625,0,0,0,1.622,1.625H97.373A1.628,1.628,0,0,0,99,82.467V1.685A1.628,1.628,0,0,0,97.373.06Z" transform="translate(-26.838)" fill="#ebebeb"/>
        <path id="Path_822" data-name="Path 822" d="M313.669,84.166H256.2a1.7,1.7,0,0,1-1.7-1.7V1.685A1.7,1.7,0,0,1,256.2,0h57.47a1.7,1.7,0,0,1,1.693,1.685V82.467a1.7,1.7,0,0,1-1.693,1.7M256.2.06a1.628,1.628,0,0,0-1.625,1.625V82.467a1.628,1.628,0,0,0,1.625,1.625h57.47a1.628,1.628,0,0,0,1.625-1.625V1.685A1.628,1.628,0,0,0,313.669.06Z" transform="translate(-178.757)" fill="#ebebeb"/>
        <rect id="Rectangle_266" data-name="Rectangle 266" width="4.583" height="35.274" transform="translate(22.33 62.166)" fill="#f0f0f0"/>
        <rect id="Rectangle_267" data-name="Rectangle 267" width="40.116" height="35.274" transform="translate(26.913 62.166)" fill="#f5f5f5"/>
        <rect id="Rectangle_268" data-name="Rectangle 268" width="35.22" height="18.866" transform="translate(32.172 75.479)" fill="#fafafa"/>
        <rect id="Rectangle_269" data-name="Rectangle 269" width="35.22" height="6.211" transform="translate(32.172 67.264)" fill="#fafafa"/>
        <g id="Group_377" data-name="Group 377" transform="translate(31.857 75.479)" opacity="0.7" style="isolation: isolate">
          <g id="Group_376" data-name="Group 376">
            <g id="Group_375" data-name="Group 375" clip-path="url(#clip-path-3)">
              <rect id="Rectangle_270" data-name="Rectangle 270" width="0.315" height="18.866" fill="#e6e6e6"/>
            </g>
          </g>
        </g>
        <g id="Group_380" data-name="Group 380" transform="translate(31.857 67.264)" opacity="0.7" style="isolation: isolate">
          <g id="Group_379" data-name="Group 379">
            <g id="Group_378" data-name="Group 378" clip-path="url(#clip-path-4)">
              <rect id="Rectangle_272" data-name="Rectangle 272" width="0.315" height="6.211" fill="#e6e6e6"/>
            </g>
          </g>
        </g>
        <g id="Group_383" data-name="Group 383" transform="translate(22.327 63.654)" opacity="0.7" style="isolation: isolate">
          <g id="Group_382" data-name="Group 382">
            <g id="Group_381" data-name="Group 381" clip-path="url(#clip-path-5)">
              <rect id="Rectangle_274" data-name="Rectangle 274" width="44.8" height="0.798" transform="translate(0)" fill="#e6e6e6"/>
            </g>
          </g>
        </g>
        <rect id="Rectangle_276" data-name="Rectangle 276" width="5.119" height="2.307" transform="translate(21.794 61.684)" fill="#f0f0f0"/>
        <rect id="Rectangle_277" data-name="Rectangle 277" width="40.651" height="2.307" transform="translate(26.913 61.684)" fill="#f5f5f5"/>
        <path id="Path_823" data-name="Path 823" d="M129.8,165.845a2.4,2.4,0,0,1-.432-1.238,3.907,3.907,0,0,1,.116-1.339,6.247,6.247,0,0,1,1.22-2.354,11.3,11.3,0,0,1,.893-.955c.167-.14.327-.283.5-.42a5.951,5.951,0,0,1,.512-.393,12.5,12.5,0,0,1,1.089-.676c.387-.19.768-.378,1.173-.53-.3.333-.6.625-.893.92s-.58.6-.878.893-.56.6-.845.893c-.14.146-.265.3-.4.455a5.083,5.083,0,0,0-.387.455,9,9,0,0,0-1.259,1.982,5.053,5.053,0,0,0-.366,1.086,3.339,3.339,0,0,0-.045,1.22" transform="translate(-90.854 -110.934)" fill="#e6e6e6"/>
        <path id="Path_824" data-name="Path 824" d="M96.137,165.139a3.278,3.278,0,0,0,.193-1.1,3.766,3.766,0,0,0-.039-.521,3.7,3.7,0,0,0-.14-.488,4.6,4.6,0,0,0-1.19-1.655c-.125-.125-.274-.232-.408-.351a3.7,3.7,0,0,0-.426-.342c-.3-.208-.58-.455-.893-.649-.155-.1-.3-.208-.467-.318s-.3-.223-.476-.321a11.579,11.579,0,0,1-.961-.679,10.99,10.99,0,0,1,1.164.238,3.8,3.8,0,0,1,.565.179c.185.071.369.143.554.22l.277.116c.089.042.176.1.265.143.176.1.348.2.524.3a3.993,3.993,0,0,1,.5.351c.158.131.324.247.473.393a4.01,4.01,0,0,1,1.262,2.19,1.5,1.5,0,0,1,.033.324v.327a2.761,2.761,0,0,1-.131.628,2.246,2.246,0,0,1-.679,1.021" transform="translate(-64.149 -111.475)" fill="#e6e6e6"/>
        <path id="Path_825" data-name="Path 825" d="M99.412,161.156a6.865,6.865,0,0,0,.057-2.4,6.415,6.415,0,0,0-.753-2.14l-.3-.491c-.11-.158-.235-.3-.345-.464l-.173-.238-.2-.217c-.131-.146-.262-.3-.39-.449-.28-.283-.574-.56-.86-.857s-.616-.548-.911-.863a12.093,12.093,0,0,1,1.19.464,11.613,11.613,0,0,1,1.1.676c.167.137.336.277.5.42l.247.214.22.247c.143.167.3.333.426.509l.357.565a5.059,5.059,0,0,1,.667,2.58,4.027,4.027,0,0,1-.83,2.44" transform="translate(-67.106 -107.493)" fill="#e6e6e6"/>
        <path id="Path_826" data-name="Path 826" d="M122.771,156.413A11.71,11.71,0,0,1,121.283,154a15.9,15.9,0,0,1-.979-2.679,13.15,13.15,0,0,1-.411-2.833,8.029,8.029,0,0,1,.432-2.827c.083.952.188,1.854.342,2.75s.372,1.786.6,2.679.485,1.759.744,2.643.521,1.762.765,2.682" transform="translate(-84.209 -102.309)" fill="#e6e6e6"/>
        <path id="Path_827" data-name="Path 827" d="M117.771,156.383a13.62,13.62,0,0,1-1.884-2.253,18.214,18.214,0,0,1-1.449-2.559,15.271,15.271,0,0,1-.973-2.792,9.032,9.032,0,0,1-.214-2.949c.3.943.6,1.836.958,2.72s.738,1.741,1.128,2.607.81,1.72,1.223,2.586.827,1.732,1.211,2.64" transform="translate(-79.518 -102.429)" fill="#e6e6e6"/>
        <path id="Path_828" data-name="Path 828" d="M116.635,163.186a13.507,13.507,0,0,1-2.342-1.786,18.494,18.494,0,0,1-1.982-2.17,15.468,15.468,0,0,1-1.574-2.5,9.134,9.134,0,0,1-.866-2.827c.5.851,1,1.652,1.542,2.435s1.107,1.536,1.682,2.292,1.19,1.488,1.768,2.247,1.2,1.515,1.774,2.312" transform="translate(-77.171 -108.097)" fill="#e6e6e6"/>
        <path id="Path_829" data-name="Path 829" d="M111.891,160.659a10.319,10.319,0,0,1-2.25-1.524,13.856,13.856,0,0,1-1.863-1.985,11.938,11.938,0,0,1-1.4-2.351,7.911,7.911,0,0,1-.667-2.649c.455.795.872,1.554,1.354,2.28s.973,1.432,1.488,2.119,1.071,1.369,1.631,2.045,1.143,1.354,1.708,2.065" transform="translate(-74.249 -106.868)" fill="#e6e6e6"/>
        <path id="Path_830" data-name="Path 830" d="M128.387,165.078a2.976,2.976,0,0,1-1.226-2.045,4.291,4.291,0,0,1,.387-2.429l.125-.28.152-.262.318-.515q.184-.238.375-.464a4.666,4.666,0,0,1,.4-.44,9.834,9.834,0,0,1,.893-.765,10.036,10.036,0,0,1,.994-.619,11.479,11.479,0,0,1-.646.958c-.22.3-.417.625-.637.92s-.384.622-.6.923l-.247.47-.131.232-.1.241a5.2,5.2,0,0,0-.521,1.982,4.3,4.3,0,0,0,.461,2.092" transform="translate(-89.289 -110.457)" fill="#e6e6e6"/>
        <path id="Path_831" data-name="Path 831" d="M126.077,161.256a4.777,4.777,0,0,1-1.262-2.119,4.68,4.68,0,0,1-.036-2.562,4.334,4.334,0,0,1,.521-1.19,4.685,4.685,0,0,1,.815-.988,5.32,5.32,0,0,1,2.134-1.226,16.3,16.3,0,0,0-1.554,1.735,6.267,6.267,0,0,0-.577.932,4.789,4.789,0,0,0-.384,1,5.749,5.749,0,0,0-.158,2.149,11.028,11.028,0,0,0,.5,2.274" transform="translate(-87.529 -107.584)" fill="#e6e6e6"/>
        <path id="Path_832" data-name="Path 832" d="M113.638,167.42l-4.658-4.47.188,4.384Z" transform="translate(-76.546 -114.453)" fill="#e6e6e6"/>
        <path id="Path_833" data-name="Path 833" d="M112.532,176.37H100.16l1.619,9.193h9.134Z" transform="translate(-70.351 -123.879)" fill="#f5f5f5"/>
        <path id="Path_834" data-name="Path 834" d="M104.8,176.37H100.16l1.619,9.193h2.44Z" transform="translate(-70.351 -123.879)" fill="#ebebeb"/>
        <rect id="Rectangle_278" data-name="Rectangle 278" width="24.973" height="31.393" transform="translate(30.041 6.497)" fill="#f0f0f0"/>
        <rect id="Rectangle_279" data-name="Rectangle 279" width="29.53" height="31.393" transform="translate(31 6.497)" fill="#f5f5f5"/>
        <rect id="Rectangle_280" data-name="Rectangle 280" width="24.583" height="26.446" transform="translate(33.473 8.967)" fill="#fff"/>
        <path id="Path_835" data-name="Path 835" d="M337.823,179.162H299.832L296.46,116.35h37.991Z" transform="translate(-208.229 -81.722)" fill="#ebebeb"/>
        <path id="Path_836" data-name="Path 836" d="M341.723,179.162H303.732L300.36,116.35h37.991Z" transform="translate(-210.968 -81.722)" fill="#f5f5f5"/>
        <path id="Path_837" data-name="Path 837" d="M367.313,187.974H363.92l.137-49.854h3.393Z" transform="translate(-255.611 -97.013)" fill="#fff"/>
        <path id="Path_838" data-name="Path 838" d="M397.463,187.974H394.07l.14-49.854h3.39Z" transform="translate(-276.788 -97.013)" fill="#fff"/>
        <path id="Path_839" data-name="Path 839" d="M337.153,187.974H333.76l.14-49.854h3.393Z" transform="translate(-234.428 -97.013)" fill="#fff"/>
        <path id="Path_840" data-name="Path 840" d="M113.815,349.92c31.869,0,57.7,1.508,57.7,3.369s-25.835,3.369-57.7,3.369-57.7-1.508-57.7-3.369,25.836-3.369,57.7-3.369" transform="translate(-39.411 -245.778)" fill="#f5f5f5"/>
        <rect id="Rectangle_281" data-name="Rectangle 281" width="7.018" height="0.298" transform="translate(114.726 78.166) rotate(-86.859)" fill="#e11941"/>
        <rect id="Rectangle_282" data-name="Rectangle 282" width="3.616" height="0.297" transform="translate(115.241 68.825) rotate(-86.858)" fill="#e11941"/>
        <path id="Path_841" data-name="Path 841" d="M275.317,115.4H240.43a3.83,3.83,0,0,1-3.877-3.783q0-.147.008-.294l4.018-73.249A4.375,4.375,0,0,1,244.894,34h34.89a3.833,3.833,0,0,1,3.862,3.8q0,.137-.008.273l-4.021,73.249a4.372,4.372,0,0,1-4.3,4.077" transform="translate(-166.151 -23.881)" fill="#e11941"/>
        <g id="Group_386" data-name="Group 386" transform="translate(70.402 10.119)" opacity="0.8" style="isolation: isolate">
          <g id="Group_385" data-name="Group 385">
            <g id="Group_384" data-name="Group 384" clip-path="url(#clip-path-6)">
              <path id="Path_842" data-name="Path 842" d="M273.207,115.4H240.43a3.83,3.83,0,0,1-3.877-3.783q0-.147.008-.294l4.018-73.249A4.375,4.375,0,0,1,244.894,34h32.779a3.83,3.83,0,0,1,3.862,3.8c0,.093,0,.186-.008.279l-4.018,73.249a4.378,4.378,0,0,1-4.3,4.077" transform="translate(-236.553 -34)" fill="#fff"/>
            </g>
          </g>
        </g>
        <path id="Path_843" data-name="Path 843" d="M279.07,70.493h-9.414a1.616,1.616,0,0,1-1.629-1.6q0-.06,0-.12a1.845,1.845,0,0,1,1.815-1.72h9.414a1.613,1.613,0,0,1,1.629,1.6c0,.041,0,.082,0,.123a1.848,1.848,0,0,1-1.815,1.723" transform="translate(-188.258 -47.095)" fill="#fff"/>
        <path id="Path_844" data-name="Path 844" d="M296.576,65.518a3.309,3.309,0,0,1-3.274,3.1,2.9,2.9,0,0,1-2.935-2.868c0-.077,0-.154.007-.23a3.309,3.309,0,0,1,3.274-3.1,2.9,2.9,0,0,1,2.935,2.868c0,.077,0,.154-.007.23" transform="translate(-203.949 -43.842)" fill="#e11941"/>
        <path id="Path_845" data-name="Path 845" d="M277.04,107.5h-9.414A1.616,1.616,0,0,1,266,105.9q0-.06,0-.12a1.845,1.845,0,0,1,1.815-1.72h9.414a1.613,1.613,0,0,1,1.629,1.6c0,.041,0,.082,0,.123a1.848,1.848,0,0,1-1.815,1.723" transform="translate(-186.832 -73.09)" fill="#fff"/>
        <path id="Path_846" data-name="Path 846" d="M275.4,100.389a3.019,3.019,0,1,1-.18,4.382,3.1,3.1,0,0,1,.18-4.382" transform="translate(-192.735 -69.853)" fill="#e11941"/>
        <g id="Group_389" data-name="Group 389" transform="translate(81.666 29.599)" opacity="0.3" style="isolation: isolate">
          <g id="Group_388" data-name="Group 388">
            <g id="Group_387" data-name="Group 387" clip-path="url(#clip-path-7)">
              <path id="Path_847" data-name="Path 847" d="M275.4,100.389a3.019,3.019,0,1,1-.18,4.382,3.1,3.1,0,0,1,.18-4.382" transform="translate(-274.401 -99.452)" fill="#fafafa"/>
            </g>
          </g>
        </g>
        <path id="Path_848" data-name="Path 848" d="M263.56,181.523h9.4a1.848,1.848,0,0,0,1.815-1.723,1.613,1.613,0,0,0-1.5-1.717c-.042,0-.084,0-.126,0h-9.4a1.848,1.848,0,0,0-1.818,1.72,1.619,1.619,0,0,0,1.512,1.72c.039,0,.077,0,.116,0" transform="translate(-183.974 -125.08)" fill="#fff"/>
        <path id="Path_849" data-name="Path 849" d="M262.934,174.394a3.019,3.019,0,1,1-.18,4.382,3.1,3.1,0,0,1,.18-4.382" transform="translate(-183.977 -121.833)" fill="#e11941"/>
        <g id="Group_392" data-name="Group 392" transform="translate(77.956 51.624)" opacity="0.7" style="isolation: isolate">
          <g id="Group_391" data-name="Group 391">
            <g id="Group_390" data-name="Group 390" clip-path="url(#clip-path-7)">
              <path id="Path_850" data-name="Path 850" d="M262.934,174.394a3.019,3.019,0,1,1-.18,4.382,3.1,3.1,0,0,1,.18-4.382" transform="translate(-261.933 -173.457)" fill="#fafafa"/>
            </g>
          </g>
        </g>
        <path id="Path_851" data-name="Path 851" d="M270.941,218.533H261.53a1.619,1.619,0,0,1-1.631-1.607c0-.039,0-.078,0-.116a1.848,1.848,0,0,1,1.818-1.72h9.411a1.613,1.613,0,0,1,1.632,1.595c0,.042,0,.084,0,.126a1.848,1.848,0,0,1-1.818,1.723" transform="translate(-182.549 -151.075)" fill="#fff"/>
        <path id="Path_852" data-name="Path 852" d="M288.45,213.558a3.31,3.31,0,0,1-3.274,3.1,2.9,2.9,0,0,1-2.938-2.871q0-.113.006-.227a3.316,3.316,0,0,1,3.274-3.1,2.9,2.9,0,0,1,2.938,2.865q0,.117-.007.233" transform="translate(-198.24 -147.823)" fill="#e11941"/>
        <path id="Path_853" data-name="Path 853" d="M265.6,144.513h9.414a1.848,1.848,0,0,0,1.815-1.723,1.613,1.613,0,0,0-1.5-1.717c-.042,0-.084,0-.126,0h-9.411a1.845,1.845,0,0,0-1.815,1.72,1.616,1.616,0,0,0,1.505,1.72q.06,0,.12,0" transform="translate(-185.407 -99.085)" fill="#fff"/>
        <path id="Path_854" data-name="Path 854" d="M263.984,139.538a2.9,2.9,0,0,0,2.7,3.092q.115.008.23.007a3.309,3.309,0,0,0,3.274-3.1,2.9,2.9,0,0,0-2.7-3.092q-.115-.008-.23-.007a3.309,3.309,0,0,0-3.274,3.1" transform="translate(-185.413 -95.833)" fill="#e11941"/>
        <g id="Group_395" data-name="Group 395" transform="translate(78.564 40.606)" opacity="0.7" style="isolation: isolate">
          <g id="Group_394" data-name="Group 394">
            <g id="Group_393" data-name="Group 393" clip-path="url(#clip-path-9)">
              <path id="Path_855" data-name="Path 855" d="M263.984,139.538a2.9,2.9,0,0,0,2.7,3.092q.115.008.23.007a3.309,3.309,0,0,0,3.274-3.1,2.9,2.9,0,0,0-2.7-3.092q-.115-.008-.23-.007a3.309,3.309,0,0,0-3.274,3.1" transform="translate(-263.977 -136.439)" fill="#fafafa"/>
            </g>
          </g>
        </g>
        <path id="Path_856" data-name="Path 856" d="M339.948,67.848H326a.649.649,0,0,1-.65-.648c0-.014,0-.029,0-.043a.738.738,0,0,1,.726-.687h13.952a.646.646,0,0,1,.65.641c0,.015,0,.031,0,.046a.738.738,0,0,1-.726.69" transform="translate(-228.517 -46.687)" fill="#fff"/>
        <path id="Path_857" data-name="Path 857" d="M334.983,75.948h-9.434a.649.649,0,0,1-.653-.644c0-.015,0-.031,0-.046a.738.738,0,0,1,.726-.687h9.437a.649.649,0,0,1,.653.645c0,.014,0,.029,0,.043a.741.741,0,0,1-.729.69" transform="translate(-228.201 -52.377)" fill="#fff"/>
        <path id="Path_858" data-name="Path 858" d="M330.038,215.888h-12.2a.649.649,0,0,1-.65-.648c0-.014,0-.029,0-.043a.735.735,0,0,1,.726-.688H330.1a.649.649,0,0,1,.653.645c0,.014,0,.029,0,.043a.741.741,0,0,1-.714.69" transform="translate(-222.786 -150.668)" fill="#fff"/>
        <path id="Path_859" data-name="Path 859" d="M323.474,223.985h-6.015a.649.649,0,0,1-.653-.645c0-.014,0-.029,0-.043a.738.738,0,0,1,.726-.687h6.024a.649.649,0,0,1,.653.645c0,.014,0,.029,0,.043a.738.738,0,0,1-.735.688" transform="translate(-222.519 -156.358)" fill="#fff"/>
        <path id="Path_860" data-name="Path 860" d="M337.546,111.58H323.593a.738.738,0,0,0-.726.687.649.649,0,0,0,.609.686h14a.738.738,0,0,0,.726-.687.649.649,0,0,0-.609-.686h-.043" transform="translate(-226.776 -78.372)" fill="#fff"/>
        <path id="Path_861" data-name="Path 861" d="M333.477,103.48h-9.434a.738.738,0,0,0-.726.688.649.649,0,0,0,.606.689H333.4a.741.741,0,0,0,.726-.69.646.646,0,0,0-.6-.686h-.049" transform="translate(-227.091 -72.682)" fill="#fff"/>
        <path id="Path_862" data-name="Path 862" d="M329.129,141.868h-7.143a.649.649,0,0,1-.65-.648c0-.014,0-.029,0-.043a.735.735,0,0,1,.726-.687h7.143a.649.649,0,0,1,.662.636c0,.017,0,.035,0,.052a.741.741,0,0,1-.738.69" transform="translate(-225.701 -98.678)" fill="#fff"/>
        <path id="Path_863" data-name="Path 863" d="M358.863,141.868h-4.214a.649.649,0,0,1-.653-.644c0-.015,0-.031,0-.046a.738.738,0,0,1,.726-.687h4.217a.646.646,0,0,1,.65.641c0,.015,0,.031,0,.046a.741.741,0,0,1-.726.69" transform="translate(-248.641 -98.678)" fill="#fff"/>
        <path id="Path_864" data-name="Path 864" d="M330.9,149.965h-9.443a.649.649,0,0,1-.653-.645c0-.014,0-.029,0-.043a.738.738,0,0,1,.726-.687h9.449a.649.649,0,0,1,.653.645c0,.014,0,.029,0,.043a.738.738,0,0,1-.732.688" transform="translate(-225.329 -104.367)" fill="#fff"/>
        <path id="Path_865" data-name="Path 865" d="M274.915,255.148H258.844a.893.893,0,0,1-.913-.872c0-.031,0-.062,0-.092a1.036,1.036,0,0,1,1.018-.964h16.071a.893.893,0,0,1,.913.872c0,.031,0,.062,0,.092a1.033,1.033,0,0,1-1.018.964" transform="translate(-181.166 -177.857)" fill="#fff"/>
        <path id="Path_866" data-name="Path 866" d="M337.707,255.148h-9.863a.893.893,0,0,1-.913-.872c0-.031,0-.062,0-.092a1.036,1.036,0,0,1,1.018-.964h9.863a.893.893,0,0,1,.913.872c0,.031,0,.062,0,.092a1.036,1.036,0,0,1-1.018.964" transform="translate(-229.631 -177.857)" fill="#fff"/>
        <path id="Path_867" data-name="Path 867" d="M270.476,266.448H258.244a.893.893,0,0,1-.913-.872c0-.031,0-.062,0-.092a1.033,1.033,0,0,1,1.018-.964H270.58a.893.893,0,0,1,.913.872c0,.031,0,.062,0,.092a1.033,1.033,0,0,1-1.015.964" transform="translate(-180.745 -185.794)" fill="#fff"/>
        <path id="Path_868" data-name="Path 868" d="M283.323,277.808h-25.7a.893.893,0,0,1-.913-.872c0-.031,0-.062,0-.092a1.033,1.033,0,0,1,1.015-.964h25.7a.893.893,0,0,1,.913.872c0,.031,0,.062,0,.092a1.033,1.033,0,0,1-1.015.964" transform="translate(-180.309 -193.773)" fill="#fff"/>
        <path id="Path_869" data-name="Path 869" d="M323.664,185.6h-4.131a.738.738,0,0,0-.726.687.649.649,0,0,0,.609.686h4.174a.738.738,0,0,0,.726-.687.649.649,0,0,0-.609-.686h-.043" transform="translate(-223.924 -130.362)" fill="#fff"/>
        <path id="Path_870" data-name="Path 870" d="M346.872,185.6h-4.789a.738.738,0,0,0-.726.687.649.649,0,0,0,.609.686H346.8a.738.738,0,0,0,.726-.688.646.646,0,0,0-.6-.686h-.049" transform="translate(-239.763 -130.362)" fill="#fff"/>
        <path id="Path_871" data-name="Path 871" d="M329.417,177.5h-9.434a.735.735,0,0,0-.726.687.649.649,0,0,0,.606.689h9.48a.741.741,0,0,0,.726-.69.649.649,0,0,0-.609-.686h-.043" transform="translate(-224.24 -124.673)" fill="#fff"/>
        <path id="Path_872" data-name="Path 872" d="M158.646,112.862c-.973.807-1.979,1.685-2.9,2.565-.464.443-.917.893-1.336,1.357a11.765,11.765,0,0,0-1.116,1.4l-.057.083-.027.048a.719.719,0,0,0-.062.119c-.042.092-.08.208-.122.33a6.507,6.507,0,0,0-.185.824,17.677,17.677,0,0,0-.179,1.875c-.062,1.286-.062,2.628-.039,3.94l-1.393.208a25.673,25.673,0,0,1-.714-4.1,15.772,15.772,0,0,1-.051-2.164,8.8,8.8,0,0,1,.149-1.161,4.7,4.7,0,0,1,.17-.637c.045-.116.077-.223.137-.345l.083-.179c.03-.054.051-.086.074-.134a12,12,0,0,1,1.271-1.86,20.918,20.918,0,0,1,1.42-1.6,31.186,31.186,0,0,1,3.131-2.8Z" transform="translate(-105.671 -77.705)" fill="#b55b52"/>
        <path id="Path_873" data-name="Path 873" d="M167.217,105.566a26.251,26.251,0,0,0-3.827,3.214l2.824,3.39s4.009-2.4,4.5-3.729c.815-2.229-2.054-3.729-3.494-2.875" transform="translate(-114.762 -73.977)" fill="#e11941"/>
        <path id="Path_874" data-name="Path 874" d="M153.762,158.345l.345,2.015-1.872-.271s-.384-1.369.6-1.839Z" transform="translate(-106.875 -111.152)" fill="#b55b52"/>
        <path id="Path_875" data-name="Path 875" d="M152.4,165.927l-1.685-.524.5-.973,1.872.271Z" transform="translate(-105.863 -115.493)" fill="#b55b52"/>
        <path id="Path_876" data-name="Path 876" d="M214.32,81.356c0,.205.113.372.25.375s.241-.164.238-.366-.113-.372-.25-.375-.241.164-.238.366" transform="translate(-150.535 -56.886)" fill="#192c62"/>
        <path id="Path_877" data-name="Path 877" d="M214.92,80.684l.5-.134s-.25.387-.5.134" transform="translate(-150.956 -56.577)" fill="#192c62"/>
        <path id="Path_878" data-name="Path 878" d="M214.91,82.9a5.655,5.655,0,0,0,.756,1.318.892.892,0,0,1-.735.125Z" transform="translate(-150.949 -58.228)" fill="#a02724"/>
        <path id="Path_879" data-name="Path 879" d="M212.485,76.944a.107.107,0,0,1-.06,0,1,1,0,0,0-.893.1.119.119,0,0,1-.167-.021l0,0a.122.122,0,0,1,.024-.17,1.252,1.252,0,0,1,1.107-.14.122.122,0,0,1,.077.152.128.128,0,0,1-.086.077" transform="translate(-148.441 -53.834)" fill="#192c62"/>
        <path id="Path_880" data-name="Path 880" d="M190.309,89.56c.137,1.539-.378,4.059-1.539,4.917,0,0,.875,1.619,3.679,2,3.086.414,1.637-1.321,1.637-1.321-1.64-.625-1.467-1.86-1.051-2.976Z" transform="translate(-132.589 -62.905)" fill="#b55b52"/>
        <path id="Path_881" data-name="Path 881" d="M210.5,111.7c1.467.4,3.009.783,4.521,1.125.762.164,1.524.3,2.286.461s1.527.268,2.286.366l.3.039.2.021h.446a7.95,7.95,0,0,0,1.03-.14,20.906,20.906,0,0,0,2.182-.574c1.467-.458,2.955-1.012,4.411-1.583l.661,1.241a31.416,31.416,0,0,1-4.307,2.36,19.383,19.383,0,0,1-2.381.893,10.082,10.082,0,0,1-1.324.3,7.243,7.243,0,0,1-.744.062h-.4l-.3-.024a39.1,39.1,0,0,1-4.881-.649,45.639,45.639,0,0,1-4.762-1.155Z" transform="translate(-147.297 -78.253)" fill="#b55b52"/>
        <path id="Path_882" data-name="Path 882" d="M270.37,109.651l.432-1.461,1.586.6s-.363,2.2-1.723,1.589Z" transform="translate(-189.903 -75.991)" fill="#b55b52"/>
        <path id="Path_883" data-name="Path 883" d="M272.74,104.93l1.619.182-.952,1.384-1.586-.6Z" transform="translate(-190.922 -73.701)" fill="#b55b52"/>
        <path id="Path_884" data-name="Path 884" d="M178.64,338.047l2.551.188.759-5.857-2.551-.187Z" transform="translate(-125.474 -233.325)" fill="#b55b52"/>
        <path id="Path_885" data-name="Path 885" d="M115.44,305.832l1.732,1.923,4.839-3.345-1.732-1.92Z" transform="translate(-81.083 -212.464)" fill="#b55b52"/>
        <path id="Path_886" data-name="Path 886" d="M123.886,321.279a.341.341,0,0,1-.092,0c-.3-.1-.521-.676-.619-1.009a.059.059,0,0,1,.086-.068c.092.048.914.494.94.821a.205.205,0,0,1-.086.185.362.362,0,0,1-.229.071m-.551-.914c.149.44.33.729.5.783a.218.218,0,0,0,.208-.051.092.092,0,0,0,.042-.08c-.015-.173-.423-.464-.747-.652" transform="translate(-86.514 -224.899)" fill="#e11941"/>
        <path id="Path_887" data-name="Path 887" d="M123.982,319.833a1.827,1.827,0,0,1-.783-.193.065.065,0,0,1-.03-.054.053.053,0,0,1,.033-.051c.024-.015.655-.363,1-.244a.324.324,0,0,1,.2.188.209.209,0,0,1-.048.262.594.594,0,0,1-.378.092m-.619-.247a1.287,1.287,0,0,0,.92.065c.021-.021.045-.051,0-.125a.208.208,0,0,0-.128-.122A1.357,1.357,0,0,0,123.363,319.586Z" transform="translate(-86.513 -224.248)" fill="#e11941"/>
        <path id="Path_888" data-name="Path 888" d="M114.341,312.99l-1.429-2.536a.206.206,0,0,0-.253-.1l-2.11.809a.413.413,0,0,0-.21.546.39.39,0,0,0,.026.049c.515.875.8,1.271,1.432,2.381.387.684.982,2.182,1.44,3.167s1.429.6,1.324.149a8.973,8.973,0,0,1-.143-4.012.683.683,0,0,0-.077-.458" transform="translate(-77.475 -217.982)" fill="#192c62"/>
        <path id="Path_889" data-name="Path 889" d="M188.93,351.247a4.475,4.475,0,0,1-.8-.089.062.062,0,0,1-.048-.051.059.059,0,0,1,.033-.062c.116-.06,1.152-.6,1.458-.408a.19.19,0,0,1,.1.161.345.345,0,0,1-.119.3.975.975,0,0,1-.619.152m-.6-.176a1.648,1.648,0,0,0,1.143-.071.225.225,0,0,0,.074-.193.074.074,0,0,0-.036-.065c-.176-.092-.762.128-1.187.33Z" transform="translate(-132.103 -246.253)" fill="#e11941"/>
        <path id="Path_890" data-name="Path 890" d="M188.138,349.783a.057.057,0,0,1-.036,0,.054.054,0,0,1-.024-.054c0-.048.122-1.089.693-1.089h.051c.164.015.211.1.223.167.048.3-.571.842-.893.979a.044.044,0,0,1-.015,0m.637-1.036c-.369,0-.515.6-.56.866.318-.19.738-.622.711-.8,0,0,0-.054-.116-.065Z" transform="translate(-132.103 -244.879)" fill="#e11941"/>
        <path id="Path_891" data-name="Path 891" d="M179.573,351.28H176.7a.211.211,0,0,0-.208.176l-.384,2.268a.4.4,0,0,0,.345.452.411.411,0,0,0,.054,0c1-.018,1.488-.077,2.744-.077.774,0,2.381.08,3.449.08s1.155-1.057.711-1.155a6.7,6.7,0,0,1-3.42-1.589.658.658,0,0,0-.423-.158" transform="translate(-123.695 -246.733)" fill="#192c62"/>
        <g id="Group_398" data-name="Group 398" transform="translate(53.532 98.865)" opacity="0.2" style="isolation: isolate">
          <g id="Group_397" data-name="Group 397">
            <g id="Group_396" data-name="Group 396" clip-path="url(#clip-path-10)">
              <path id="Path_892" data-name="Path 892" d="M182.813,332.38l-.423,3.256-2.521-.423.39-3.024Z" transform="translate(-179.87 -332.19)"/>
            </g>
          </g>
        </g>
        <g id="Group_401" data-name="Group 401" transform="translate(37.131 90.026)" opacity="0.2" style="isolation: isolate">
          <g id="Group_400" data-name="Group 400">
            <g id="Group_399" data-name="Group 399" clip-path="url(#clip-path-11)">
              <path id="Path_893" data-name="Path 893" d="M126.822,302.49l1.732,1.923-2,1.381-1.795-1.878Z" transform="translate(-124.76 -302.49)"/>
            </g>
          </g>
        </g>
        <path id="Path_894" data-name="Path 894" d="M174.242,120.883l10.321,1.387c4-14.491,2.821-14.881,2.821-14.881a20.769,20.769,0,0,0-2.381-.94l-.14-.045c-.667-.2-.807-.229-1.7-.432-1.527-.271-2.943-.479-4.693-.628-.11,0-.223-.021-.333-.027-.315-.021-.628-.036-.932-.048h-1.6a1.431,1.431,0,0,0-1.4,1.463c0,.044,0,.088.009.132.884,7.61.6,10.119.024,14.018" transform="translate(-122.361 -73.94)" fill="#e11941"/>
        <g id="Group_404" data-name="Group 404" transform="translate(62.499 35.943)" opacity="0.2" style="isolation: isolate">
          <g id="Group_403" data-name="Group 403">
            <g id="Group_402" data-name="Group 402" clip-path="url(#clip-path-12)">
              <path id="Path_895" data-name="Path 895" d="M210,121.553c.071.673,1.625,1.9,2.164,1.571.155-.807.268-1.488.348-2.036-.78-.06-2.307-.92-2.512.464" transform="translate(-210 -120.77)"/>
            </g>
          </g>
        </g>
        <path id="Path_896" data-name="Path 896" d="M204.368,109.683c-.074-2.381,5.7.241,7.021.833l-1.476,3.991a8.1,8.1,0,0,1-3.161-.777,4.988,4.988,0,0,1-2.384-4.048" transform="translate(-143.544 -76.349)" fill="#e11941"/>
        <path id="Path_897" data-name="Path 897" d="M190.973,71.365c.19,2.518.217,3.586,1.521,4.9,1.955,1.967,5.036,1.271,5.607-1.232.515-2.253.116-5.991-2.381-7.027a3.378,3.378,0,0,0-4.747,3.363" transform="translate(-134.128 -47.556)" fill="#b55b52"/>
        <path id="Path_898" data-name="Path 898" d="M171.13,66.038c-2.53-.634-2.61,1.488-2.557,2.607s-1.807,1.655-1.807,3.057c0,1.827,1.378,2.917-1.973,3.47-2.836.467-3.711,4.012.485,6.086,4.646,2.292,11.655-.935,10.8-4-1.3-4.735,1.039-4.72.78-7.369-.193-1.923,1.628-2.018.973-3.622-.863-2.1-6.926-3.94-6.705-.226" transform="translate(-114.065 -44.886)" fill="#192c62"/>
        <path id="Path_899" data-name="Path 899" d="M181.5,73.633c-.348-1.833-.158-3.048.565-3.616a2.617,2.617,0,0,1,2.423-.071l-.122.271s-1.33-.6-2.119.033c-.628.5-.78,1.616-.455,3.327Z" transform="translate(-127.365 -48.931)" fill="#192c62"/>
        <path id="Path_900" data-name="Path 900" d="M167.788,93.447a5.8,5.8,0,0,1-1.908-.387l.11-.277c.021,0,2.027.8,2.955.027.452-.375.58-1.077.384-2.083l.3-.057a2.351,2.351,0,0,1-.485,2.381,2.084,2.084,0,0,1-1.354.4" transform="translate(-116.511 -63.685)" fill="#192c62"/>
        <path id="Path_901" data-name="Path 901" d="M208.683,82.124a2.283,2.283,0,0,0,.348,1.333c.345.562.813.458.964-.018a1.64,1.64,0,0,0-.342-1.649c-.467-.408-.923-.187-.97.333" transform="translate(-146.573 -57.3)" fill="#b55b52"/>
        <path id="Path_902" data-name="Path 902" d="M147.6,158.751s-4.012,16.964-5.887,26.693c-1.976,10.277-13.69,18.661-13.69,18.661l-2.571-2.646s7.542-6.6,9.479-16.2c3.932-19.476,1.271-23.4,5.059-27.533Z" transform="translate(-88.114 -110.787)" fill="#192c62"/>
        <path id="Path_903" data-name="Path 903" d="M127.251,304.744l-3.211-3.3.9-.97,3.729,3.283Z" transform="translate(-87.124 -211.045)" fill="#e11941"/>
        <g id="Group_407" data-name="Group 407" transform="translate(54.694 51.182)" opacity="0.2" style="isolation: isolate">
          <g id="Group_406" data-name="Group 406">
            <g id="Group_405" data-name="Group 405" clip-path="url(#clip-path-13)">
              <path id="Path_904" data-name="Path 904" d="M186.434,172.439c-3.119,2.708-2.783,12.318-2.455,16.649,1.307-6.158,2.881-13.015,3.8-16.982-.33-.244-.777-.164-1.348.333" transform="translate(-183.775 -171.973)"/>
            </g>
          </g>
        </g>
        <path id="Path_905" data-name="Path 905" d="M187.083,160.053s1.8,20.128.818,27.806c-1.024,7.985-6.25,25.36-6.25,25.36L178,212.746s2.976-17.22,3.521-25.125c.577-8.631-1.991-28.571-1.991-28.571Z" transform="translate(-125.024 -111.714)" fill="#192c62"/>
        <path id="Path_906" data-name="Path 906" d="M180.574,336.516l-5.244-.679.08-1.548,5.69.551Z" transform="translate(-123.149 -234.8)" fill="#e11941"/>
        <path id="Path_907" data-name="Path 907" d="M172.639,155.547l-.565.854c-.042.068.036.152.155.167l10.827,1.467c.092,0,.176-.024.188-.08l.19-.893c.015-.062-.062-.128-.164-.143l-10.461-1.4a.178.178,0,0,0-.17.03" transform="translate(-120.853 -109.226)" fill="#e11941"/>
        <g id="Group_410" data-name="Group 410" transform="translate(51.208 46.282)" opacity="0.3" style="isolation: isolate">
          <g id="Group_409" data-name="Group 409">
            <g id="Group_408" data-name="Group 408" clip-path="url(#clip-path-14)">
              <path id="Path_908" data-name="Path 908" d="M172.639,155.547l-.565.854c-.042.068.036.152.155.167l10.827,1.467c.092,0,.176-.024.188-.08l.19-.893c.015-.062-.062-.128-.164-.143l-10.461-1.4a.178.178,0,0,0-.17.03" transform="translate(-172.062 -155.508)"/>
            </g>
          </g>
        </g>
        <path id="Path_909" data-name="Path 909" d="M177.453,157.014l-.28-.036c-.057,0-.1-.042-.086-.077l.256-1.176c0-.033.06-.054.116-.048l.28.039c.057,0,.1.042.089.074l-.259,1.176c-.006.036-.06.057-.116.048" transform="translate(-124.382 -109.345)" fill="#192c62"/>
        <path id="Path_910" data-name="Path 910" d="M201.228,160.262l-.28-.039c-.057,0-.1-.042-.089-.074l.259-1.176c0-.033.06-.057.116-.048l.28.036c.057,0,.1.042.086.077l-.256,1.176c-.009.033-.06.057-.116.048" transform="translate(-141.079 -111.625)" fill="#192c62"/>
      </g>
    </g>
  </g>
</svg>
