<svg id="Group_631" data-name="Group 631" xmlns="http://www.w3.org/2000/svg" xmlns:xlink="http://www.w3.org/1999/xlink" width="109.005" height="110.581" viewBox="0 0 109.005 110.581">
  <defs>
    <clipPath id="clip-path">
      <rect id="Rectangle_604" data-name="Rectangle 604" width="109.005" height="110.581" fill="none"/>
    </clipPath>
    <clipPath id="clip-path-3">
      <rect id="Rectangle_574" data-name="Rectangle 574" width="9.897" height="8.427" fill="none"/>
    </clipPath>
    <clipPath id="clip-path-4">
      <rect id="Rectangle_577" data-name="Rectangle 577" width="14.729" height="0.961" fill="none"/>
    </clipPath>
    <clipPath id="clip-path-5">
      <rect id="Rectangle_578" data-name="Rectangle 578" width="4.826" height="4.826" fill="none"/>
    </clipPath>
    <clipPath id="clip-path-6">
      <rect id="Rectangle_579" data-name="Rectangle 579" width="6.708" height="10.833" fill="none"/>
    </clipPath>
    <clipPath id="clip-path-7">
      <rect id="Rectangle_580" data-name="Rectangle 580" width="12.717" height="12.717" fill="none"/>
    </clipPath>
    <clipPath id="clip-path-8">
      <rect id="Rectangle_581" data-name="Rectangle 581" width="12.579" height="12.579" fill="none"/>
    </clipPath>
    <clipPath id="clip-path-9">
      <rect id="Rectangle_582" data-name="Rectangle 582" width="5.123" height="7.328" fill="none"/>
    </clipPath>
    <clipPath id="clip-path-10">
      <rect id="Rectangle_584" data-name="Rectangle 584" width="17.178" height="0.573" fill="none"/>
    </clipPath>
    <clipPath id="clip-path-11">
      <rect id="Rectangle_586" data-name="Rectangle 586" width="17.18" height="0.572" fill="none"/>
    </clipPath>
    <clipPath id="clip-path-13">
      <rect id="Rectangle_590" data-name="Rectangle 590" width="17.18" height="0.732" fill="none"/>
    </clipPath>
    <clipPath id="clip-path-14">
      <rect id="Rectangle_592" data-name="Rectangle 592" width="17.178" height="0.828" fill="none"/>
    </clipPath>
    <clipPath id="clip-path-16">
      <rect id="Rectangle_595" data-name="Rectangle 595" width="7.117" height="7.555" fill="none"/>
    </clipPath>
    <clipPath id="clip-path-17">
      <rect id="Rectangle_596" data-name="Rectangle 596" width="11.1" height="11.1" fill="none"/>
    </clipPath>
    <clipPath id="clip-path-18">
      <rect id="Rectangle_597" data-name="Rectangle 597" width="10.95" height="10.951" fill="none"/>
    </clipPath>
    <clipPath id="clip-path-19">
      <rect id="Rectangle_598" data-name="Rectangle 598" width="3.857" height="6.718" fill="none"/>
    </clipPath>
    <clipPath id="clip-path-20">
      <rect id="Rectangle_599" data-name="Rectangle 599" width="34.637" height="8.357" fill="none"/>
    </clipPath>
    <clipPath id="clip-path-21">
      <rect id="Rectangle_601" data-name="Rectangle 601" width="0.642" height="0.651" fill="none"/>
    </clipPath>
    <clipPath id="clip-path-22">
      <rect id="Rectangle_602" data-name="Rectangle 602" width="6.663" height="6.148" fill="none"/>
    </clipPath>
  </defs>
  <g id="Group_630" data-name="Group 630" clip-path="url(#clip-path)">
    <g id="Group_629" data-name="Group 629">
      <g id="Group_628" data-name="Group 628" clip-path="url(#clip-path)">
        <path id="Path_1551" data-name="Path 1551" d="M109.19,20.109a8.237,8.237,0,1,1-9.388-6.9l.014,0a8.225,8.225,0,0,1,9.372,6.889v.009" transform="translate(-70.503 -9.964)" fill="#f5f5f5"/>
        <path id="Path_1552" data-name="Path 1552" d="M113.442,26.592a6.278,6.278,0,1,1-7.157-5.254l.016,0a6.271,6.271,0,0,1,7.141,5.256" transform="translate(-76.692 -16.153)" fill="#ebebeb"/>
        <path id="Path_1553" data-name="Path 1553" d="M113.055,25.618a4.287,4.287,0,0,1-.276-.721,6.661,6.661,0,0,0-1-1.8,6.387,6.387,0,0,0-.993-1,6.18,6.18,0,0,0-3.084-1.322,6.02,6.02,0,0,0-.94-.048,6.326,6.326,0,0,0-.961.1,6.6,6.6,0,0,0-.935.24,5.9,5.9,0,0,0-.86.389,5.541,5.541,0,0,0-.767.481,5.848,5.848,0,0,0-.661.567,6.306,6.306,0,0,0-.99,1.274,6.37,6.37,0,0,0-.872,3.317,4.656,4.656,0,0,1,0,.772c-.034.007-.123-.26-.185-.762a5.8,5.8,0,0,1,.161-2.137,6.337,6.337,0,0,1,1.572-2.781,6.478,6.478,0,0,1,1.519-1.159,6.3,6.3,0,0,1,.925-.416,6.729,6.729,0,0,1,1.009-.272,7,7,0,0,1,1.041-.1,6.389,6.389,0,0,1,1.012.06,6.11,6.11,0,0,1,.961.211,5.97,5.97,0,0,1,.875.337,6.31,6.31,0,0,1,2.449,2.053,5.871,5.871,0,0,1,.909,1.942,1.73,1.73,0,0,1,.094.776" transform="translate(-76.339 -15.374)" fill="#e0e0e0"/>
        <path id="Path_1554" data-name="Path 1554" d="M119.509,37.13l.178,1.079-.961.159-.175-1.048a4.636,4.636,0,0,1-2.524-.375l.334-1.257a3.941,3.941,0,0,0,1.983.375l-.267-1.608c-1.113-.084-2.365-.24-2.593-1.62-.168-1.022.428-2.019,1.923-2.444l-.178-1.07.961-.159.173,1.048a4.435,4.435,0,0,1,2.053.264l-.286,1.264a4.011,4.011,0,0,0-1.555-.257l.272,1.639c1.108.072,2.343.24,2.567,1.591.166.99-.421,1.978-1.9,2.418m-1.668-4.086-.226-1.368c-.481.2-.647.512-.594.829s.375.457.82.522Zm2.041,2.045c-.055-.336-.365-.481-.8-.55l.221,1.329c.464-.2.635-.486.582-.8Z" transform="translate(-87.705 -22.153)" fill="#e0e0e0"/>
        <path id="Path_1555" data-name="Path 1555" d="M334.684,214.552a5.047,5.047,0,1,1-5.749-4.233,5.047,5.047,0,0,1,5.749,4.233v0" transform="translate(-246.616 -159.724)" fill="#f5f5f5"/>
        <path id="Path_1556" data-name="Path 1556" d="M337.287,218.517a3.846,3.846,0,1,1-4.382-3.226,3.846,3.846,0,0,1,4.382,3.226Z" transform="translate(-250.409 -163.512)" fill="#ebebeb"/>
        <path id="Path_1557" data-name="Path 1557" d="M336.965,217.983a2.316,2.316,0,0,1-.168-.442,4.2,4.2,0,0,0-.615-1.1,4.094,4.094,0,0,0-.61-.615,3.85,3.85,0,0,0-.844-.517,3.779,3.779,0,0,0-1.048-.3,3.878,3.878,0,0,0-1.168.031,4.113,4.113,0,0,0-.574.151,3.876,3.876,0,0,0-.529.24,3.733,3.733,0,0,0-.481.3,3.875,3.875,0,0,0-1.368,1.923,4.086,4.086,0,0,0-.185,1.247,2.114,2.114,0,0,1,0,.481,1.156,1.156,0,0,1-.113-.469,3.578,3.578,0,0,1,.1-1.312,3.888,3.888,0,0,1,1.394-2.089,3.882,3.882,0,0,1,.5-.327,3.671,3.671,0,0,1,.567-.257,4.355,4.355,0,0,1,.62-.166,4.127,4.127,0,0,1,.637-.062,3.8,3.8,0,0,1,.623.036,3.854,3.854,0,0,1,.586.13,3.752,3.752,0,0,1,.536.207,3.845,3.845,0,0,1,1.507,1.252,3.554,3.554,0,0,1,.558,1.2,1.138,1.138,0,0,1,.072.457" transform="translate(-250.106 -163.095)" fill="#e0e0e0"/>
        <path id="Path_1558" data-name="Path 1558" d="M340.967,224.963l.111.663-.591.1-.108-.644a2.827,2.827,0,0,1-1.548-.24l.2-.774a2.4,2.4,0,0,0,1.216.24l-.163-.985c-.683-.05-1.442-.149-1.591-1-.1-.625.262-1.238,1.178-1.5l-.108-.656.591-.1.106.644a2.721,2.721,0,0,1,1.259.163l-.173.776a2.422,2.422,0,0,0-.961-.159l.166,1c.683.046,1.442.144,1.577.978.108.613-.255,1.216-1.163,1.483m-1.024-2.514-.139-.839c-.3.123-.4.315-.363.51S339.669,222.411,339.943,222.449Zm1.252,1.257c-.034-.207-.224-.291-.481-.339l.135.817c.274-.115.377-.288.341-.478Z" transform="translate(-257.125 -167.177)" fill="#e0e0e0"/>
        <path id="Path_1559" data-name="Path 1559" d="M26.22,230.239a6.857,6.857,0,1,1-7.815-5.743l.013,0a6.853,6.853,0,0,1,7.8,5.744" transform="translate(-9.559 -170.477)" fill="#f5f5f5"/>
        <path id="Path_1560" data-name="Path 1560" d="M29.768,235.63a5.225,5.225,0,1,1-5.955-4.376h.009a5.223,5.223,0,0,1,5.946,4.377" transform="translate(-14.719 -175.625)" fill="#ebebeb"/>
        <path id="Path_1561" data-name="Path 1561" d="M29.438,234.886a3.076,3.076,0,0,1-.24-.6,5.566,5.566,0,0,0-.824-1.481,5.306,5.306,0,0,0-.827-.836,5.215,5.215,0,0,0-1.144-.7,4.792,4.792,0,0,0-.683-.24,5.048,5.048,0,0,0-1.524-.195,5.356,5.356,0,0,0-.8.082,5.1,5.1,0,0,0-2.687,1.4,5.2,5.2,0,0,0-1.3,2.134,5.53,5.53,0,0,0-.252,1.682,3.069,3.069,0,0,1,0,.644,1.577,1.577,0,0,1-.151-.635,4.8,4.8,0,0,1,.135-1.779,5.187,5.187,0,0,1,1.308-2.315,5.363,5.363,0,0,1,1.264-.961,5.211,5.211,0,0,1,.772-.346,5.36,5.36,0,0,1,1.707-.312,5.445,5.445,0,0,1,.844.05,5.356,5.356,0,0,1,2.718,1.235,5.444,5.444,0,0,1,.839.921,4.833,4.833,0,0,1,.764,1.61,1.561,1.561,0,0,1,.082.639" transform="translate(-14.415 -175.045)" fill="#e0e0e0"/>
        <path id="Path_1562" data-name="Path 1562" d="M34.793,244.384l.149.9-.8.132L34,244.542a3.873,3.873,0,0,1-2.1-.312l.279-1.048a3.3,3.3,0,0,0,1.651.312l-.221-1.341c-.928-.067-1.971-.2-2.163-1.346-.139-.851.356-1.682,1.6-2.036l-.147-.877.8-.132.144.875a3.671,3.671,0,0,1,1.709.219l-.24,1.053a3.364,3.364,0,0,0-1.3-.214l.226,1.363c.923.062,1.952.2,2.139,1.327.139.824-.351,1.646-1.584,2M33.4,240.973l-.187-1.139c-.409.168-.538.428-.5.692s.312.4.683.454Zm1.7,1.711c-.046-.281-.3-.394-.668-.457l.183,1.106c.387-.151.529-.392.486-.649" transform="translate(-23.864 -180.615)" fill="#e0e0e0"/>
        <path id="Path_1563" data-name="Path 1563" d="M268.757,42.892,226.883,29.858a2.043,2.043,0,0,1-1.344-2.555l8.054-25.867A2.041,2.041,0,0,1,236.146.092l41.877,13.037a2.041,2.041,0,0,1,1.339,2.553L271.31,41.551a2.043,2.043,0,0,1-2.553,1.341" transform="translate(-171.26 0)" fill="#e0e0e0"/>
        <path id="Path_1564" data-name="Path 1564" d="M250.733,81.462l-.793,2.548-.26-.082.721-2.307-.6-.187.075-.24Z" transform="translate(-189.669 -61.678)" fill="#fff"/>
        <path id="Path_1565" data-name="Path 1565" d="M256.086,86.789l-.074.24-1.781-.555.058-.185,1.377-.707c.375-.192.481-.346.538-.522.091-.293-.06-.538-.447-.661a.915.915,0,0,0-.784.067l-.135-.216a1.2,1.2,0,0,1,1.014-.084c.514.161.759.524.627.961-.074.24-.219.437-.663.666l-1.13.579Z" transform="translate(-193.125 -63.88)" fill="#fff"/>
        <path id="Path_1566" data-name="Path 1566" d="M266.651,90.2l-.51-.159-.207.668-.262-.082.209-.666-1.442-.447.077-.2,1.87-1.264.291.091-1.81,1.235,1.1.344.183-.589.255.079-.185.589.51.159Z" transform="translate(-200.881 -66.889)" fill="#fff"/>
        <path id="Path_1567" data-name="Path 1567" d="M282.844,95.264l-.507-.159-.209.668-.264-.082.209-.668-1.442-.447.06-.187,1.87-1.267.291.091-1.81,1.235,1.1.344.183-.586.255.077-.183.589.507.159Z" transform="translate(-213.18 -70.74)" fill="#fff"/>
        <path id="Path_1568" data-name="Path 1568" d="M292.951,97.393c-.135.433-.541.675-1.161.481a1.384,1.384,0,0,1-.81-.611l.192-.168a1.154,1.154,0,0,0,.687.536c.433.135.721,0,.824-.312s-.041-.594-.685-.793l-.541-.168.526-1.235,1.392.433-.075.24-1.161-.361-.339.781.327.1c.767.236.961.627.822,1.077" transform="translate(-221.042 -72.259)" fill="#fff"/>
        <path id="Path_1569" data-name="Path 1569" d="M303.781,101.117a.827.827,0,0,1-1.113.51c-.673-.209-.894-.793-.644-1.6a1.206,1.206,0,0,1,1.569-.961,1.227,1.227,0,0,1,.56.327l-.171.178a.919.919,0,0,0-.457-.274c-.548-.171-1.009.072-1.226.762-.017.058-.036.132-.053.209a.848.848,0,0,1,.913-.192.818.818,0,0,1,.62,1.038m-.262-.075a.583.583,0,0,0-.469-.747.615.615,0,0,0-.81.318c-.005.012-.01.024-.014.036a.617.617,0,0,0,.5.752.579.579,0,0,0,.766-.291A.564.564,0,0,0,303.519,101.043Z" transform="translate(-229.356 -75.211)" fill="#fff"/>
        <path id="Path_1570" data-name="Path 1570" d="M317.849,104.943c-.132.426-.543.656-1.156.464a1.389,1.389,0,0,1-.812-.61l.192-.168a1.154,1.154,0,0,0,.695.539c.421.132.721,0,.812-.308s-.055-.572-.529-.721l-.18-.055.06-.192.978-.663-1.3-.4.072-.24,1.634.51-.058.185-1,.683c.536.2.719.577.591.983" transform="translate(-239.957 -77.927)" fill="#fff"/>
        <path id="Path_1571" data-name="Path 1571" d="M328.892,108.921a.826.826,0,0,1-1.11.51c-.675-.209-.9-.793-.647-1.594a1.261,1.261,0,0,1,2.13-.635l-.171.178a.922.922,0,0,0-.457-.274c-.548-.171-1.009.072-1.223.762a1.641,1.641,0,0,0-.053.209.852.852,0,0,1,.911-.193.832.832,0,0,1,.62,1.036m-.26-.075a.583.583,0,0,0-.469-.745.615.615,0,0,0-.812.314c-.006.012-.011.025-.015.037a.619.619,0,0,0,.5.754.584.584,0,0,0,.766-.31c.006-.013.011-.027.016-.041Z" transform="translate(-248.431 -81.14)" fill="#fff"/>
        <path id="Path_1572" data-name="Path 1572" d="M340.007,109.331l-.058.185-1.8,2.024-.281-.087,1.764-1.983-1.307-.409-.149.481-.257-.079.221-.721Z" transform="translate(-256.662 -82.606)" fill="#fff"/>
        <path id="Path_1573" data-name="Path 1573" d="M355.1,114.077l-.058.185-1.8,2.026-.284-.089,1.764-1.983-1.308-.406-.147.481-.26-.082.221-.707Z" transform="translate(-268.125 -86.222)" fill="#fff"/>
        <path id="Path_1574" data-name="Path 1574" d="M363.554,119.685c-.139.449-.608.61-1.214.423s-.894-.586-.752-1.036a.662.662,0,0,1,.683-.481.6.6,0,0,1-.224-.683c.127-.416.56-.562,1.1-.4s.815.538.687.961a.608.608,0,0,1-.582.433.671.671,0,0,1,.3.779m-.267-.087c.1-.312-.111-.594-.56-.733s-.776-.027-.875.286.106.594.558.733.779.029.875-.286Zm-.5-.94c.4.123.687.019.774-.257s-.106-.539-.481-.659-.683-.019-.769.262.082.531.476.654" transform="translate(-274.652 -89.217)" fill="#fff"/>
        <path id="Path_1575" data-name="Path 1575" d="M374.172,122.348a1.207,1.207,0,0,1-1.572.961,1.231,1.231,0,0,1-.56-.327l.171-.178a.964.964,0,0,0,.457.274c.548.171,1.009-.072,1.226-.762.017-.058.036-.132.053-.209a.854.854,0,0,1-.913.192.8.8,0,0,1-.618-1.029.836.836,0,0,1,1.11-.51c.675.2.894.783.647,1.586m-.2-.616a.618.618,0,0,0-.5-.754.581.581,0,1,0-.324,1.106.613.613,0,0,0,.809-.312c.005-.013.011-.026.016-.039" transform="translate(-282.619 -91.697)" fill="#fff"/>
        <path id="Path_1576" data-name="Path 1576" d="M389.913,124.8l-.791,2.543-.262-.082.721-2.31-.6-.185.072-.24Z" transform="translate(-295.396 -94.593)" fill="#fff"/>
        <path id="Path_1577" data-name="Path 1577" d="M395.263,130.11l-.072.24-1.781-.562.058-.185,1.377-.707c.375-.192.481-.346.538-.522.091-.293-.06-.538-.449-.659a.9.9,0,0,0-.781.067l-.135-.219a1.2,1.2,0,0,1,1.014-.082c.514.159.76.524.627.947-.077.24-.219.437-.666.666l-1.127.579Z" transform="translate(-298.853 -96.785)" fill="#fff"/>
        <path id="Path_1578" data-name="Path 1578" d="M405.029,132.075c-.132.423-.543.654-1.156.464a1.39,1.39,0,0,1-.812-.613l.192-.166a1.16,1.16,0,0,0,.695.538c.421.132.721,0,.812-.308s-.058-.572-.529-.721l-.18-.055.06-.195.978-.661-1.3-.406.072-.24,1.634.507-.058.185-1.007.692c.543.2.721.57.6.978" transform="translate(-306.183 -98.535)" fill="#fff"/>
        <rect id="Rectangle_572" data-name="Rectangle 572" width="1.156" height="21.314" transform="translate(78.181 31.178) rotate(-72.706)" fill="#fff"/>
        <rect id="Rectangle_573" data-name="Rectangle 573" width="1.156" height="10.931" transform="translate(87.411 36.469) rotate(-72.706)" fill="#fff"/>
        <g id="Group_570" data-name="Group 570" transform="translate(60.114 11.148)" opacity="0.5">
          <g id="Group_569" data-name="Group 569">
            <g id="Group_568" data-name="Group 568" clip-path="url(#clip-path-3)">
              <path id="Path_1579" data-name="Path 1579" d="M252.942,46.436l6.231,1.968a1.188,1.188,0,0,1,.775,1.49l-1.289,4.083a1.187,1.187,0,0,1-1.49.775l-6.231-1.968a1.188,1.188,0,0,1-.775-1.49l1.289-4.083a1.188,1.188,0,0,1,1.49-.775" transform="translate(-250.107 -46.38)" fill="#ebebeb"/>
            </g>
          </g>
        </g>
        <path id="Path_1580" data-name="Path 1580" d="M252.76,55.471l.127-.408,4.4,1.368a.963.963,0,1,0,.574-1.839l-4.4-1.37.127-.409,4.4,1.368a1.394,1.394,0,0,1-.829,2.661Z" transform="translate(-192.008 -40.119)" fill="#e0e0e0"/>
        <rect id="Rectangle_575" data-name="Rectangle 575" width="0.428" height="3.161" transform="matrix(0.298, -0.954, 0.954, 0.298, 66.615, 15.941)" fill="#e0e0e0"/>
        <rect id="Rectangle_576" data-name="Rectangle 576" width="1.973" height="23.002" transform="translate(64.24 7.684) rotate(-72.71)" fill="#fff"/>
        <path id="Path_1581" data-name="Path 1581" d="M406.773,62.784l2.974.926a.757.757,0,0,1,.5.948l-.926,2.974a.757.757,0,0,1-.948.5L405.4,67.2a.757.757,0,0,1-.5-.948l.926-2.974a.757.757,0,0,1,.948-.5" transform="translate(-307.554 -47.668)" fill="#fff"/>
        <path id="Path_1582" data-name="Path 1582" d="M109,443.115c0,.034-24.4.063-54.5.063S0,443.137,0,443.115s24.4-.062,54.5-.062,54.5.014,54.5.063" transform="translate(0 -336.564)" fill="#263238"/>
        <path id="Path_1583" data-name="Path 1583" d="M15.355,305.4H48.94a2.106,2.106,0,0,1,2.105,2.105v28.917a2.105,2.105,0,0,1-2.105,2.105H15.355a2.105,2.105,0,0,1-2.105-2.105V307.507a2.106,2.106,0,0,1,2.105-2.105" transform="translate(-10.065 -231.998)" fill="#455a64"/>
        <g id="Group_573" data-name="Group 573" transform="translate(3.185 94.166)" opacity="0.3">
          <g id="Group_572" data-name="Group 572">
            <g id="Group_571" data-name="Group 571" clip-path="url(#clip-path-4)">
              <path id="Path_1584" data-name="Path 1584" d="M13.25,392.744H27.017a.961.961,0,0,0,.961-.961H13.288Z" transform="translate(-13.25 -391.783)"/>
            </g>
          </g>
        </g>
        <path id="Path_1585" data-name="Path 1585" d="M10.239,356.522H24.146a1.2,1.2,0,0,1,1.2,1.2v6.2a1.2,1.2,0,0,1-1.2,1.2H10.239a1.2,1.2,0,0,1-1.2-1.2v-6.2a1.2,1.2,0,0,1,1.2-1.2" transform="translate(-6.867 -270.831)" fill="#455a64"/>
        <path id="Path_1586" data-name="Path 1586" d="M23.959,364.961a1.443,1.443,0,0,0,.466-.108,1.266,1.266,0,0,0,.464-.358,1.2,1.2,0,0,0,.24-.736c0-1.2-.012-2.959-.019-5.115v-.829a3.511,3.511,0,0,0-.014-.421,1.121,1.121,0,0,0-.132-.4,1.151,1.151,0,0,0-.651-.536,1.355,1.355,0,0,0-.442-.055H10.045a1.137,1.137,0,0,0-.961.546,1.077,1.077,0,0,0-.163.546v6.365a1.141,1.141,0,0,0,.524.858,1.164,1.164,0,0,0,.481.166c.163.017.346,0,.519,0h6.523l5.115.022h1.392l-1.392.012L16.957,365H9.905a1.225,1.225,0,0,1-.522-.185,1.254,1.254,0,0,1-.584-.93c-.014-.377,0-.738,0-1.115V357.5a1.234,1.234,0,0,1,.18-.606,1.266,1.266,0,0,1,1.072-.589H23.877a1.44,1.44,0,0,1,.481.06,1.25,1.25,0,0,1,.707.586,1.223,1.223,0,0,1,.139.428,3.369,3.369,0,0,1,.014.435v.829c0,2.163-.017,3.9-.022,5.117a1.2,1.2,0,0,1-1.1,1.2Z" transform="translate(-6.68 -270.667)" fill="#263238"/>
        <g id="Group_576" data-name="Group 576" transform="translate(12.044 88.508)" opacity="0.3">
          <g id="Group_575" data-name="Group 575">
            <g id="Group_574" data-name="Group 574" clip-path="url(#clip-path-5)">
              <path id="Path_1587" data-name="Path 1587" d="M52.523,368.242a2.413,2.413,0,1,1-2.413,2.413,2.413,2.413,0,0,1,2.413-2.413" transform="translate(-50.11 -368.242)"/>
            </g>
          </g>
        </g>
        <path id="Path_1588" data-name="Path 1588" d="M50.818,365.449a2.413,2.413,0,1,1,0,3.413,2.413,2.413,0,0,1,0-3.413" transform="translate(-38.067 -277.075)" fill="#ebebeb"/>
        <path id="Path_1589" data-name="Path 1589" d="M54.765,366.992a4.547,4.547,0,0,0-.1-.584,2.4,2.4,0,0,0-.88-1.3,2.358,2.358,0,0,0-2.238-.329,2.227,2.227,0,0,0-.594.32,2.193,2.193,0,0,0-.5.5,2.346,2.346,0,0,0,0,2.781,2.377,2.377,0,0,0,4.15-.6q.038-.1.066-.21a5.844,5.844,0,0,0,.1-.584,1.922,1.922,0,0,1-.053.6,2.389,2.389,0,0,1-.875,1.358,2.423,2.423,0,0,1-1.031.469,2.472,2.472,0,0,1-1.3-.1,2.33,2.33,0,0,1-.627-.334,2.356,2.356,0,0,1-.524-.524,2.456,2.456,0,0,1,0-2.925,2.306,2.306,0,0,1,.524-.524,2.335,2.335,0,0,1,.627-.337,2.474,2.474,0,0,1,1.3-.1,2.427,2.427,0,0,1,1.906,1.827,1.927,1.927,0,0,1,.046.594" transform="translate(-37.892 -276.912)" fill="#263238"/>
        <path id="Path_1590" data-name="Path 1590" d="M352.78,289.386a8.384,8.384,0,1,1-6.809,9.706,8.383,8.383,0,0,1,6.809-9.706" transform="translate(-262.719 -219.734)" fill="#e11941"/>
        <g id="Group_579" data-name="Group 579" transform="translate(83.13 70.08)" opacity="0.1">
          <g id="Group_578" data-name="Group 578">
            <g id="Group_577" data-name="Group 577" clip-path="url(#clip-path-6)">
              <path id="Path_1591" data-name="Path 1591" d="M351.238,291.573a8.378,8.378,0,0,0-4.808,10.83v0s5.593-1.868,6.064-4.591-1.257-6.242-1.257-6.242" transform="translate(-345.868 -291.573)" fill="#fff"/>
            </g>
          </g>
        </g>
        <path id="Path_1592" data-name="Path 1592" d="M357.092,294.93a6.357,6.357,0,1,1-3.633,8.223,6.357,6.357,0,0,1,3.633-8.223" transform="translate(-268.177 -223.716)" fill="#e11941"/>
        <g id="Group_582" data-name="Group 582" transform="translate(84.851 70.784)" opacity="0.2">
          <g id="Group_581" data-name="Group 581">
            <g id="Group_580" data-name="Group 580" clip-path="url(#clip-path-7)">
              <path id="Path_1593" data-name="Path 1593" d="M357.092,294.93a6.357,6.357,0,1,1-3.633,8.223,6.357,6.357,0,0,1,3.633-8.223" transform="translate(-353.028 -294.5)"/>
            </g>
          </g>
        </g>
        <path id="Path_1594" data-name="Path 1594" d="M367.441,302.327a6.288,6.288,0,1,1-8.129-3.6l.005,0a6.288,6.288,0,0,1,8.124,3.605" transform="translate(-269.892 -226.603)" fill="#e11941"/>
        <g id="Group_585" data-name="Group 585" transform="translate(85.394 71.698)" opacity="0.2">
          <g id="Group_584" data-name="Group 584">
            <g id="Group_583" data-name="Group 583" clip-path="url(#clip-path-8)">
              <path id="Path_1595" data-name="Path 1595" d="M367.441,302.327a6.288,6.288,0,1,1-8.129-3.6l.005,0a6.288,6.288,0,0,1,8.124,3.605" transform="translate(-355.286 -298.301)" fill="#fff"/>
            </g>
          </g>
        </g>
        <path id="Path_1596" data-name="Path 1596" d="M372.981,311.728l-.577-1.5a3.366,3.366,0,0,1,.88-.1,2.774,2.774,0,0,1,.464.094v-.055l.024-.63v-.144l-.375-.178-.108.106a3.031,3.031,0,0,0-1.2.106l-.32-.827-.336-.108.079.207-.351.137.322.841c-1.118.558-1.413,1.442-1.122,2.19.4,1.034,1.387.961,2.291.844l.572,1.488a3.049,3.049,0,0,1-1.707,0l-.046.88a3.476,3.476,0,0,0,2.06-.082l.24.623-.288.118.365.084.611-.24-.32-.834c1.122-.567,1.428-1.442,1.137-2.2-.389-1.024-1.389-.937-2.293-.822m-.668.079c-.481.038-.863,0-1-.358s0-.683.493-.961Zm1.521,2.139-.507-1.317c.5-.046.889,0,1.029.363C374.478,313.314,374.346,313.656,373.834,313.947Z" transform="translate(-281.262 -234.346)" fill="#e11941"/>
        <g id="Group_588" data-name="Group 588" transform="translate(88.992 74.147)" opacity="0.3">
          <g id="Group_587" data-name="Group 587">
            <g id="Group_586" data-name="Group 586" clip-path="url(#clip-path-9)">
              <path id="Path_1597" data-name="Path 1597" d="M372.981,311.728l-.577-1.5a3.366,3.366,0,0,1,.88-.1,2.774,2.774,0,0,1,.464.094v-.055l.024-.63v-.144l-.375-.178-.108.106a3.031,3.031,0,0,0-1.2.106l-.32-.827-.336-.108.079.207-.351.137.322.841c-1.118.558-1.413,1.442-1.122,2.19.4,1.034,1.387.961,2.291.844l.572,1.488a3.049,3.049,0,0,1-1.707,0l-.046.88a3.476,3.476,0,0,0,2.06-.082l.24.623-.288.118.365.084.611-.24-.32-.834c1.122-.567,1.428-1.442,1.137-2.2-.389-1.024-1.389-.937-2.293-.822m-.668.079c-.481.038-.863,0-1-.358s0-.683.493-.961Zm1.521,2.139-.507-1.317c.5-.046.889,0,1.029.363C374.478,313.314,374.346,313.656,373.834,313.947Z" transform="translate(-370.254 -308.493)"/>
            </g>
          </g>
        </g>
        <path id="Path_1598" data-name="Path 1598" d="M372.8,314.656l.322.834-.611.24-.317-.827a3.468,3.468,0,0,1-2.062.084l.046-.88a3.07,3.07,0,0,0,1.706,0l-.572-1.488c-.9.115-1.892.187-2.288-.846-.293-.759,0-1.632,1.12-2.19l-.322-.841.61-.24.317.827a3.412,3.412,0,0,1,1.682-.127l-.017.87a3.317,3.317,0,0,0-1.36.06l.579,1.5c.9-.118,1.9-.2,2.3.832.3.75-.007,1.62-1.134,2.187m-1.834-2.949-.51-1.327c-.5.286-.618.639-.481.961S370.485,311.748,370.966,311.707Zm2.045,1.187c-.142-.365-.534-.411-1.029-.365l.507,1.317C373,313.555,373.134,313.214,373.011,312.894Z" transform="translate(-280.247 -234.353)" fill="#e11941"/>
        <path id="Path_1599" data-name="Path 1599" d="M349.772,329.167s-.022-.014-.06-.046l-.163-.144q-.126-.114-.24-.24c-.091-.1-.2-.2-.312-.329l-.173-.2c-.06-.07-.115-.149-.178-.226-.125-.154-.24-.332-.368-.514a9.051,9.051,0,0,1-.687-1.276,9.325,9.325,0,0,1-.457-1.377c-.046-.218-.094-.425-.12-.622-.014-.1-.031-.192-.041-.284s-.017-.178-.026-.262c-.019-.168-.019-.322-.024-.454a3.289,3.289,0,0,1,0-.343v-.216a.038.038,0,1,1,.014,0v.558a3.217,3.217,0,0,0,.036.452c0,.084.019.171.029.262s.029.183.043.281c.029.195.079.4.127.615a9.018,9.018,0,0,0,.457,1.365,9.379,9.379,0,0,0,.678,1.271c.125.183.24.361.361.514.06.077.115.156.175.226l.168.2c.106.13.214.24.305.334s.171.178.24.24l.156.151c.043.041.063.06.06.063" transform="translate(-263.514 -245.029)" fill="#fff"/>
        <path id="Path_1600" data-name="Path 1600" d="M370.339,319.186a.542.542,0,0,1-.24-.106,1.006,1.006,0,0,1-.382-.5.984.984,0,0,1,0-.63.514.514,0,0,1,.123-.24,1.645,1.645,0,0,0-.079.24,1.041,1.041,0,0,0,.019.6,1.061,1.061,0,0,0,.351.481,2.3,2.3,0,0,0,.209.156" transform="translate(-280.815 -241.35)" fill="#fff"/>
        <path id="Path_1601" data-name="Path 1601" d="M373.743,310.664a.6.6,0,0,1-.123-.24c-.051-.142-.082-.24-.065-.255s.07.1.123.24.082.25.065.255" transform="translate(-283.767 -235.618)" fill="#fff"/>
        <path id="Path_1602" data-name="Path 1602" d="M359.789,297.563a1.029,1.029,0,0,1-.192.067,2.049,2.049,0,0,0-.228.075c-.089.031-.19.062-.3.111s-.228.091-.351.151-.257.125-.394.2a6.834,6.834,0,0,0-.844.553,7.242,7.242,0,0,0-.75.673c-.106.115-.207.221-.293.329s-.168.207-.24.3-.13.18-.183.257-.1.144-.13.2a1.169,1.169,0,0,1-.115.171,1.319,1.319,0,0,1,.094-.183,2.192,2.192,0,0,1,.123-.209c.051-.077.106-.171.175-.264s.144-.2.24-.31.187-.219.291-.334a6.645,6.645,0,0,1,.755-.685,6.908,6.908,0,0,1,.856-.553c.139-.07.269-.139.4-.195s.24-.1.358-.147.212-.072.3-.1a2.177,2.177,0,0,1,.24-.065,1.28,1.28,0,0,1,.187-.043" transform="translate(-270.26 -226.043)" fill="#fff"/>
        <path id="Path_1603" data-name="Path 1603" d="M384.773,353.473a.7.7,0,0,1-.125.091,3.782,3.782,0,0,1-.363.216,6.036,6.036,0,0,1-2.668.721h-.423a.911.911,0,0,1-.154-.014.716.716,0,0,1,.154,0c.1,0,.24,0,.421-.014a7.1,7.1,0,0,0,1.363-.224,6.981,6.981,0,0,0,1.288-.5c.156-.079.284-.149.368-.2a.768.768,0,0,1,.139-.084" transform="translate(-289.456 -268.515)" fill="#fff"/>
        <rect id="Rectangle_583" data-name="Rectangle 583" width="17.748" height="3.579" transform="translate(83.359 85.744)" fill="#e11941"/>
        <path id="Path_1604" data-name="Path 1604" d="M415.667,356.992a19.618,19.618,0,0,0,0,3.471,10.039,10.039,0,0,0,.077-1.735,9.758,9.758,0,0,0-.077-1.735" transform="translate(-315.702 -271.188)" fill="#263238"/>
        <path id="Path_1605" data-name="Path 1605" d="M408.827,356.992a19.61,19.61,0,0,0,0,3.471,9.769,9.769,0,0,0,.077-1.735,10.046,10.046,0,0,0-.077-1.735" transform="translate(-310.506 -271.188)" fill="#263238"/>
        <path id="Path_1606" data-name="Path 1606" d="M402.057,356.992a19.626,19.626,0,0,0,0,3.471,19.618,19.618,0,0,0,0-3.471" transform="translate(-305.363 -271.188)" fill="#263238"/>
        <path id="Path_1607" data-name="Path 1607" d="M395.327,356.992a19.626,19.626,0,0,0,0,3.471,9.762,9.762,0,0,0,.077-1.735,9.493,9.493,0,0,0-.077-1.735" transform="translate(-300.25 -271.188)" fill="#263238"/>
        <path id="Path_1608" data-name="Path 1608" d="M388.6,356.992a19.61,19.61,0,0,0,0,3.471,19.626,19.626,0,0,0,0-3.471" transform="translate(-295.138 -271.188)" fill="#263238"/>
        <path id="Path_1609" data-name="Path 1609" d="M381.867,356.992a19.618,19.618,0,0,0,0,3.471,19.61,19.61,0,0,0,0-3.471" transform="translate(-290.026 -271.188)" fill="#263238"/>
        <path id="Path_1610" data-name="Path 1610" d="M375.137,356.992a19.595,19.595,0,0,0,0,3.471,19.626,19.626,0,0,0,0-3.471" transform="translate(-284.913 -271.188)" fill="#263238"/>
        <path id="Path_1611" data-name="Path 1611" d="M368.407,356.992a19.626,19.626,0,0,0,0,3.471,19.61,19.61,0,0,0,0-3.471" transform="translate(-279.801 -271.188)" fill="#263238"/>
        <path id="Path_1612" data-name="Path 1612" d="M361.677,356.992a19.61,19.61,0,0,0,0,3.471,19.626,19.626,0,0,0,0-3.471" transform="translate(-274.688 -271.188)" fill="#263238"/>
        <path id="Path_1613" data-name="Path 1613" d="M354.947,356.992a19.618,19.618,0,0,0,0,3.471,19.618,19.618,0,0,0,0-3.471" transform="translate(-269.576 -271.188)" fill="#263238"/>
        <path id="Path_1614" data-name="Path 1614" d="M348.217,356.992a19.618,19.618,0,0,0,0,3.471,9.764,9.764,0,0,0,.077-1.735,10.037,10.037,0,0,0-.077-1.735" transform="translate(-264.463 -271.188)" fill="#263238"/>
        <g id="Group_591" data-name="Group 591" transform="translate(83.643 85.749)" opacity="0.3">
          <g id="Group_590" data-name="Group 590">
            <g id="Group_589" data-name="Group 589" clip-path="url(#clip-path-10)">
              <path id="Path_1615" data-name="Path 1615" d="M365.178,356.763a64.733,64.733,0,0,1-17.178,0Z" transform="translate(-348 -356.763)"/>
            </g>
          </g>
        </g>
        <path id="Path_1616" data-name="Path 1616" d="M346.76,356.55c0,.043,3.966.077,8.857.077s8.859-.034,8.859-.077-3.966-.077-8.859-.077-8.857.034-8.857.077" transform="translate(-263.415 -270.794)" fill="#263238"/>
        <rect id="Rectangle_585" data-name="Rectangle 585" width="17.748" height="3.579" transform="translate(82.96 89.263)" fill="#e11941"/>
        <path id="Path_1617" data-name="Path 1617" d="M414.017,371.642a19.59,19.59,0,0,0,0,3.468,9.757,9.757,0,0,0,.077-1.735,9.994,9.994,0,0,0-.077-1.733" transform="translate(-314.448 -282.317)" fill="#263238"/>
        <path id="Path_1618" data-name="Path 1618" d="M407.167,371.642a19.582,19.582,0,0,0,0,3.468,19.6,19.6,0,0,0,0-3.468" transform="translate(-309.245 -282.317)" fill="#263238"/>
        <path id="Path_1619" data-name="Path 1619" d="M400.4,371.642a19.6,19.6,0,0,0,0,3.468,10.041,10.041,0,0,0,.077-1.735,9.719,9.719,0,0,0-.077-1.733" transform="translate(-304.102 -282.317)" fill="#263238"/>
        <path id="Path_1620" data-name="Path 1620" d="M393.667,371.642a19.59,19.59,0,0,0,0,3.468,19.575,19.575,0,0,0,0-3.468" transform="translate(-298.989 -282.317)" fill="#263238"/>
        <path id="Path_1621" data-name="Path 1621" d="M386.937,371.642a19.59,19.59,0,0,0,0,3.468,19.582,19.582,0,0,0,0-3.468" transform="translate(-293.877 -282.317)" fill="#263238"/>
        <path id="Path_1622" data-name="Path 1622" d="M380.207,371.642a19.582,19.582,0,0,0,0,3.468,19.59,19.59,0,0,0,0-3.468" transform="translate(-288.765 -282.317)" fill="#263238"/>
        <path id="Path_1623" data-name="Path 1623" d="M373.517,371.642a19.606,19.606,0,0,0,0,3.468,9.764,9.764,0,0,0,.077-1.735,10.937,10.937,0,0,0-.077-1.733" transform="translate(-283.683 -282.317)" fill="#263238"/>
        <path id="Path_1624" data-name="Path 1624" d="M366.747,371.642a19.59,19.59,0,0,0,0,3.468,19.59,19.59,0,0,0,0-3.468" transform="translate(-278.54 -282.317)" fill="#263238"/>
        <path id="Path_1625" data-name="Path 1625" d="M360.017,371.642a19.59,19.59,0,0,0,0,3.468,19.575,19.575,0,0,0,0-3.468" transform="translate(-273.427 -282.317)" fill="#263238"/>
        <path id="Path_1626" data-name="Path 1626" d="M353.287,371.642a19.59,19.59,0,0,0,0,3.468,9.754,9.754,0,0,0,.077-1.735,8.535,8.535,0,0,0-.077-1.733" transform="translate(-268.315 -282.317)" fill="#263238"/>
        <path id="Path_1627" data-name="Path 1627" d="M346.517,371.642a19.582,19.582,0,0,0,0,3.468,9.766,9.766,0,0,0,.077-1.735,8.751,8.751,0,0,0-.077-1.733" transform="translate(-263.172 -282.317)" fill="#263238"/>
        <g id="Group_594" data-name="Group 594" transform="translate(83.244 89.268)" opacity="0.3">
          <g id="Group_593" data-name="Group 593">
            <g id="Group_592" data-name="Group 592" clip-path="url(#clip-path-11)">
              <path id="Path_1628" data-name="Path 1628" d="M363.52,371.4a64.751,64.751,0,0,1-17.18,0Z" transform="translate(-346.34 -371.402)"/>
            </g>
          </g>
        </g>
        <path id="Path_1629" data-name="Path 1629" d="M345.14,371.189c0,.043,3.966.077,8.859.077s8.857-.034,8.857-.077-3.963-.077-8.857-.077-8.859.048-8.859.077" transform="translate(-262.185 -281.914)" fill="#263238"/>
        <rect id="Rectangle_587" data-name="Rectangle 587" width="17.748" height="3.579" transform="translate(84.648 92.726)" fill="#e11941"/>
        <path id="Path_1630" data-name="Path 1630" d="M421.027,386.043a19.617,19.617,0,0,0,0,3.471,9.768,9.768,0,0,0,.077-1.735,10.046,10.046,0,0,0-.077-1.735" transform="translate(-319.773 -293.256)" fill="#263238"/>
        <path id="Path_1631" data-name="Path 1631" d="M414.177,386.043a19.6,19.6,0,0,0,0,3.471,19.617,19.617,0,0,0,0-3.471" transform="translate(-314.57 -293.256)" fill="#263238"/>
        <path id="Path_1632" data-name="Path 1632" d="M407.407,386.043a19.6,19.6,0,0,0,0,3.471,10.044,10.044,0,0,0,.077-1.735,9.767,9.767,0,0,0-.077-1.735" transform="translate(-309.427 -293.256)" fill="#263238"/>
        <path id="Path_1633" data-name="Path 1633" d="M400.677,386.043a19.625,19.625,0,0,0,0,3.471,10.044,10.044,0,0,0,.077-1.735,9.76,9.76,0,0,0-.077-1.735" transform="translate(-304.315 -293.256)" fill="#263238"/>
        <path id="Path_1634" data-name="Path 1634" d="M393.947,386.043a19.625,19.625,0,0,0,0,3.471,10.029,10.029,0,0,0,.077-1.735,9.753,9.753,0,0,0-.077-1.735" transform="translate(-299.202 -293.256)" fill="#263238"/>
        <path id="Path_1635" data-name="Path 1635" d="M387.217,386.043a19.617,19.617,0,0,0,0,3.471,10.031,10.031,0,0,0,.077-1.735,9.754,9.754,0,0,0-.077-1.735" transform="translate(-294.09 -293.256)" fill="#263238"/>
        <path id="Path_1636" data-name="Path 1636" d="M380.517,386.043a19.617,19.617,0,0,0,0,3.471,9.758,9.758,0,0,0,.077-1.735,10.655,10.655,0,0,0-.077-1.735" transform="translate(-289 -293.256)" fill="#263238"/>
        <path id="Path_1637" data-name="Path 1637" d="M373.757,386.043a19.61,19.61,0,0,0,0,3.471,19.617,19.617,0,0,0,0-3.471" transform="translate(-283.865 -293.256)" fill="#263238"/>
        <path id="Path_1638" data-name="Path 1638" d="M367.027,386.043a19.61,19.61,0,0,0,0,3.471,19.617,19.617,0,0,0,0-3.471" transform="translate(-278.752 -293.256)" fill="#263238"/>
        <path id="Path_1639" data-name="Path 1639" d="M360.3,386.043a19.61,19.61,0,0,0,0,3.471,9.758,9.758,0,0,0,.077-1.735,8.781,8.781,0,0,0-.077-1.735" transform="translate(-273.64 -293.256)" fill="#263238"/>
        <path id="Path_1640" data-name="Path 1640" d="M353.567,386.043a19.617,19.617,0,0,0,0,3.471,19.617,19.617,0,0,0,0-3.471" transform="translate(-268.528 -293.256)" fill="#263238"/>
        <g id="Group_597" data-name="Group 597" transform="translate(84.929 92.731)" opacity="0.3">
          <g id="Group_596" data-name="Group 596">
            <g id="Group_595" data-name="Group 595" clip-path="url(#clip-path-11)">
              <path id="Path_1641" data-name="Path 1641" d="M370.53,385.813a64.754,64.754,0,0,1-17.18,0Z" transform="translate(-353.35 -385.813)"/>
            </g>
          </g>
        </g>
        <path id="Path_1642" data-name="Path 1642" d="M352.15,385.6c0,.043,3.966.077,8.859.077s8.857-.034,8.857-.077-3.963-.077-8.857-.077-8.859.036-8.859.077" transform="translate(-267.51 -292.861)" fill="#263238"/>
        <rect id="Rectangle_589" data-name="Rectangle 589" width="17.748" height="3.442" transform="translate(82.569 96.279)" fill="#e11941"/>
        <path id="Path_1643" data-name="Path 1643" d="M412.377,400.823a18.129,18.129,0,0,0,0,3.336,9.035,9.035,0,0,0,.077-1.668,10.169,10.169,0,0,0-.077-1.668" transform="translate(-313.202 -304.484)" fill="#263238"/>
        <path id="Path_1644" data-name="Path 1644" d="M405.517,400.823a18.114,18.114,0,0,0,0,3.336,9.037,9.037,0,0,0,.077-1.668,8.791,8.791,0,0,0-.077-1.668" transform="translate(-307.991 -304.484)" fill="#263238"/>
        <path id="Path_1645" data-name="Path 1645" d="M398.757,400.823a18.129,18.129,0,0,0,0,3.336,9.285,9.285,0,0,0,.077-1.668,9.032,9.032,0,0,0-.077-1.668" transform="translate(-302.856 -304.484)" fill="#263238"/>
        <path id="Path_1646" data-name="Path 1646" d="M392.027,400.823a18.114,18.114,0,0,0,0,3.336,9.3,9.3,0,0,0,.077-1.668,9.037,9.037,0,0,0-.077-1.668" transform="translate(-297.744 -304.484)" fill="#263238"/>
        <path id="Path_1647" data-name="Path 1647" d="M385.3,400.823a18.121,18.121,0,0,0,0,3.336,9.293,9.293,0,0,0,.077-1.668,8.129,8.129,0,0,0-.077-1.668" transform="translate(-292.631 -304.484)" fill="#263238"/>
        <path id="Path_1648" data-name="Path 1648" d="M378.567,400.823a18.129,18.129,0,0,0,0,3.336,18.136,18.136,0,0,0,0-3.336" transform="translate(-287.519 -304.484)" fill="#263238"/>
        <path id="Path_1649" data-name="Path 1649" d="M371.837,400.823a18.136,18.136,0,0,0,0,3.336,18.121,18.121,0,0,0,0-3.336" transform="translate(-282.406 -304.484)" fill="#263238"/>
        <path id="Path_1650" data-name="Path 1650" d="M365.107,400.823a18.129,18.129,0,0,0,0,3.336,18.121,18.121,0,0,0,0-3.336" transform="translate(-277.294 -304.484)" fill="#263238"/>
        <path id="Path_1651" data-name="Path 1651" d="M358.377,400.823a18.107,18.107,0,0,0,0,3.336,9.042,9.042,0,0,0,.077-1.668,10.178,10.178,0,0,0-.077-1.668" transform="translate(-272.181 -304.484)" fill="#263238"/>
        <path id="Path_1652" data-name="Path 1652" d="M351.647,400.823a18.129,18.129,0,0,0,0,3.336,18.121,18.121,0,0,0,0-3.336" transform="translate(-267.069 -304.484)" fill="#263238"/>
        <path id="Path_1653" data-name="Path 1653" d="M344.917,400.823a18.129,18.129,0,0,0,0,3.336,18.129,18.129,0,0,0,0-3.336" transform="translate(-261.957 -304.484)" fill="#263238"/>
        <g id="Group_600" data-name="Group 600" transform="translate(82.85 96.284)" opacity="0.3">
          <g id="Group_599" data-name="Group 599">
            <g id="Group_598" data-name="Group 598" clip-path="url(#clip-path-13)">
              <path id="Path_1654" data-name="Path 1654" d="M361.88,400.593a50.776,50.776,0,0,1-17.18,0Z" transform="translate(-344.7 -400.593)"/>
            </g>
          </g>
        </g>
        <path id="Path_1655" data-name="Path 1655" d="M343.5,400.387c0,.043,3.966.077,8.859.077s8.857-.034,8.857-.077-3.954-.074-8.857-.074-8.859.031-8.859.074" transform="translate(-260.939 -304.096)" fill="#263238"/>
        <rect id="Rectangle_591" data-name="Rectangle 591" width="17.748" height="3.442" transform="translate(83.708 99.723)" fill="#e11941"/>
        <path id="Path_1656" data-name="Path 1656" d="M417.117,415.142a18.148,18.148,0,0,0,0,3.339,9.153,9.153,0,0,0,.079-1.668,8.938,8.938,0,0,0-.079-1.671" transform="translate(-316.803 -315.361)" fill="#263238"/>
        <path id="Path_1657" data-name="Path 1657" d="M410.277,415.142a18.155,18.155,0,0,0,0,3.339,9.028,9.028,0,0,0,.077-1.668,9.322,9.322,0,0,0-.077-1.671" transform="translate(-311.607 -315.361)" fill="#263238"/>
        <path id="Path_1658" data-name="Path 1658" d="M403.517,415.142a18.162,18.162,0,0,0,0,3.339,9.033,9.033,0,0,0,.077-1.668,9.327,9.327,0,0,0-.077-1.671" transform="translate(-306.472 -315.361)" fill="#263238"/>
        <path id="Path_1659" data-name="Path 1659" d="M396.777,415.142a18.148,18.148,0,0,0,0,3.339,18.155,18.155,0,0,0,0-3.339" transform="translate(-301.352 -315.361)" fill="#263238"/>
        <path id="Path_1660" data-name="Path 1660" d="M390.047,415.142a18.155,18.155,0,0,0,0,3.339,18.155,18.155,0,0,0,0-3.339" transform="translate(-296.24 -315.361)" fill="#263238"/>
        <path id="Path_1661" data-name="Path 1661" d="M383.317,415.142a18.162,18.162,0,0,0,0,3.339,9.033,9.033,0,0,0,.077-1.668,8.59,8.59,0,0,0-.077-1.671" transform="translate(-291.127 -315.361)" fill="#263238"/>
        <path id="Path_1662" data-name="Path 1662" d="M376.587,415.142a18.155,18.155,0,0,0,0,3.339,18.155,18.155,0,0,0,0-3.339" transform="translate(-286.015 -315.361)" fill="#263238"/>
        <path id="Path_1663" data-name="Path 1663" d="M369.857,415.142a18.148,18.148,0,0,0,0,3.339,18.162,18.162,0,0,0,0-3.339" transform="translate(-280.902 -315.361)" fill="#263238"/>
        <path id="Path_1664" data-name="Path 1664" d="M363.127,415.142a18.155,18.155,0,0,0,0,3.339,18.155,18.155,0,0,0,0-3.339" transform="translate(-275.79 -315.361)" fill="#263238"/>
        <path id="Path_1665" data-name="Path 1665" d="M356.4,415.142a18.148,18.148,0,0,0,0,3.339,18.155,18.155,0,0,0,0-3.339" transform="translate(-270.677 -315.361)" fill="#263238"/>
        <path id="Path_1666" data-name="Path 1666" d="M349.667,415.142a18.155,18.155,0,0,0,0,3.339,9.031,9.031,0,0,0,.077-1.668,9.329,9.329,0,0,0-.077-1.671" transform="translate(-265.565 -315.361)" fill="#263238"/>
        <g id="Group_603" data-name="Group 603" transform="translate(83.991 99.728)" opacity="0.3">
          <g id="Group_602" data-name="Group 602">
            <g id="Group_601" data-name="Group 601" clip-path="url(#clip-path-14)">
              <path id="Path_1667" data-name="Path 1667" d="M366.628,414.922a44.946,44.946,0,0,1-17.178,0Z" transform="translate(-349.45 -414.922)"/>
            </g>
          </g>
        </g>
        <path id="Path_1668" data-name="Path 1668" d="M348.25,414.71c0,.043,3.966.077,8.857.077s8.859-.034,8.859-.077-3.966-.077-8.859-.077-8.857.034-8.857.077" transform="translate(-264.547 -314.975)" fill="#263238"/>
        <rect id="Rectangle_593" data-name="Rectangle 593" width="17.748" height="3.442" transform="translate(82.693 103.119)" fill="#e11941"/>
        <path id="Path_1669" data-name="Path 1669" d="M412.907,429.313a9.04,9.04,0,0,0-.077,1.668,9.267,9.267,0,0,0,.077,1.682,18.285,18.285,0,0,0,0-3.351" transform="translate(-313.605 -326.126)" fill="#263238"/>
        <path id="Path_1670" data-name="Path 1670" d="M406.057,429.313a9.036,9.036,0,0,0-.077,1.668,9.264,9.264,0,0,0,.077,1.682,9.13,9.13,0,0,0,.077-1.682,8.9,8.9,0,0,0-.077-1.668" transform="translate(-308.401 -326.126)" fill="#263238"/>
        <path id="Path_1671" data-name="Path 1671" d="M399.287,429.313a9.3,9.3,0,0,0-.077,1.668,9.532,9.532,0,0,0,.077,1.682,9.392,9.392,0,0,0,.077-1.682,7.825,7.825,0,0,0-.077-1.668" transform="translate(-303.259 -326.126)" fill="#263238"/>
        <path id="Path_1672" data-name="Path 1672" d="M392.517,429.313a9.033,9.033,0,0,0-.077,1.668,9.261,9.261,0,0,0,.077,1.682,9.134,9.134,0,0,0,.077-1.682,8.02,8.02,0,0,0-.077-1.668" transform="translate(-298.116 -326.126)" fill="#263238"/>
        <path id="Path_1673" data-name="Path 1673" d="M385.827,429.313a9.033,9.033,0,0,0-.077,1.668,9.261,9.261,0,0,0,.077,1.682,9.135,9.135,0,0,0,.077-1.682,8.91,8.91,0,0,0-.077-1.668" transform="translate(-293.034 -326.126)" fill="#263238"/>
        <path id="Path_1674" data-name="Path 1674" d="M379.1,429.313a9.032,9.032,0,0,0-.077,1.668,9.259,9.259,0,0,0,.077,1.682,9.13,9.13,0,0,0,.077-1.682,8.9,8.9,0,0,0-.077-1.668" transform="translate(-287.921 -326.126)" fill="#263238"/>
        <path id="Path_1675" data-name="Path 1675" d="M372.367,429.313a9.036,9.036,0,0,0-.077,1.668,9.264,9.264,0,0,0,.077,1.682,9.125,9.125,0,0,0,.077-1.682,9.707,9.707,0,0,0-.077-1.668" transform="translate(-282.809 -326.126)" fill="#263238"/>
        <path id="Path_1676" data-name="Path 1676" d="M365.637,429.313a9.033,9.033,0,0,0-.077,1.668,9.261,9.261,0,0,0,.077,1.682,9.132,9.132,0,0,0,.077-1.682,8.907,8.907,0,0,0-.077-1.668" transform="translate(-277.697 -326.126)" fill="#263238"/>
        <path id="Path_1677" data-name="Path 1677" d="M358.907,429.313a9.028,9.028,0,0,0-.077,1.668,9.256,9.256,0,0,0,.077,1.682,9.14,9.14,0,0,0,.077-1.682,8.915,8.915,0,0,0-.077-1.668" transform="translate(-272.584 -326.126)" fill="#263238"/>
        <path id="Path_1678" data-name="Path 1678" d="M352.177,429.313a9.03,9.03,0,0,0-.077,1.668,9.257,9.257,0,0,0,.077,1.682,9.14,9.14,0,0,0,.077-1.682,8.915,8.915,0,0,0-.077-1.668" transform="translate(-267.472 -326.126)" fill="#263238"/>
        <path id="Path_1679" data-name="Path 1679" d="M345.447,429.313a9.032,9.032,0,0,0-.077,1.668,9.259,9.259,0,0,0,.077,1.682,9.134,9.134,0,0,0,.077-1.682,8.908,8.908,0,0,0-.077-1.668" transform="translate(-262.359 -326.126)" fill="#263238"/>
        <g id="Group_606" data-name="Group 606" transform="translate(82.989 103.124)" opacity="0.3">
          <g id="Group_605" data-name="Group 605">
            <g id="Group_604" data-name="Group 604" clip-path="url(#clip-path-13)">
              <path id="Path_1680" data-name="Path 1680" d="M362.46,429.052a50.779,50.779,0,0,1-17.18,0Z" transform="translate(-345.28 -429.052)"/>
            </g>
          </g>
        </g>
        <path id="Path_1681" data-name="Path 1681" d="M344.03,428.839c0,.041,3.966.077,8.859.077s8.857-.036,8.857-.077-3.966-.077-8.857-.077-8.859.034-8.859.077" transform="translate(-261.341 -325.708)" fill="#263238"/>
        <path id="Path_1682" data-name="Path 1682" d="M417.282,377.566v-.9c0-.591-.012-1.442-.019-2.492v-.038h1.017l-.041.043v-3.444l.053.053h-1.2v-3.528h2.137l-.058.058v-3.646l.053.055h-1.735v-3.432h.481l-.038.041v-3.507a.34.34,0,0,1,0-.063.209.209,0,0,1,0,.063v.183c0,.168,0,.4.017.7,0,.623.026,1.512.046,2.62v.041h-.481l.041-.041c0,.961,0,2.091.012,3.336l-.053-.05h1.738v3.759h-2.139l.06-.058v3.415l-.055-.055h1.2v3.54h-1.022l.038-.038c0,1.055-.012,1.9-.017,2.492v.844a.182.182,0,0,1-.034.051" transform="translate(-316.841 -271.014)" fill="#263238"/>
        <path id="Path_1683" data-name="Path 1683" d="M398.8,210.7a7.3,7.3,0,1,1-7.554-7.042A7.3,7.3,0,0,1,398.8,210.7" transform="translate(-291.855 -154.705)" fill="#e11941"/>
        <g id="Group_609" data-name="Group 609" transform="translate(92.344 48.953)" opacity="0.1">
          <g id="Group_608" data-name="Group 608">
            <g id="Group_607" data-name="Group 607" clip-path="url(#clip-path-16)">
              <path id="Path_1684" data-name="Path 1684" d="M391.245,203.673a7.3,7.3,0,0,0-7.04,7.554s5.134.05,6.295-2.06.745-5.495.745-5.495" transform="translate(-384.201 -203.673)" fill="#fff"/>
            </g>
          </g>
        </g>
        <path id="Path_1685" data-name="Path 1685" d="M402.09,215.834a5.55,5.55,0,1,1-5.742-5.353,5.55,5.55,0,0,1,5.742,5.353v0" transform="translate(-297.017 -159.888)" fill="#e11941"/>
        <g id="Group_612" data-name="Group 612" transform="translate(93.977 50.589)" opacity="0.2">
          <g id="Group_611" data-name="Group 611">
            <g id="Group_610" data-name="Group 610" clip-path="url(#clip-path-17)">
              <path id="Path_1686" data-name="Path 1686" d="M402.09,215.834a5.55,5.55,0,1,1-5.742-5.353,5.55,5.55,0,0,1,5.742,5.353v0" transform="translate(-390.994 -210.478)"/>
            </g>
          </g>
        </g>
        <path id="Path_1687" data-name="Path 1687" d="M403.24,216.979a5.475,5.475,0,1,1,0-.006Z" transform="translate(-298.004 -160.808)" fill="#e11941"/>
        <g id="Group_615" data-name="Group 615" transform="translate(94.289 50.88)" opacity="0.2">
          <g id="Group_614" data-name="Group 614">
            <g id="Group_613" data-name="Group 613" clip-path="url(#clip-path-18)">
              <path id="Path_1688" data-name="Path 1688" d="M403.24,216.979a5.475,5.475,0,1,1,0-.006Z" transform="translate(-392.293 -211.688)" fill="#fff"/>
            </g>
          </g>
        </g>
        <path id="Path_1689" data-name="Path 1689" d="M408.964,222.678l-.048-1.4a2.8,2.8,0,0,1,.75.168,2.208,2.208,0,0,1,.356.207l.017-.043.2-.512.046-.118-.26-.255-.118.06a2.544,2.544,0,0,0-1.024-.257l-.026-.772-.24-.185v.195h-.329l.026.786c-1.077.142-1.57.776-1.545,1.483.034.961.87,1.185,1.646,1.346l.048,1.387a2.645,2.645,0,0,1-1.406-.481l-.288.721a3.028,3.028,0,0,0,1.728.51l.019.582-.269.014.276.175.57-.022-.029-.777c1.086-.149,1.584-.778,1.56-1.485-.034-.954-.882-1.168-1.658-1.329m-.574-.125c-.406-.1-.709-.24-.721-.579s.19-.562.678-.656Zm.647,2.192-.043-1.226c.421.1.733.24.745.591C409.748,224.409,409.541,224.651,409.036,224.745Z" transform="translate(-308.999 -166.798)" fill="#e11941"/>
        <g id="Group_618" data-name="Group 618" transform="translate(97.768 52.775)" opacity="0.3">
          <g id="Group_617" data-name="Group 617">
            <g id="Group_616" data-name="Group 616" clip-path="url(#clip-path-19)">
              <path id="Path_1690" data-name="Path 1690" d="M408.964,222.678l-.048-1.4a2.8,2.8,0,0,1,.75.168,2.208,2.208,0,0,1,.356.207l.017-.043.2-.512.046-.118-.26-.255-.118.06a2.544,2.544,0,0,0-1.024-.257l-.026-.772-.24-.185v.195h-.329l.026.786c-1.077.142-1.57.776-1.545,1.483.034.961.87,1.185,1.646,1.346l.048,1.387a2.645,2.645,0,0,1-1.406-.481l-.288.721a3.028,3.028,0,0,0,1.728.51l.019.582-.269.014.276.175.57-.022-.029-.777c1.086-.149,1.584-.778,1.56-1.485-.034-.954-.882-1.168-1.658-1.329m-.574-.125c-.406-.1-.709-.24-.721-.579s.19-.562.678-.656Zm.647,2.192-.043-1.226c.421.1.733.24.745.591C409.748,224.409,409.541,224.651,409.036,224.745Z" transform="translate(-406.767 -219.573)"/>
            </g>
          </g>
        </g>
        <path id="Path_1691" data-name="Path 1691" d="M408.081,225.3l.026.779-.57.019-.026-.769a3.072,3.072,0,0,1-1.721-.517l.288-.721a2.694,2.694,0,0,0,1.406.481l-.048-1.389c-.776-.159-1.61-.38-1.644-1.344-.026-.721.466-1.344,1.546-1.485l-.029-.786.57-.019.026.772a2.986,2.986,0,0,1,1.423.373l-.26.721a2.884,2.884,0,0,0-1.137-.337l.05,1.4c.776.161,1.625.375,1.658,1.339.024.707-.476,1.334-1.56,1.483m-.673-2.949-.043-1.235c-.481.094-.69.351-.68.656S407,222.252,407.408,222.355Zm1.346,1.557c-.012-.339-.322-.481-.743-.591l.043,1.228C408.556,224.456,408.763,224.211,408.754,223.913Z" transform="translate(-308.257 -166.783)" fill="#e11941"/>
        <path id="Path_1692" data-name="Path 1692" d="M414.245,222.491h.046l.13-.014.214-.019a2.049,2.049,0,0,0,.291-.041l.361-.069a1.36,1.36,0,0,0,.2-.053l.216-.065a2.314,2.314,0,0,0,.24-.074l.24-.1a2.16,2.16,0,0,0,.24-.108l.257-.135a5.852,5.852,0,0,0,1.055-.733l.252-.24c.043-.041.087-.082.127-.125l.12-.142c.077-.094.163-.188.24-.289s.147-.209.221-.315l.055-.082a.983.983,0,0,0,.05-.084l.1-.173.1-.175a1.628,1.628,0,0,0,.087-.185c.053-.125.113-.24.163-.377l.13-.4a5.454,5.454,0,0,0-.12-3.442q-.079-.2-.159-.389c-.058-.127-.127-.24-.19-.368a1.614,1.614,0,0,0-.1-.178c-.036-.055-.072-.113-.111-.168l-.108-.166-.055-.082-.06-.075-.24-.3c-.082-.1-.173-.183-.26-.272l-.127-.132-.137-.118-.269-.24a5.794,5.794,0,0,0-1.106-.656l-.262-.118c-.087-.036-.175-.06-.26-.089l-.24-.081c-.079-.026-.161-.039-.24-.058l-.221-.048a1.4,1.4,0,0,0-.207-.038l-.365-.045a2.18,2.18,0,0,0-.291-.019h0a2.168,2.168,0,0,1,.293.012l.368.041a1.662,1.662,0,0,1,.207.036l.224.048c.074.019.156.029.24.056l.24.079c.084.031.173.053.26.089l.267.115a5.864,5.864,0,0,1,1.115.656l.274.24c.046.039.094.077.137.118l.13.132c.087.089.18.176.262.271l.24.3.063.077.055.082c.036.055.075.111.111.168l.113.168c.038.055.065.12.1.18.062.12.132.24.192.368s.106.262.161.394a6,6,0,0,1,.341,1.728,5.908,5.908,0,0,1-.221,1.75c-.043.135-.089.269-.132.4a4.13,4.13,0,0,1-.166.382,1.89,1.89,0,0,1-.086.188l-.1.175-.1.175-.051.087-.058.079-.221.32c-.077.1-.163.195-.24.288l-.12.142-.13.127-.257.24a5.733,5.733,0,0,1-1.067.733l-.257.134c-.084.041-.173.07-.255.106l-.24.1a2.32,2.32,0,0,1-.24.072l-.219.065a1.8,1.8,0,0,1-.2.05l-.363.065a2,2,0,0,1-.293.034l-.214.017h-.132Z" transform="translate(-314.387 -160.597)" fill="#263238"/>
        <path id="Path_1693" data-name="Path 1693" d="M386.119,229.439a.377.377,0,0,1-.036-.055l-.094-.163c-.041-.07-.089-.159-.139-.264s-.111-.224-.163-.361c-.026-.07-.055-.139-.087-.214s-.053-.154-.082-.24c-.06-.163-.106-.341-.156-.529a7.209,7.209,0,0,1-.187-2.509c.022-.192.041-.377.077-.546.014-.087.026-.168.046-.24s.036-.154.055-.226c.029-.142.075-.269.106-.38a2.7,2.7,0,0,1,.1-.284c.031-.077.05-.13.067-.175a.237.237,0,0,1,.029-.06.3.3,0,0,1-.017.065c-.017.046-.036.106-.06.178s-.058.173-.087.284-.072.24-.1.382l-.05.224c-.017.079-.026.161-.043.24-.031.168-.048.351-.072.543a8.634,8.634,0,0,0-.012,1.255,8.313,8.313,0,0,0,.2,1.238c.05.185.094.363.151.526.026.082.05.161.079.24l.082.214c.05.137.108.255.156.361s.091.2.13.269l.084.168a.238.238,0,0,1,.026.06" transform="translate(-292.569 -169.547)" fill="#fff"/>
        <path id="Path_1694" data-name="Path 1694" d="M406.771,227.191a.464.464,0,0,1-.166-.154.872.872,0,0,1-.175-.519.883.883,0,0,1,.175-.519.462.462,0,0,1,.168-.156,1.178,1.178,0,0,0-.137.178.894.894,0,0,0,0,1c.075.113.142.168.135.175" transform="translate(-308.743 -171.561)" fill="#fff"/>
        <path id="Path_1695" data-name="Path 1695" d="M412.566,220.958a.507.507,0,0,1-.036-.226.516.516,0,0,1,.019-.24c.017,0,.031.1.036.228a.5.5,0,0,1-.019.238" transform="translate(-313.372 -167.496)" fill="#fff"/>
        <path id="Path_1696" data-name="Path 1696" d="M402.115,209.7a.872.872,0,0,1-.18,0h-.483a1.51,1.51,0,0,0-.334.026c-.12.026-.24.031-.38.05a6.481,6.481,0,0,0-.851.214,6.184,6.184,0,0,0-.81.344c-.118.065-.24.123-.334.187s-.2.123-.281.18-.159.113-.224.161-.123.091-.166.127a.746.746,0,0,1-.142.108,1.285,1.285,0,0,1,.127-.123c.043-.041.1-.087.161-.137s.135-.111.221-.168.175-.125.279-.187.216-.127.334-.195a5.438,5.438,0,0,1,1.675-.56c.137-.019.264-.041.385-.048s.24-.017.336-.019.2,0,.279,0h.209Z" transform="translate(-302.286 -159.266)" fill="#fff"/>
        <path id="Path_1697" data-name="Path 1697" d="M408.66,261.981a.754.754,0,0,1-.127.039,3.127,3.127,0,0,1-.361.075,5.3,5.3,0,0,1-1.2.058,5.361,5.361,0,0,1-1.2-.219c-.147-.048-.267-.089-.346-.125a.739.739,0,0,1-.123-.055.528.528,0,0,1,.13.036c.082.029.2.065.351.106a6.022,6.022,0,0,0,1.185.2,6.161,6.161,0,0,0,1.2-.041c.154-.022.276-.043.363-.058a.5.5,0,0,1,.13-.019" transform="translate(-307.885 -198.84)" fill="#fff"/>
        <path id="Path_1698" data-name="Path 1698" d="M191.255,139.68l-32.556-.156a7.093,7.093,0,0,1-7.059-7.124l.344-81.614a7.1,7.1,0,0,1,7.126-7.064h.01l32.546.142a7.093,7.093,0,0,1,7.059,7.122l-.344,81.624a7.09,7.09,0,0,1-7.11,7.071h-.017" transform="translate(-115.193 -33.213)" fill="#263238"/>
        <path id="Path_1699" data-name="Path 1699" d="M198.472,55.631l-6.3-.029-18.437-.087h-2.218l-5.528-.024A4.966,4.966,0,0,0,161,60.433v0l-.336,79.672A4.966,4.966,0,0,0,165.6,145.1l32.493.149a4.966,4.966,0,0,0,4.983-4.949v0l.337-79.672a4.966,4.966,0,0,0-4.942-4.99h0" transform="translate(-122.045 -42.154)" fill="#fafafa"/>
        <path id="Path_1700" data-name="Path 1700" d="M316.412,84.908a.406.406,0,1,1-.406-.406h0a.406.406,0,0,1,.4.406" transform="translate(-239.745 -64.192)" fill="#263238"/>
        <path id="Path_1701" data-name="Path 1701" d="M316.392,91.022a.406.406,0,1,1-.406-.409.406.406,0,0,1,.406.409" transform="translate(-239.729 -68.834)" fill="#263238"/>
        <path id="Path_1702" data-name="Path 1702" d="M316.357,97.079a.409.409,0,1,1-.411-.406h0a.408.408,0,0,1,.406.406" transform="translate(-239.699 -73.437)" fill="#263238"/>
        <path id="Path_1703" data-name="Path 1703" d="M186.164,143.962h32.568A1.034,1.034,0,0,1,219.765,145V164.9a1.033,1.033,0,0,1-1.034,1.033H186.164a1.033,1.033,0,0,1-1.034-1.033V145a1.034,1.034,0,0,1,1.034-1.034" transform="translate(-140.633 -109.36)" fill="#ebebeb"/>
        <path id="Path_1704" data-name="Path 1704" d="M182.2,138.022h32.568a1.034,1.034,0,0,1,1.034,1.034v19.906A1.033,1.033,0,0,1,214.771,160H182.2a1.033,1.033,0,0,1-1.033-1.033V139.056a1.034,1.034,0,0,1,1.033-1.034" transform="translate(-137.625 -104.848)" fill="#e0e0e0"/>
        <path id="Path_1705" data-name="Path 1705" d="M177.633,133.092H210.2a1.034,1.034,0,0,1,1.034,1.034v19.906a1.033,1.033,0,0,1-1.034,1.033H177.633a1.033,1.033,0,0,1-1.033-1.033V134.126a1.034,1.034,0,0,1,1.033-1.034" transform="translate(-134.154 -101.103)" fill="#e11941"/>
        <path id="Path_1706" data-name="Path 1706" d="M195.62,150.236c0,.281-.224.445-.651.445h-.839v-1.627h.793c.406,0,.615.171.615.423a.392.392,0,0,1-.216.358.4.4,0,0,1,.3.4m-1.118-.9v.385h.375c.183,0,.284-.065.284-.192s-.1-.192-.284-.192Zm.74.86c0-.137-.106-.2-.3-.2h-.44v.4h.44c.195,0,.3-.06.3-.2" transform="translate(-147.47 -113.228)" fill="#fff"/>
        <path id="Path_1707" data-name="Path 1707" d="M201.906,150.331h-.755l-.144.349h-.387l.721-1.627h.373l.721,1.627h-.394Zm-.118-.286-.26-.623-.257.623Z" transform="translate(-152.4 -113.228)" fill="#fff"/>
        <path id="Path_1708" data-name="Path 1708" d="M210.4,149.052v1.627h-.31l-.81-.988v.988h-.373v-1.627h.312l.808.988v-.988Z" transform="translate(-158.698 -113.227)" fill="#fff"/>
        <path id="Path_1709" data-name="Path 1709" d="M217.342,150.078l-.219.24v.411h-.363V149.1h.375v.76l.721-.76h.418l-.673.721.721.9h-.44Z" transform="translate(-164.661 -113.265)" fill="#fff"/>
        <path id="Path_1710" data-name="Path 1710" d="M194.973,178.623h-.3v.392h-.154v-.392h-.841v-.111l.791-.99h.171l-.762.961h.647v-.344h.149v.344h.3Z" transform="translate(-147.128 -134.854)" fill="#fff"/>
        <path id="Path_1711" data-name="Path 1711" d="M200.209,178.588c0,.24-.18.442-.541.442a.776.776,0,0,1-.538-.192l.077-.123a.647.647,0,0,0,.461.173c.24,0,.385-.115.385-.3s-.127-.3-.4-.3h-.106v-.113l.413-.519h-.764v-.137h.961v.111l-.421.531c.317.029.476.185.476.423" transform="translate(-151.268 -134.855)" fill="#fff"/>
        <path id="Path_1712" data-name="Path 1712" d="M205.237,178.578c0,.252-.175.452-.541.452a.775.775,0,0,1-.536-.192l.077-.123a.635.635,0,0,0,.457.173c.255,0,.389-.123.389-.305s-.12-.31-.5-.31h-.317l.077-.75h.817v.137h-.683l-.053.481h.192c.449,0,.62.173.62.437" transform="translate(-155.09 -134.855)" fill="#fff"/>
        <path id="Path_1713" data-name="Path 1713" d="M210.572,178.531a.466.466,0,0,1-.471.461l-.038,0c-.4,0-.613-.276-.613-.748,0-.507.276-.772.683-.772a.68.68,0,0,1,.353.082l-.062.123a.52.52,0,0,0-.288-.07c-.322,0-.529.207-.529.613v.12a.481.481,0,0,1,.457-.255.452.452,0,0,1,.506.391.439.439,0,0,1,0,.056m-.151,0c0-.2-.147-.322-.375-.322a.346.346,0,0,0-.383.305c0,.007,0,.013,0,.019,0,.166.137.322.394.322a.327.327,0,0,0,.363-.286c0-.011,0-.022,0-.034Z" transform="translate(-159.108 -134.815)" fill="#fff"/>
        <path id="Path_1714" data-name="Path 1714" d="M224.734,180.192l-.356-.469-.358.469h-.171l.445-.574-.423-.546h.171l.336.437.337-.437h.168l-.423.538.447.574Z" transform="translate(-170.047 -136.032)" fill="#fff"/>
        <path id="Path_1715" data-name="Path 1715" d="M229.452,180.192l-.363-.469-.358.469h-.171l.445-.574-.423-.546h.171l.336.437.337-.437h.166l-.413.538.447.574Z" transform="translate(-173.625 -136.032)" fill="#fff"/>
        <path id="Path_1716" data-name="Path 1716" d="M234.214,180.192l-.356-.469-.358.469h-.171l.442-.574-.423-.546h.171l.339.437.337-.437h.166l-.423.538.449.574Z" transform="translate(-177.248 -136.032)" fill="#fff"/>
        <path id="Path_1717" data-name="Path 1717" d="M238.942,180.192l-.356-.469-.365.469h-.171l.445-.574-.423-.546h.171l.336.437.336-.437h.168l-.421.538.447.574Z" transform="translate(-180.834 -136.032)" fill="#fff"/>
        <path id="Path_1718" data-name="Path 1718" d="M255.3,180.17l-.356-.469-.358.469h-.171l.442-.582-.421-.546h.171l.337.437.336-.437h.178l-.435.546.449.574Z" transform="translate(-193.269 -136.009)" fill="#fff"/>
        <path id="Path_1719" data-name="Path 1719" d="M260.034,180.192l-.356-.469-.358.469h-.171l.445-.574-.423-.546h.171l.336.437.336-.437h.168l-.423.538.447.574Z" transform="translate(-196.862 -136.032)" fill="#fff"/>
        <path id="Path_1720" data-name="Path 1720" d="M264.774,180.17l-.356-.469-.358.469h-.171l.45-.582-.423-.546h.171l.337.437.337-.437h.166l-.425.546.447.574Z" transform="translate(-200.463 -136.009)" fill="#fff"/>
        <path id="Path_1721" data-name="Path 1721" d="M269.514,180.192l-.356-.469-.358.469h-.171l.442-.574-.411-.546h.171l.339.437.336-.437h.166l-.435.538.449.574Z" transform="translate(-204.064 -136.032)" fill="#fff"/>
        <path id="Path_1722" data-name="Path 1722" d="M285.4,177.522v1.493h-.154V177.66h-.353v-.137Z" transform="translate(-216.416 -134.854)" fill="#fff"/>
        <path id="Path_1723" data-name="Path 1723" d="M289.169,178.588c0,.24-.18.442-.541.442a.776.776,0,0,1-.538-.192l.077-.123a.642.642,0,0,0,.461.173c.24,0,.385-.115.385-.3s-.127-.3-.4-.3H288.5v-.113l.413-.519h-.764v-.137h.961v.111l-.421.531c.317.029.476.185.476.423" transform="translate(-218.847 -134.855)" fill="#fff"/>
        <path id="Path_1724" data-name="Path 1724" d="M294.665,178.623h-.3v.392h-.151v-.392h-.844v-.111l.791-.99h.171l-.762.961h.647v-.344h.149v.344h.3Z" transform="translate(-222.858 -134.854)" fill="#fff"/>
        <path id="Path_1725" data-name="Path 1725" d="M300.094,178.863V179h-1.048v-.1l.62-.608c.168-.166.2-.267.2-.368,0-.173-.123-.279-.351-.279a.5.5,0,0,0-.406.166l-.111-.094a.673.673,0,0,1,.529-.214c.3,0,.5.154.5.4a.611.611,0,0,1-.24.466l-.507.5Z" transform="translate(-227.134 -134.837)" fill="#fff"/>
        <path id="Path_1726" data-name="Path 1726" d="M190.49,195.458a.365.365,0,0,1,.362-.368h.025a.371.371,0,0,1,.291.125l-.106.1a.225.225,0,0,0-.178-.084.228.228,0,0,0,0,.457h0a.226.226,0,0,0,.178-.084l.106.1a.359.359,0,0,1-.293.128.365.365,0,0,1-.384-.346c0-.007,0-.015,0-.022" transform="translate(-144.705 -148.2)" fill="#fff"/>
        <path id="Path_1727" data-name="Path 1727" d="M193.892,195.673h-.329l-.065.151h-.168l.317-.721h.163l.317.721h-.171Zm-.05-.125-.113-.274-.113.274Z" transform="translate(-146.863 -148.209)" fill="#fff"/>
        <path id="Path_1728" data-name="Path 1728" d="M197.424,195.824l-.139-.2h-.151v.2h-.163V195.1h.308c.19,0,.31.1.31.257a.24.24,0,0,1-.147.226l.159.228Zm-.156-.577h-.135v.24h.135c.1,0,.151-.046.151-.125S197.369,195.247,197.268,195.247Z" transform="translate(-149.628 -148.209)" fill="#fff"/>
        <path id="Path_1729" data-name="Path 1729" d="M199.85,195.747l.055-.125a.409.409,0,0,0,.24.075c.1,0,.137-.031.137-.075,0-.135-.413-.043-.413-.308,0-.12.1-.221.3-.221a.481.481,0,0,1,.24.062l-.05.125a.421.421,0,0,0-.2-.055c-.1,0-.137.036-.137.082,0,.13.416.041.416.3,0,.12-.1.221-.3.221a.515.515,0,0,1-.288-.082" transform="translate(-151.815 -148.202)" fill="#fff"/>
        <path id="Path_1730" data-name="Path 1730" d="M204.694,195.142v.721h-.166v-.291H204.2v.291h-.163v-.721h.163v.281h.324v-.281Z" transform="translate(-154.998 -148.239)" fill="#fff"/>
        <path id="Path_1731" data-name="Path 1731" d="M207.228,195.323a.389.389,0,1,1,.411.367h-.021a.367.367,0,0,1-.389-.345c0-.007,0-.015,0-.023m.613,0a.224.224,0,1,0-.224.229.219.219,0,0,0,.219-.218s0-.006,0-.01Z" transform="translate(-157.42 -148.065)" fill="#fff"/>
        <path id="Path_1732" data-name="Path 1732" d="M210.99,195.142h.166v.577h.356v.135h-.522Z" transform="translate(-160.278 -148.239)" fill="#fff"/>
        <path id="Path_1733" data-name="Path 1733" d="M213.55,195.142h.324a.361.361,0,1,1,0,.721h-.324Zm.317.577a.221.221,0,1,0,0-.442h-.152v.442Z" transform="translate(-162.223 -148.239)" fill="#fff"/>
        <path id="Path_1734" data-name="Path 1734" d="M217.61,195.691v.132h-.55V195.1h.536v.132h-.368v.159h.329v.13h-.329v.163Z" transform="translate(-164.889 -148.209)" fill="#fff"/>
        <path id="Path_1735" data-name="Path 1735" d="M220.324,195.824l-.139-.2h-.151v.2h-.163V195.1h.308c.19,0,.31.1.31.257a.24.24,0,0,1-.147.226l.159.228Zm-.156-.577h-.135v.24h.135c.1,0,.151-.046.151-.125s-.043-.115-.144-.115Z" transform="translate(-167.024 -148.209)" fill="#fff"/>
        <path id="Path_1736" data-name="Path 1736" d="M190.192,205.473h9.8a.382.382,0,0,1,.382.382V206a.382.382,0,0,1-.382.382h-9.8a.382.382,0,0,1-.382-.382v-.149a.382.382,0,0,1,.382-.382" transform="translate(-144.189 -156.087)" fill="#fff"/>
        <path id="Path_1737" data-name="Path 1737" d="M282.372,205.473h5.105a.382.382,0,0,1,.382.382V206a.382.382,0,0,1-.382.382h-5.105a.382.382,0,0,1-.382-.382v-.149a.382.382,0,0,1,.382-.382" transform="translate(-214.213 -156.087)" fill="#fff"/>
        <g id="Group_621" data-name="Group 621" transform="translate(42.446 31.989)" opacity="0.2">
          <g id="Group_620" data-name="Group 620">
            <g id="Group_619" data-name="Group 619" clip-path="url(#clip-path-20)">
              <path id="Path_1738" data-name="Path 1738" d="M210.088,133.092h-32.34a1.149,1.149,0,0,0-1.149,1.147v5.8a9.587,9.587,0,0,0,7.34,1.156c2.935-.613,5.593-2.115,8.326-3.346s5.74-2.216,8.694-1.709c2.79.481,5.168,2.214,7.691,3.5a14.915,14.915,0,0,0,2.586,1.043v-6.446a1.149,1.149,0,0,0-1.149-1.147" transform="translate(-176.6 -133.092)" fill="#fff"/>
            </g>
          </g>
        </g>
        <path id="Path_1739" data-name="Path 1739" d="M181.72,260.133h4.771a2.11,2.11,0,0,1,2.11,2.11v4.771a2.11,2.11,0,0,1-2.11,2.11H181.72a2.11,2.11,0,0,1-2.11-2.11v-4.771a2.11,2.11,0,0,1,2.11-2.11" transform="translate(-136.44 -197.609)" fill="#e11941"/>
        <path id="Path_1740" data-name="Path 1740" d="M190.63,274.406h-1.966a.113.113,0,0,1-.111-.089l-.721-2.884h-.683a.12.12,0,0,1,0-.24h.776a.118.118,0,0,1,.113.089l.721,2.884h1.875a.12.12,0,1,1,0,.24Z" transform="translate(-142.077 -206.011)" fill="#fff"/>
        <path id="Path_1741" data-name="Path 1741" d="M194.218,285.342a.368.368,0,1,1-.368.368.368.368,0,0,1,.368-.368" transform="translate(-147.258 -216.759)" fill="#e11941"/>
        <path id="Path_1742" data-name="Path 1742" d="M193.861,285.844a.481.481,0,1,1,.481-.481.481.481,0,0,1-.481.481m0-.735a.24.24,0,1,0,.24.252.255.255,0,0,0-.24-.252" transform="translate(-146.901 -216.41)" fill="#fff"/>
        <path id="Path_1743" data-name="Path 1743" d="M202.728,285.342a.368.368,0,1,1-.368.368.368.368,0,0,1,.368-.368" transform="translate(-153.722 -216.759)" fill="#e11941"/>
        <path id="Path_1744" data-name="Path 1744" d="M202.371,285.844a.481.481,0,1,1,.481-.481.481.481,0,0,1-.481.481m0-.735a.24.24,0,1,0,.025,0h-.025" transform="translate(-153.365 -216.41)" fill="#fff"/>
        <path id="Path_1745" data-name="Path 1745" d="M194.329,275.347h-2.8a.115.115,0,0,1-.118-.113v0a.118.118,0,0,1,.118-.115h2.692l.308-1.733H191.01a.12.12,0,0,1,0-.24h3.67a.12.12,0,0,1,.089.041.113.113,0,0,1,.024.1l-.348,1.964a.115.115,0,0,1-.115.1" transform="translate(-145.009 -207.492)" fill="#fff"/>
        <path id="Path_1746" data-name="Path 1746" d="M230.336,266.7h16.428a.906.906,0,0,1,.906.906v.358a.906.906,0,0,1-.906.906H230.336a.906.906,0,0,1-.906-.906v-.358a.906.906,0,0,1,.906-.906" transform="translate(-174.286 -202.599)" fill="#e0e0e0"/>
        <path id="Path_1747" data-name="Path 1747" d="M230.336,284.452h7.408a.906.906,0,0,1,.906.906v.358a.906.906,0,0,1-.906.906h-7.408a.906.906,0,0,1-.906-.906v-.358a.906.906,0,0,1,.906-.906" transform="translate(-174.286 -216.083)" fill="#e0e0e0"/>
        <path id="Path_1748" data-name="Path 1748" d="M202.848,245.845c0,.034-9.492.063-21.2.063s-21.2-.029-21.2-.063,9.492-.062,21.2-.062,21.2.029,21.2.062" transform="translate(-121.885 -186.708)" fill="#e0e0e0"/>
        <path id="Path_1749" data-name="Path 1749" d="M195.966,312.533h19.858a3.9,3.9,0,0,1,3.9,3.9v1.531a3.9,3.9,0,0,1-3.9,3.9H195.966a3.9,3.9,0,0,1-3.9-3.9v-1.531a3.9,3.9,0,0,1,3.9-3.9" transform="translate(-145.905 -237.415)" fill="#e11941"/>
        <path id="Path_1750" data-name="Path 1750" d="M241.456,327.685c0,.481-.351.76-.913.76h-.361v.538H239.6v-2.06h.942c.562,0,.913.293.913.762m-.586,0c0-.19-.123-.3-.363-.3h-.324v.6h.324c.24,0,.363-.1.363-.293" transform="translate(-182.011 -248.346)" fill="#fff"/>
        <path id="Path_1751" data-name="Path 1751" d="M248.667,328.583h-.87l-.163.4h-.594l.909-2.06h.574l.911,2.06h-.606Zm-.171-.43-.264-.659-.264.659Z" transform="translate(-187.663 -248.345)" fill="#fff"/>
        <path id="Path_1752" data-name="Path 1752" d="M257.438,328.244v.738h-.582v-.747l-.786-1.312h.615l.481.82.481-.82h.565Z" transform="translate(-194.523 -248.346)" fill="#fff"/>
        <path id="Path_1753" data-name="Path 1753" d="M174.491,88.922a1.8,1.8,0,1,1,1.333,2.161,1.8,1.8,0,0,1-1.333-2.161" transform="translate(-132.514 -66.499)" fill="#e11941"/>
        <path id="Path_1754" data-name="Path 1754" d="M221.339,91.162h12.128a.659.659,0,0,1,.659.659v.257a.659.659,0,0,1-.659.659H221.339a.659.659,0,0,1-.659-.659v-.257a.659.659,0,0,1,.659-.659" transform="translate(-167.639 -69.251)" fill="#e0e0e0"/>
        <rect id="Rectangle_600" data-name="Rectangle 600" width="27.446" height="1.834" transform="translate(47.626 87.131)" fill="#263238"/>
        <path id="Path_1755" data-name="Path 1755" d="M203.56,366.313c.24.082,3.456.082,3.456,6.429s-.161,14.224,3.213,14.464,21.134,0,21.134,0V371.276a4.829,4.829,0,0,0-4.807-4.829Z" transform="translate(-154.634 -278.269)" fill="#fafafa"/>
        <path id="Path_1756" data-name="Path 1756" d="M203.537,366.313l13.349.041,6.773.024h1.856a10.812,10.812,0,0,1,1.923.094,4.931,4.931,0,0,1,3.92,4.206,8.663,8.663,0,0,1,.043,1.06v15.534h-.062c-6.211.075-12.116.13-17.486.087-.671,0-1.332-.017-1.985-.029a16.335,16.335,0,0,1-1.94-.106,2.17,2.17,0,0,1-.87-.409,3.186,3.186,0,0,1-.625-.709,6.344,6.344,0,0,1-.721-1.682,18.552,18.552,0,0,1-.572-3.406c-.1-1.1-.142-2.163-.166-3.175-.053-2.026,0-3.858-.036-5.463a9.863,9.863,0,0,0-.774-4,4.376,4.376,0,0,0-.86-1.214,3.264,3.264,0,0,0-.906-.6,4.432,4.432,0,0,0-.868-.24l.228.036a2.959,2.959,0,0,1,.649.188,3.284,3.284,0,0,1,.923.6,4.4,4.4,0,0,1,.877,1.219,9.792,9.792,0,0,1,.8,4.021c.038,1.606,0,3.439.055,5.463.026,1.009.072,2.069.173,3.17a18.688,18.688,0,0,0,.574,3.384,6.281,6.281,0,0,0,.707,1.651,3.083,3.083,0,0,0,.6.683,2.122,2.122,0,0,0,.824.387c.615.081,1.271.077,1.923.1s1.315.024,1.985.029c5.365.036,11.273-.024,17.483-.1l-.062.063V371.73a8.357,8.357,0,0,0-.038-1.046,4.754,4.754,0,0,0-3.829-4.086,10.892,10.892,0,0,0-1.894-.1l-1.848-.012-6.73-.053Z" transform="translate(-154.611 -278.269)" fill="#263238"/>
        <path id="Path_1757" data-name="Path 1757" d="M231.65,410.608s2.778,0,3.365-4.1c.709-4.884,0-9.162,3.776-9.323s13.9,0,13.9,0v13.421Z" transform="translate(-175.972 -301.667)" fill="#e0e0e0"/>
        <path id="Path_1758" data-name="Path 1758" d="M259.43,397.17s3.045-.368,3.045,4.694.079,8.412,3.454,8.785,24.11,0,24.11,0a7.085,7.085,0,0,1-3.536-6.134c-.24-4.581-1.2-7.374-4.5-7.463s-22.572.118-22.572.118" transform="translate(-197.075 -301.602)" fill="#fafafa"/>
        <path id="Path_1759" data-name="Path 1759" d="M259.415,397.08h.8l2.31-.036,8.5-.091,5.874-.041h3.276c.562,0,1.134,0,1.714.017a4.872,4.872,0,0,1,1.74.334,3.524,3.524,0,0,1,1.413,1.134,5.892,5.892,0,0,1,.834,1.661,16.345,16.345,0,0,1,.632,3.764c.022.324.038.649.074.961l.048.481.091.481.043.24.067.24.135.481a8.413,8.413,0,0,0,.382.913,6.607,6.607,0,0,0,2.7,2.9l.209.115h-.815c-5.564.091-10.864.151-15.685.149-2.4,0-4.7,0-6.848-.1a9.76,9.76,0,0,1-1.577-.171,3.2,3.2,0,0,1-1.368-.69,3.351,3.351,0,0,1-.846-1.2,6.346,6.346,0,0,1-.406-1.346,16.7,16.7,0,0,1-.26-2.591c-.031-.822-.034-1.6-.034-2.322,0-.361,0-.721-.017-1.046a3.338,3.338,0,0,0-.024-.493c-.024-.161-.038-.317-.058-.469l-.029-.228c-.014-.074-.031-.147-.048-.219-.031-.144-.065-.286-.094-.423l-.135-.389-.065-.185-.086-.173a2.931,2.931,0,0,0-.8-1.07,2.352,2.352,0,0,0-.856-.481,2.286,2.286,0,0,0-.6-.108h-.156a1.3,1.3,0,0,1,.156,0,2.264,2.264,0,0,1,.6.1,2.335,2.335,0,0,1,.872.469,2.977,2.977,0,0,1,.82,1.077,8.142,8.142,0,0,1,.579,3.646c0,.721,0,1.5.043,2.319a17.063,17.063,0,0,0,.267,2.577,6.268,6.268,0,0,0,.4,1.327,3.257,3.257,0,0,0,.832,1.151,3.052,3.052,0,0,0,1.327.663,9.383,9.383,0,0,0,1.557.163c2.142.089,4.432.091,6.843.091,4.819,0,10.119-.07,15.683-.159l.574-.012-.026.12a6.73,6.73,0,0,1-2.759-2.961,8.727,8.727,0,0,1-.387-.93l-.137-.481-.067-.24-.046-.24-.091-.481-.048-.481c-.036-.329-.053-.651-.074-.961a16.169,16.169,0,0,0-.625-3.737,5.754,5.754,0,0,0-.812-1.651,3.407,3.407,0,0,0-1.365-1.1,4.807,4.807,0,0,0-1.7-.329c-.579,0-1.149-.014-1.711-.019H276.9l-5.874.024-8.5.053-2.31.012h-.6Z" transform="translate(-197.06 -301.513)" fill="#263238"/>
        <path id="Path_1760" data-name="Path 1760" d="M238.854,397.527c0,.014-.24,0-.673.051a2.911,2.911,0,0,0-1.618.786,4.606,4.606,0,0,0-1.2,2.387,19.783,19.783,0,0,0-.281,3.334,16.557,16.557,0,0,1-.389,3.343,7.909,7.909,0,0,1-.5,1.387,5.112,5.112,0,0,1-.656,1.106,2.769,2.769,0,0,1-.81.685,2.865,2.865,0,0,1-.76.262,3.089,3.089,0,0,1-.5.046.968.968,0,0,1-.175,0,.863.863,0,0,1,.175-.022,3.251,3.251,0,0,0,.481-.067,2.813,2.813,0,0,0,.733-.276,2.66,2.66,0,0,0,.779-.68,5.185,5.185,0,0,0,.63-1.091,8.279,8.279,0,0,0,.481-1.372,16.965,16.965,0,0,0,.375-3.322,19.938,19.938,0,0,1,.293-3.351,4.634,4.634,0,0,1,1.252-2.428,2.885,2.885,0,0,1,1.67-.769,2.273,2.273,0,0,1,.291-.022,1.985,1.985,0,0,1,.214,0,.919.919,0,0,1,.19.014" transform="translate(-175.699 -301.967)" fill="#263238"/>
        <path id="Path_1761" data-name="Path 1761" d="M249.872,381.435c0,.034-3.894.063-8.7.063s-8.7-.029-8.7-.063,3.891-.062,8.7-.062,8.7.026,8.7.062" transform="translate(-176.603 -289.709)" fill="#e0e0e0"/>
        <path id="Path_1762" data-name="Path 1762" d="M253.165,392.194c0,.034-3.766.063-8.412.063s-8.412-.029-8.412-.062,3.764-.063,8.412-.063,8.412.029,8.412.063" transform="translate(-179.535 -297.882)" fill="#e0e0e0"/>
        <path id="Path_1763" data-name="Path 1763" d="M300.7,413.115c0,.036-3.894.063-8.7.063s-8.7-.026-8.7-.062,3.894-.062,8.7-.062,8.7.031,8.7.063" transform="translate(-215.216 -313.774)" fill="#e0e0e0"/>
        <path id="Path_1764" data-name="Path 1764" d="M306.145,425.685c0,.034-3.572.062-7.977.062s-7.977-.029-7.977-.062,3.572-.062,7.977-.062,7.977.029,7.977.063" transform="translate(-220.442 -323.323)" fill="#e0e0e0"/>
        <path id="Path_1765" data-name="Path 1765" d="M286.667,145.762h1.692a.757.757,0,0,1,.757.757v1.692a.757.757,0,0,1-.757.757h-1.692a.757.757,0,0,1-.757-.757v-1.692a.757.757,0,0,1,.757-.757" transform="translate(-217.191 -110.728)" fill="#fff"/>
        <path id="Path_1766" data-name="Path 1766" d="M14.561,95.161l-1.589-.192a6.107,6.107,0,1,1,1.572-1.521Z" transform="translate(-2.637 -63.645)" fill="#fff"/>
        <path id="Path_1767" data-name="Path 1767" d="M14.477,95.067v-.449c0-.293-.014-.721-.024-1.267l.036.017a.022.022,0,0,1-.031,0h0a.026.026,0,0,1,0-.029,6.045,6.045,0,0,0,1.07-2.716,6.151,6.151,0,0,0-.05-1.923,6.087,6.087,0,0,0-.786-2.036A6.2,6.2,0,0,0,13.044,84.9a5.909,5.909,0,0,0-2.389-1.031,6.167,6.167,0,0,0-2.764.118,5.924,5.924,0,0,0-2.519,1.442,6.1,6.1,0,0,0-.961,1.146c-.123.214-.24.425-.356.644l-.144.336-.07.166-.055.173a6.206,6.206,0,0,0-.24,2.783,5.906,5.906,0,0,0,.942,2.454,6.076,6.076,0,0,0,3.73,2.591l.5.087c.166.026.332.029.481.046a5.444,5.444,0,0,0,.933-.019,6.076,6.076,0,0,0,2.745-.961H12.9l1.171.154.308.043.108.017h-.1l-.3-.031-1.187-.13H12.9a6.062,6.062,0,0,1-2.762,1.007,5.3,5.3,0,0,1-.945.024c-.163-.014-.329-.017-.5-.041l-.512-.087a6.148,6.148,0,0,1-2.053-.87,6.312,6.312,0,0,1-1.75-1.774A5.987,5.987,0,0,1,3.425,90.7a6.284,6.284,0,0,1,.24-2.834l.055-.175.072-.171c.05-.113.1-.24.147-.341.108-.226.24-.44.361-.659a6.325,6.325,0,0,1,.961-1.168,6.009,6.009,0,0,1,2.562-1.457,6.249,6.249,0,0,1,2.843-.127,5.968,5.968,0,0,1,2.428,1.055,6.249,6.249,0,0,1,1.658,1.793,6.135,6.135,0,0,1,.791,2.069,6.29,6.29,0,0,1,.041,1.949,6.077,6.077,0,0,1-1.1,2.733l-.034-.029a.021.021,0,0,1,.031,0h0a.017.017,0,0,1,0,.014v1.608c0,.087,0,.108,0,.108" transform="translate(-2.553 -63.552)" fill="#263238"/>
        <path id="Path_1768" data-name="Path 1768" d="M17.73,102.877l.762-.817,1.572,1.305,2.9-2.983.76.764L20,104.894Z" transform="translate(-13.469 -76.255)" fill="#e11941"/>
        <path id="Path_1769" data-name="Path 1769" d="M71.241,86.409a4.612,4.612,0,0,1,4.894-3.9l.24.017c2.557.337,3.7,2.7,3.293,5.247l-.892,9.042-.043,1.868-6.093.553.132-3.947a2.97,2.97,0,0,1-2.293-3.033c.062-1.195.421-3.641.762-5.85" transform="translate(-53.534 -62.671)" fill="#ffbf9d"/>
        <path id="Path_1770" data-name="Path 1770" d="M79.95,133.424a5.986,5.986,0,0,0,3.3-.721,2.977,2.977,0,0,1-3.3,1.382Z" transform="translate(-60.734 -100.807)" fill="#ff9a6c"/>
        <path id="Path_1771" data-name="Path 1771" d="M77.646,108.074a.353.353,0,0,0,.315.38.342.342,0,0,0,.387-.289v0a.353.353,0,0,0-.315-.382.341.341,0,0,0-.386.289v0" transform="translate(-58.983 -81.873)" fill="#263238"/>
        <path id="Path_1772" data-name="Path 1772" d="M75.5,102.928c.041.048.322-.13.7-.1s.644.24.687.195-.017-.106-.13-.2a.978.978,0,0,0-.548-.214.961.961,0,0,0-.562.137c-.123.082-.168.163-.149.185" transform="translate(-57.348 -77.943)" fill="#263238"/>
        <path id="Path_1773" data-name="Path 1773" d="M92.446,109.483a.351.351,0,0,0,.312.38.336.336,0,0,0,.385-.279s0-.008,0-.012a.356.356,0,0,0-.312-.382.336.336,0,0,0-.385.28s0,.009,0,.014" transform="translate(-70.225 -82.942)" fill="#263238"/>
        <path id="Path_1774" data-name="Path 1774" d="M91,104.353c.041.051.322-.127.7-.1s.644.24.687.2-.017-.106-.132-.2a.959.959,0,0,0-.546-.212.919.919,0,0,0-.562.137c-.123.082-.168.168-.149.182" transform="translate(-69.122 -79.026)" fill="#263238"/>
        <path id="Path_1775" data-name="Path 1775" d="M81.449,106.7a2.554,2.554,0,0,0-.608-.156c-.1-.017-.187-.043-.2-.111a.5.5,0,0,1,.087-.281l.341-.721a11.917,11.917,0,0,0,.784-1.884,12.951,12.951,0,0,0-.935,1.817c-.113.24-.224.481-.327.721a.562.562,0,0,0-.079.377.241.241,0,0,0,.149.151.68.68,0,0,0,.163.036,2.48,2.48,0,0,0,.625.05" transform="translate(-61.156 -78.655)" fill="#263238"/>
        <path id="Path_1776" data-name="Path 1776" d="M84.94,118.092c-.06,0-.091.4-.464.671a2.037,2.037,0,0,1-.817.24c-.007.05.091.087.276.106a1.029,1.029,0,0,0,.68-.183.892.892,0,0,0,.363-.565c.029-.163-.01-.269-.038-.269" transform="translate(-63.551 -89.708)" fill="#263238"/>
        <path id="Path_1777" data-name="Path 1777" d="M91.047,98.421c.031.106.413.084.853.171s.793.24.86.144c.029-.043-.026-.144-.166-.255a1.521,1.521,0,0,0-1.3-.24c-.168.053-.257.13-.245.18" transform="translate(-69.162 -74.587)" fill="#263238"/>
        <path id="Path_1778" data-name="Path 1778" d="M76.406,98.327c.06.091.327.022.642.038s.577.1.644.014c.031-.041,0-.13-.115-.221a.942.942,0,0,0-1.038-.043c-.115.082-.159.168-.132.212" transform="translate(-58.036 -74.43)" fill="#263238"/>
        <path id="Path_1779" data-name="Path 1779" d="M105.689,112.418a.668.668,0,0,1,.733-.6l.036,0c.459.077.961.375.851,1.324a1.274,1.274,0,0,1-1.829,1.11c0-.048.127-1.137.209-1.844" transform="translate(-80.128 -84.943)" fill="#ffbf9d"/>
        <path id="Path_1780" data-name="Path 1780" d="M107.282,115.435a.511.511,0,0,0,.075.053.3.3,0,0,0,.219.026.721.721,0,0,0,.4-.615,1,1,0,0,0-.038-.428.341.341,0,0,0-.2-.24.154.154,0,0,0-.183.062c-.026.046-.019.079-.029.082s-.034-.031,0-.1a.173.173,0,0,1,.077-.1.219.219,0,0,1,.168-.026.413.413,0,0,1,.267.274.986.986,0,0,1,.05.481.745.745,0,0,1-.5.68.311.311,0,0,1-.264-.072c-.048-.036-.053-.074-.046-.079" transform="translate(-81.494 -86.71)" fill="#ff9a6c"/>
        <path id="Path_1781" data-name="Path 1781" d="M78.4,81.855c-.139.481-.089,1.286-.519,1.176-.858-.216-.651,1.541-1.062,1.368s-.764-.668-.791-1.75c-.031-1.37.519-2.36-.019-3.932a2.079,2.079,0,0,0-1.735-1.074,2.116,2.116,0,0,0-1.819.961,2.159,2.159,0,0,0-.735-1.442,1.241,1.241,0,0,0-1.363.113,1.008,1.008,0,0,0-.178,1.31.481.481,0,0,1-.538-.192.808.808,0,0,0,.214.615.748.748,0,0,1-.435-.3c.043.2.084.4.127.594a1.914,1.914,0,0,1-1.63-1.3,3.218,3.218,0,0,1,.459-2.735,2.964,2.964,0,0,1,2.461-1.421,2.27,2.27,0,0,1,2.2,1.392,3.2,3.2,0,0,1,2.663-.286,2.315,2.315,0,0,1,1.32,1.834,1.38,1.38,0,0,1,1.365.264l.091.079a2.062,2.062,0,0,1,.6,1.9c-.053.277-.149.56-.2.781-.166.666-.471,2.05-.471,2.05" transform="translate(-51.49 -56.094)" fill="#263238"/>
        <path id="Path_1782" data-name="Path 1782" d="M73.48,84.755s-.022,0-.058-.046a1.063,1.063,0,0,1-.142-.154A1.441,1.441,0,0,1,73,83.834a1.37,1.37,0,0,1,.336-1.079,1.476,1.476,0,0,1,1.288-.481,1.655,1.655,0,0,1,.683.269,2.213,2.213,0,0,1,.512.452,2.685,2.685,0,0,1,.6,1.791.56.56,0,0,1-.022.209.284.284,0,0,1-.014.072,3.222,3.222,0,0,0-.1-1.036,2.715,2.715,0,0,0-.519-.993,1.885,1.885,0,0,0-1.144-.7,1.42,1.42,0,0,0-1.228.459,1.33,1.33,0,0,0-.334,1.029,1.462,1.462,0,0,0,.255.7c.1.144.173.216.168.221" transform="translate(-55.444 -62.49)" fill="#455a64"/>
        <path id="Path_1783" data-name="Path 1783" d="M71.477,83.889a.4.4,0,0,1-.05-.082c-.031-.055-.077-.137-.132-.24a5.436,5.436,0,0,1-.4-.942,2.683,2.683,0,0,1-.111-.7,1.921,1.921,0,0,1,.147-.8,1.568,1.568,0,0,1,.579-.69,1.893,1.893,0,0,1,.916-.3,2.342,2.342,0,0,1,.961.151,3.024,3.024,0,0,1,.781.447,2.317,2.317,0,0,1,.853,1.235,1.683,1.683,0,0,1-.05,1.014,1.208,1.208,0,0,1-.125.24.319.319,0,0,1-.06.077,1.977,1.977,0,0,0,.159-.334,1.7,1.7,0,0,0,.026-.99,2.3,2.3,0,0,0-.846-1.2,2.572,2.572,0,0,0-1.682-.577,1.828,1.828,0,0,0-.882.291,1.509,1.509,0,0,0-.555.654,1.9,1.9,0,0,0-.147.774,2.617,2.617,0,0,0,.1.685,5.688,5.688,0,0,0,.373.942l.12.24a.444.444,0,0,1,.024.108" transform="translate(-53.772 -60.87)" fill="#455a64"/>
        <path id="Path_1784" data-name="Path 1784" d="M109.48,92.608a3.163,3.163,0,0,0,.363-.37,2.549,2.549,0,0,0,.538-1.1,2.509,2.509,0,0,0-.058-1.223c-.091-.305-.195-.481-.183-.481a.48.48,0,0,1,.079.115,2.277,2.277,0,0,1,.154.351,2.378,2.378,0,0,1-.493,2.375,2.284,2.284,0,0,1-.281.262.459.459,0,0,1-.12.072" transform="translate(-83.166 -67.937)" fill="#455a64"/>
        <path id="Path_1785" data-name="Path 1785" d="M103.09,93.683a1.689,1.689,0,0,0,.219-.13,1.23,1.23,0,0,0,.425-.512l.07-.161-.014.175c-.022.24-.046.512-.072.808l-.055-.034a2.211,2.211,0,0,0,.928-1.428,2.289,2.289,0,0,0,0-.793,3.181,3.181,0,0,0-.24-.7.294.294,0,0,1,.031.041,1.219,1.219,0,0,1,.075.13,2.093,2.093,0,0,1,.185.517,2.216,2.216,0,0,1-.937,2.291l-.062.041v-.075c.031-.3.06-.57.087-.805l.055.014a1.227,1.227,0,0,1-.461.517,1.355,1.355,0,0,1-.171.084.181.181,0,0,1-.06.017" transform="translate(-78.312 -69.061)" fill="#455a64"/>
        <path id="Path_1786" data-name="Path 1786" d="M91.531,84.953a1.6,1.6,0,0,0-.389-.481,1.416,1.416,0,0,0-.608-.281,1.488,1.488,0,0,0-.81.072,1.744,1.744,0,0,0-.68.461,2.089,2.089,0,0,0-.368.57,3.939,3.939,0,0,0-.183.6.544.544,0,0,1,.012-.171,2.137,2.137,0,0,1,.123-.454,2.068,2.068,0,0,1,.363-.6A1.779,1.779,0,0,1,89.7,84.2a1.54,1.54,0,0,1,.851-.07,1.422,1.422,0,0,1,.627.308,1.273,1.273,0,0,1,.3.368,1.155,1.155,0,0,1,.05.118c.01.017.012.031.01.034" transform="translate(-67.222 -63.883)" fill="#455a64"/>
        <path id="Path_1787" data-name="Path 1787" d="M91.129,81.421a2.36,2.36,0,0,0-.464-.18,1.7,1.7,0,0,0-1.159.163,2.1,2.1,0,0,0-.82.853c-.147.274-.195.464-.207.459a.421.421,0,0,1,.024-.135,2.086,2.086,0,0,1,.135-.349,2.047,2.047,0,0,1,.832-.894,1.663,1.663,0,0,1,1.2-.149,1.289,1.289,0,0,1,.344.147.426.426,0,0,1,.113.084" transform="translate(-67.214 -61.637)" fill="#455a64"/>
        <path id="Path_1788" data-name="Path 1788" d="M62.633,413.428l.171,4.622s-4.641,1.726-4.694,2.584h8.975l.031-7.211Z" transform="translate(-44.143 -314.055)" fill="#263238"/>
        <path id="Path_1789" data-name="Path 1789" d="M87.819,431.022a.365.365,0,0,1,.255.418.353.353,0,0,1-.413.255.387.387,0,0,1-.264-.445.363.363,0,0,1,.457-.219" transform="translate(-66.385 -327.417)" fill="#e0e0e0"/>
        <path id="Path_1790" data-name="Path 1790" d="M67.073,441.113l-.024-.721-8.6.279s-.4.175-.356.457Z" transform="translate(-44.132 -334.542)" fill="#263238"/>
        <path id="Path_1791" data-name="Path 1791" d="M77.029,432.361c0,.043.221.063.437.2s.329.327.37.308-.024-.269-.288-.435-.529-.118-.519-.075" transform="translate(-58.515 -328.41)" fill="#fff"/>
        <path id="Path_1792" data-name="Path 1792" d="M73.12,434.044c0,.043.18.115.329.3s.192.38.24.377.07-.24-.118-.481-.452-.243-.452-.2" transform="translate(-55.545 -329.704)" fill="#fff"/>
        <path id="Path_1793" data-name="Path 1793" d="M69.83,436.409c.038,0,.1-.212,0-.45s-.317-.336-.336-.3.108.166.2.363.106.382.139.387" transform="translate(-52.789 -330.942)" fill="#fff"/>
        <path id="Path_1794" data-name="Path 1794" d="M77.355,427.591c.019.041.219-.019.466,0s.442.094.464.055-.163-.192-.454-.209-.5.12-.476.154" transform="translate(-58.761 -324.7)" fill="#fff"/>
        <path id="Path_1795" data-name="Path 1795" d="M117.713,415.2l.356,5.586-.99,4.5a.574.574,0,0,0,.441.683l.04.007a.567.567,0,0,0,.5-.168c.82-.853,3.822-4.009,3.771-4.415-.055-.481.014-5.915.014-5.915Z" transform="translate(-88.929 -315.408)" fill="#263238"/>
        <path id="Path_1796" data-name="Path 1796" d="M119.09,444.354l4.252-4.961v.24a.862.862,0,0,1-.183.567c-.337.43-1.3,1.6-3.567,3.987a.572.572,0,0,1-.512.168Z" transform="translate(-90.459 -333.784)" fill="#263238"/>
        <g id="Group_624" data-name="Group 624" transform="translate(31.537 103.793)" opacity="0.6">
          <g id="Group_623" data-name="Group 623">
            <g id="Group_622" data-name="Group 622" clip-path="url(#clip-path-21)">
              <path id="Path_1797" data-name="Path 1797" d="M131.344,431.895a.344.344,0,0,0-.077.457.334.334,0,0,0,.452.079.365.365,0,0,0,.077-.481.344.344,0,0,0-.481-.031" transform="translate(-131.212 -431.835)" fill="#fff"/>
            </g>
          </g>
        </g>
        <path id="Path_1798" data-name="Path 1798" d="M120.358,447.735a1.771,1.771,0,0,0-.51-.416,1.727,1.727,0,0,0-.649-.1c0-.014.065-.06.195-.084a.906.906,0,0,1,.894.4c.07.118.082.192.07.2" transform="translate(-90.55 -339.659)" fill="#fff"/>
        <path id="Path_1799" data-name="Path 1799" d="M119.155,451.637a4.781,4.781,0,0,0-.5-.221,5.335,5.335,0,0,0-.55-.048.644.644,0,0,1,.579-.07c.334.082.5.322.476.339" transform="translate(-89.714 -342.798)" fill="#fff"/>
        <path id="Path_1800" data-name="Path 1800" d="M121.9,443.649a5.79,5.79,0,0,0-.757-.394,6.038,6.038,0,0,0-.836-.159A1.565,1.565,0,0,1,121.9,443.649Z" transform="translate(-91.393 -336.564)" fill="#fff"/>
        <path id="Path_1801" data-name="Path 1801" d="M122.522,437.779c-.014.034-.329-.084-.721-.082s-.721.113-.721.077a1.423,1.423,0,0,1,1.461,0Z" transform="translate(-91.978 -332.4)" fill="#fff"/>
        <path id="Path_1802" data-name="Path 1802" d="M122.1,430.867a1.822,1.822,0,0,0-1.49.113.538.538,0,0,1,.173-.163,1.261,1.261,0,0,1,.55-.175,1.227,1.227,0,0,1,.57.091c.137.067.2.123.2.135" transform="translate(-91.621 -327.132)" fill="#fff"/>
        <path id="Path_1803" data-name="Path 1803" d="M120.771,426.337a.464.464,0,0,1-.017-.212,1.5,1.5,0,0,1,.144-.56.667.667,0,0,1,.267-.322.24.24,0,0,1,.262.041.358.358,0,0,1,.1.24.81.81,0,0,1-.678.779.944.944,0,0,1-.945-.454.334.334,0,0,1-.026-.269.241.241,0,0,1,.24-.13.788.788,0,0,1,.375.175,1.64,1.64,0,0,1,.4.421c.077.113.1.185.094.187a2.582,2.582,0,0,0-.543-.536.736.736,0,0,0-.332-.147.12.12,0,0,0-.125.07.241.241,0,0,0,.026.178.839.839,0,0,0,.822.382.7.7,0,0,0,.586-.651.266.266,0,0,0-.062-.175.12.12,0,0,0-.142-.026.588.588,0,0,0-.24.269,2.16,2.16,0,0,0-.2.74" transform="translate(-91.051 -323.018)" fill="#fff"/>
        <path id="Path_1804" data-name="Path 1804" d="M58.7,248.122a19.873,19.873,0,0,0-.567,5.831c.065,1.245,4.062,37.183,4.062,37.183l5.081-.457-.877-33.6.212.19s3.028,14.138,3.23,16.373c.18,2.007,2.6,18.144,2.6,18.144l4.932-.24-1.118-20.4-1.495-18.507-.6-5.394Z" transform="translate(-44.138 -187.817)" fill="#263238"/>
        <path id="Path_1805" data-name="Path 1805" d="M87.688,261.58a1.2,1.2,0,0,1-.24.127,2.727,2.727,0,0,1-.707.228,1.532,1.532,0,0,1-.522,0,1.1,1.1,0,0,1-.538-.274,1.331,1.331,0,0,1-.317-.586c-.06-.221-.094-.452-.135-.685-.159-.935-.262-1.788-.32-2.4-.029-.308-.046-.56-.055-.733a1.142,1.142,0,0,1,0-.272,1.339,1.339,0,0,1,.048.267c.024.2.055.442.091.721.079.618.195,1.466.353,2.4a2.168,2.168,0,0,0,.413,1.2,1.168,1.168,0,0,0,.961.276,3.314,3.314,0,0,0,.7-.187,1.076,1.076,0,0,1,.264-.084" transform="translate(-64.453 -195.216)" fill="#455a64"/>
        <path id="Path_1806" data-name="Path 1806" d="M88.69,257.626a.234.234,0,0,1,.118-.034.525.525,0,0,1,.315.111.541.541,0,1,1-.829.3.48.48,0,0,1,.178-.281c.065-.048.108-.053.111-.048a.629.629,0,0,0-.207.346.481.481,0,0,0,.1.4.421.421,0,0,0,.466.1.428.428,0,0,0,.3-.365.5.5,0,0,0-.173-.375.644.644,0,0,0-.38-.149" transform="translate(-67.059 -195.679)" fill="#455a64"/>
        <path id="Path_1807" data-name="Path 1807" d="M113.373,262.175a.65.65,0,0,1-.195.024,3.631,3.631,0,0,1-.531,0,5.148,5.148,0,0,1-3.144-1.411,3.664,3.664,0,0,1-.358-.394c-.077-.1-.115-.156-.108-.161s.192.2.524.493a5.7,5.7,0,0,0,3.1,1.389,5.11,5.11,0,0,1,.716.06" transform="translate(-82.829 -197.685)" fill="#455a64"/>
        <path id="Path_1808" data-name="Path 1808" d="M60.015,257.7a2.489,2.489,0,0,1-.317.57,6.469,6.469,0,0,1-1.009,1.2,6.38,6.38,0,0,1-1.267.918,2.451,2.451,0,0,1-.591.264,6.056,6.056,0,0,1,.548-.337,8.316,8.316,0,0,0,1.228-.933,8.178,8.178,0,0,0,1.021-1.156,5.62,5.62,0,0,1,.387-.529" transform="translate(-43.171 -195.763)" fill="#455a64"/>
        <path id="Path_1809" data-name="Path 1809" d="M42.28,173.242c-.755,2.2-.671,2.014-2.084,8.6-.26,1.216.2,3.125,1.3,3.7a3.25,3.25,0,0,0,3.694-1.115l1.048-9.939Z" transform="translate(-30.481 -131.603)" fill="#ffbf9d"/>
        <path id="Path_1810" data-name="Path 1810" d="M62.5,160.451l-.031-5.237.022-.514,5.314-1.24s-1.043-3.437-2-7.131a5.715,5.715,0,0,0-2.836-3.437l-.1-.046-5.115-2.163c-1.034,1.1-2.538,1.985-3.987,1.562a4.539,4.539,0,0,1-2.105-1.442l-3.444,1.185a4.49,4.49,0,0,0-2.384,1.923c-.721,1.286-3.026,7.138-3.074,7.259l4.269.382s-.757,13.849-.481,16.322a7.478,7.478,0,0,0,3.653.841c5.307.24,13.2-.127,13.2-.127-.125-.8-.255-2.132-.327-2.807Z" transform="translate(-32.483 -106.869)" fill="#e11941"/>
        <path id="Path_1811" data-name="Path 1811" d="M59.333,164.492c.022,0-.091,3.3-.252,7.374s-.31,7.374-.324,7.374.091-3.3.24-7.376.315-7.374.336-7.372" transform="translate(-44.633 -124.956)" fill="#263238"/>
        <path id="Path_1812" data-name="Path 1812" d="M122.438,168.313c-.036,0,.07,2.932.24,6.545s.339,6.54.377,6.538-.07-2.93-.24-6.545-.339-6.538-.377-6.538" transform="translate(-93.004 -127.858)" fill="#263238"/>
        <path id="Path_1813" data-name="Path 1813" d="M115.955,191.207c-.173-1.3-.317-2.449-.317-2.449l-4.249.988.183.685-3.286-3.339-.522.046-1.654,1.719a41.581,41.581,0,0,0,2.281,4.23c1.091,1.543,2.8,3.894,5.153,3.7,2.17-.183,2.721-3.245,2.411-5.576" transform="translate(-80.606 -142.124)" fill="#ffbf9d"/>
        <path id="Path_1814" data-name="Path 1814" d="M131.031,202.8a3.607,3.607,0,0,0-.933-.858,3.773,3.773,0,0,0-1.11-.615c-.019.036.481.32,1.029.721s.988.781,1.014.752" transform="translate(-97.985 -152.934)" fill="#ff9a6c"/>
        <path id="Path_1815" data-name="Path 1815" d="M91.29,166.618l1.461-.745,1.894.6.937.865,1.442,3.634,1.156,1.464-2.041,2.644-1.291-2.355a4.089,4.089,0,0,1-1.533-1.168c-.44-.687-.635-1.067-.635-1.067s-.632-.3-.75-.6a1.4,1.4,0,0,1-.111-.517l.32-.469a1.178,1.178,0,0,1,.1-.6.585.585,0,0,1,.24-.2s-.094-.394.053-.536a4.65,4.65,0,0,1,.875-.4l-.637-.363s-1.4.449-1.478-.2" transform="translate(-69.348 -126.005)" fill="#ffbf9d"/>
        <path id="Path_1816" data-name="Path 1816" d="M97.271,174.408c0,.019-.224.024-.481.082s-.481.139-.481.123a1.146,1.146,0,0,1,.481-.183,1.087,1.087,0,0,1,.481-.022" transform="translate(-73.162 -132.475)" fill="#ff9a6c"/>
        <path id="Path_1817" data-name="Path 1817" d="M95.831,177.762a3.852,3.852,0,0,1-.423.055,3.525,3.525,0,0,1-.418.072.921.921,0,0,1,.409-.135.96.96,0,0,1,.433.007" transform="translate(-72.159 -135.015)" fill="#ff9a6c"/>
        <path id="Path_1818" data-name="Path 1818" d="M95.835,182c-.017,0-.029-.084-.026-.187s.017-.185.034-.185.029.084.029.187-.019.185-.036.185" transform="translate(-72.781 -137.969)" fill="#ff9a6c"/>
        <path id="Path_1819" data-name="Path 1819" d="M95.728,183.057a.819.819,0,0,0-.135-.337.911.911,0,0,0-.293-.214.3.3,0,0,1,.115,0,.481.481,0,0,1,.24.163.5.5,0,0,1,.1.26c-.007.084-.024.127-.031.127" transform="translate(-72.394 -138.636)" fill="#ff9a6c"/>
        <path id="Path_1820" data-name="Path 1820" d="M99.931,178.829a.9.9,0,0,0-.255-.24.965.965,0,0,0-.346-.086.235.235,0,0,1,.111-.031.5.5,0,0,1,.461.257c.034.055.036.1.029.1" transform="translate(-75.456 -135.575)" fill="#ff9a6c"/>
        <path id="Path_1821" data-name="Path 1821" d="M102.83,175.425a.889.889,0,0,0-.24-.24,1.117,1.117,0,0,0-.32-.111.232.232,0,0,1,.106-.022.51.51,0,0,1,.24.079.482.482,0,0,1,.175.19c.043.06.046.1.038.1" transform="translate(-77.689 -132.978)" fill="#ff9a6c"/>
        <path id="Path_1822" data-name="Path 1822" d="M104.994,172.957a.627.627,0,0,0-.017-.125.572.572,0,0,0-.106-.267.581.581,0,0,0-.226-.18c-.07-.031-.118-.041-.115-.05s.053-.014.13,0a.505.505,0,0,1,.262.183.517.517,0,0,1,.1.3c0,.091-.019.139-.026.137" transform="translate(-79.406 -130.906)" fill="#ff9a6c"/>
        <path id="Path_1823" data-name="Path 1823" d="M99.679,170.924c0,.022-.305.026-.673.082a6.307,6.307,0,0,0-.656.171,1.514,1.514,0,0,1,.647-.24,2.93,2.93,0,0,1,.481-.036.58.58,0,0,1,.2.024" transform="translate(-74.711 -129.823)" fill="#ff9a6c"/>
        <g id="Group_627" data-name="Group 627" transform="translate(14.178 47.338)" opacity="0.3">
          <g id="Group_626" data-name="Group 626">
            <g id="Group_625" data-name="Group 625" clip-path="url(#clip-path-22)">
              <path id="Path_1824" data-name="Path 1824" d="M65.621,198.921a2.592,2.592,0,0,0-.361-1.2,2.28,2.28,0,0,0-2-.695,5.8,5.8,0,0,1-2.2-.072L58.99,203.1a3.074,3.074,0,0,0,1.868-1.368,3.348,3.348,0,0,1,.685-.988,2.621,2.621,0,0,1,1.61-.3,6.488,6.488,0,0,0,1.719-.252,1.147,1.147,0,0,0,.632-.361,1.234,1.234,0,0,0,.118-.916" transform="translate(-58.99 -196.953)"/>
            </g>
          </g>
        </g>
        <path id="Path_1825" data-name="Path 1825" d="M64.367,172.187l.644,6.843a.961.961,0,0,0,.423.786l4.151-.087a1.651,1.651,0,0,0,.317-1.163l-.461-6.55c-.026-.394-.173-.678-.351-.683l-4.372-.1c-.224,0-.4.466-.351.954" transform="translate(-48.89 -130.076)" fill="#263238"/>
        <path id="Path_1826" data-name="Path 1826" d="M61.5,177.579a.6.6,0,0,1,.014-.74.919.919,0,0,1,.721-.317,2.014,2.014,0,0,1,.779.18,5.082,5.082,0,0,1,.86.464.839.839,0,0,1,.43.526c.034.24-.224.481-.423.368a.984.984,0,0,1,.558.7c.036.291-.125.445-.409.522a.442.442,0,0,1,.24.57.5.5,0,0,1-.637.178,1.464,1.464,0,0,1-.541-.481,1.661,1.661,0,0,1,.075,1.043c-.62-.24-1.231-.916-1.046-1.57a.887.887,0,0,1-.24-1.06.868.868,0,0,1-.5-.738" transform="translate(-46.624 -134.094)" fill="#ffbf9d"/>
        <path id="Path_1827" data-name="Path 1827" d="M48.048,178.443,48,181.368l-.76,1.142-3.478,3.113s.514,4.228,2.086,3.766,1.949-.762,2.884-2.466a22.174,22.174,0,0,0,1.089-3.252,8.845,8.845,0,0,0,.022-2.11Z" transform="translate(-33.242 -135.554)" fill="#ffbf9d"/>
        <path id="Path_1828" data-name="Path 1828" d="M66.3,185.853a2.237,2.237,0,0,1-.267-.214,1.816,1.816,0,0,0-.7-.38.981.981,0,0,0-.433,0,.794.794,0,0,0-.32.151,1.045,1.045,0,0,0-.212.252.23.23,0,0,1,.026-.089.62.62,0,0,1,.154-.2.809.809,0,0,1,.337-.175,1,1,0,0,1,.461,0,1.684,1.684,0,0,1,.721.411,1.341,1.341,0,0,1,.233.245" transform="translate(-48.898 -140.663)" fill="#ff9a6c"/>
        <path id="Path_1829" data-name="Path 1829" d="M65.431,181.376a1.435,1.435,0,0,1-.324-.144c-.1-.048-.212-.108-.344-.161a2.974,2.974,0,0,0-.447-.125,1.349,1.349,0,0,0-.457-.017.849.849,0,0,0-.339.139.873.873,0,0,0-.24.257.242.242,0,0,1,.029-.091.622.622,0,0,1,.168-.2.818.818,0,0,1,.361-.161,1.244,1.244,0,0,1,.481,0,2.562,2.562,0,0,1,.457.135,3.009,3.009,0,0,1,.346.175,2.756,2.756,0,0,1,.31.2" transform="translate(-48.07 -137.379)" fill="#ff9a6c"/>
        <path id="Path_1830" data-name="Path 1830" d="M44.819,196.253a2.792,2.792,0,0,1-.043-1.089,3.3,3.3,0,0,1,.411-1.108,5.4,5.4,0,0,1,.918-1.125c.375-.363.76-.678,1.1-.961a11.794,11.794,0,0,0,.88-.829,5.254,5.254,0,0,0,.507-.656,1.343,1.343,0,0,0,.144-.262,2.06,2.06,0,0,0-.18.24,6.265,6.265,0,0,1-.531.608c-.24.24-.541.514-.889.805s-.721.606-1.113.961a5.237,5.237,0,0,0-.93,1.156,3.263,3.263,0,0,0-.411,1.154,2.273,2.273,0,0,0,.029.817,1.536,1.536,0,0,0,.062.214.577.577,0,0,0,.043.074" transform="translate(-33.926 -144.502)" fill="#ff9a6c"/>
      </g>
    </g>
  </g>
</svg>
