<svg xmlns="http://www.w3.org/2000/svg" width="11" height="10.732" viewBox="0 0 11 10.732">
  <path id="icons8_open_view" d="M6.476,6A1.478,1.478,0,0,0,5,7.476v6.573a1.611,1.611,0,0,0,1.61,1.61h3.508a3.461,3.461,0,0,1-.457-1.073H6.61a.537.537,0,0,1-.537-.537V8.683h8.049v1.772a3.476,3.476,0,0,1,1.073.572V7.476A1.478,1.478,0,0,0,13.72,6ZM7.549,9.748a.4.4,0,1,0,.4.4A.4.4,0,0,0,7.549,9.748Zm1.61,0a.4.4,0,0,0,0,.8h2.548a3.474,3.474,0,0,1,1.317-.267.4.4,0,0,0-.377-.538Zm3.89,1.081A2.951,2.951,0,1,0,16,13.78,2.951,2.951,0,0,0,13.049,10.829Zm-5.5.529a.4.4,0,1,0,.4.4.4.4,0,0,0-.4-.4Zm1.61,0a.4.4,0,1,0,0,.8h.8a3.493,3.493,0,0,1,.579-.8Zm3.89.276a.268.268,0,0,1,.268.268v2.84l.883-.883a.268.268,0,0,1,.379.379L13.238,15.58a.268.268,0,0,1-.379,0l-1.341-1.341a.268.268,0,0,1,.379-.379l.883.883V11.9A.268.268,0,0,1,13.049,11.634Zm-5.5,1.334a.4.4,0,1,0,.4.4A.4.4,0,0,0,7.549,12.968Zm1.61,0a.4.4,0,0,0,0,.8h.4a3.492,3.492,0,0,1,.1-.8Z" transform="translate(-5 -6)" fill="#111"/>
</svg>
